<?xml version="1.0" encoding="UTF-8"?>
<svg version="1.1" xmlns="http://www.w3.org/2000/svg" width="256" height="256">
<path d="M0 0 C2.69978231 2.58388256 4.27883141 5.71094756 6 9 C6.86818359 10.65322266 6.86818359 10.65322266 7.75390625 12.33984375 C17.14806941 31.01651605 23.1883918 53.56529786 17.03125 74.203125 C12.41884009 86.71253976 12.41884009 86.71253976 7.80200195 91.07861328 C2.80123392 95.87095439 0.40820044 99.04117747 0.12109375 106.1015625 C0.18021416 108.61089547 0.28655154 111.11951367 0.4375 113.625 C0.47810547 114.91535156 0.51871094 116.20570312 0.56054688 117.53515625 C0.66584517 120.69410513 0.81315311 123.84500239 1 127 C4.31591984 123.99998912 4.82440355 121.43448841 5.8125 117.0625 C9.43452987 102.49709182 16.57676076 90.69854138 29.25 82.1875 C44.16851439 73.41314104 59.98562562 68.86320901 77.25 68.75 C78.05179688 68.729375 78.85359375 68.70875 79.6796875 68.6875 C85.53884823 68.64830829 85.53884823 68.64830829 87.72900391 70.31860352 C89.84430829 73.11693261 89.28917079 75.59695346 89 79 C86.02144193 91.19100095 80.3597651 105.23516643 70 113 C65.67924528 112.67924528 65.67924528 112.67924528 64 111 C63.60038402 107.8462739 63.70501354 106.42525967 65.5390625 103.78125 C66.22742188 103.0284375 66.91578125 102.275625 67.625 101.5 C72.45102369 95.81525323 75.1566541 89.87141926 78 83 C58.25149678 93.56962144 38.98436744 106.37457249 22 121 C32.11685895 120.69664591 41.80253248 119.59873376 51 115 C52.99960012 114.960008 55.00047242 114.95653201 57 115 C57.33 116.98 57.66 118.96 58 121 C49.11456292 127.66407781 38.78955979 130.04311002 27.8359375 130.15234375 C26.23492187 130.17022949 26.23492187 130.17022949 24.6015625 130.18847656 C22.4839258 130.18783563 20.36581011 130.14555555 18.25 130.05761719 C12.62402469 129.9672047 12.62402469 129.9672047 8.02832031 132.84619141 C5.20772595 136.91668617 3.23363123 141.1888382 2 146 C3.05316406 146.15855469 4.10632813 146.31710938 5.19140625 146.48046875 C28.44163288 150.15998955 47.0511558 158.89195589 64.63720703 174.44824219 C67.71333105 177.35873122 67.71333105 177.35873122 71.75 177.875 C73.98745725 177.04486444 73.98745725 177.04486444 76 176 C80.23660902 175.56718336 83.91394711 175.55141294 87.875 177.1875 C91.1919832 180.01669156 92.63292968 182.70113578 93.8125 186.875 C94.1111065 191.85177494 93.27935243 195.53402418 89.96484375 199.33203125 C86.26835518 202.65838395 82.31791697 205.36848316 78.1875 208.125 C76.48415285 209.27441045 74.78103159 210.42415571 73.078125 211.57421875 C72.22669922 212.1470459 71.37527344 212.71987305 70.49804688 213.31005859 C67.46735899 215.36033435 64.4619951 217.44545852 61.45825195 219.53491211 C47.67611681 229.10098271 37.46243287 233.84156587 20.59375 235.5078125 C19.31447632 235.63815887 18.03520264 235.76850525 16.71716309 235.90280151 C14.0212729 236.17702599 11.32502025 236.44722643 8.62841797 236.71435547 C5.19172834 237.05500256 1.75600099 237.40442174 -1.67951202 237.75671577 C-4.98383925 238.09460808 -8.28880539 238.42601196 -11.59375 238.7578125 C-12.81791626 238.88278107 -14.04208252 239.00774963 -15.30334473 239.13650513 C-31.67150074 240.74765538 -31.67150074 240.74765538 -39.9140625 238.1015625 C-41.79738281 237.50601563 -41.79738281 237.50601563 -43.71875 236.8984375 C-45.02090882 236.47418997 -46.32299159 236.04970892 -47.625 235.625 C-48.93456316 235.20728892 -50.24445734 234.79061416 -51.5546875 234.375 C-60.89467729 231.39619667 -60.89467729 231.39619667 -65.18896484 229.85693359 C-68.86848686 228.73524502 -71.2932506 229.0389909 -75 230 C-77.29289472 231.95809523 -77.29289472 231.95809523 -79 234 C-79.66 234 -80.32 234 -81 234 C-80.95359375 234.73605469 -80.9071875 235.47210938 -80.859375 236.23046875 C-80.56915545 244.07676167 -80.56915545 244.07676167 -82.3125 247.8125 C-88.45064958 252.80866827 -94.76378621 256.65240108 -102.83203125 256.69921875 C-109.48611089 254.5531282 -112.4994636 249.01718777 -115.5 243.1875 C-116.35921199 241.58054862 -117.22135729 239.97516328 -118.0859375 238.37109375 C-118.54838867 237.50983887 -119.01083984 236.64858398 -119.48730469 235.76123047 C-122.26167647 230.6969721 -125.20135169 225.72905221 -128.125 220.75 C-129.31906654 218.70576195 -130.51307836 216.66149193 -131.70703125 214.6171875 C-133.67097977 211.26053915 -135.64560202 207.91090333 -137.63671875 204.5703125 C-138.36210618 203.33861646 -139.08737887 202.10685283 -139.8125 200.875 C-140.41707031 199.86179688 -141.02164063 198.84859375 -141.64453125 197.8046875 C-143.87654505 193.18628431 -144.40413174 190.37853826 -142.9453125 185.40234375 C-139.58056687 179.51741716 -133.99834671 176.74170372 -128 174 C-123.94529807 173.1843311 -120.63028579 173.52784448 -116.68432617 174.6706543 C-113.30279933 175.08554104 -111.9838828 174.3273363 -109.05078125 172.6484375 C-108.11943359 172.12636719 -107.18808594 171.60429687 -106.22851562 171.06640625 C-104.78508789 170.22916016 -104.78508789 170.22916016 -103.3125 169.375 C-101.41372683 168.29777394 -99.513992 167.2222411 -97.61328125 166.1484375 C-96.21577637 165.35651001 -96.21577637 165.35651001 -94.79003906 164.54858398 C-82.09073837 157.49996093 -70.31569552 153.30399181 -55.75 157.4375 C-49.8042635 158.67087882 -45.63019353 156.43299435 -40.4152832 153.88818359 C-35.19131852 151.38240442 -30.09851505 149.78362927 -24.4375 148.5625 C-23.70007568 148.39927246 -22.96265137 148.23604492 -22.20288086 148.06787109 C-17.72157458 147.15048652 -13.57150268 146.84981923 -9 147 C-9.57408197 145.45486448 -10.15980302 143.91405212 -10.75 142.375 C-11.07484375 141.51648438 -11.3996875 140.65796875 -11.734375 139.7734375 C-12.15203125 138.85820312 -12.5696875 137.94296875 -13 137 C-13.48210937 135.91332031 -13.96421875 134.82664063 -14.4609375 133.70703125 C-17.3458223 130.63130022 -17.91528697 130.5701648 -21.9296875 130.30078125 C-23.91135855 130.28051397 -25.89340581 130.28575378 -27.875 130.3125 C-29.96760262 130.27627219 -32.0600822 130.23203073 -34.15234375 130.1796875 C-35.16280762 130.15616211 -36.17327148 130.13263672 -37.21435547 130.10839844 C-53.70686923 129.46662139 -68.71013104 121.81093983 -80 110 C-80.5465625 109.484375 -81.093125 108.96875 -81.65625 108.4375 C-89.12397064 100.81089169 -96.24728819 86.44473708 -96.3125 75.75 C-96 72 -96 72 -94.99609375 70.2890625 C-91.80522685 68.22842438 -88.42448643 68.55892036 -84.75 68.625 C-83.5448877 68.6391394 -83.5448877 68.6391394 -82.31542969 68.65356445 C-61.75884614 69.16321503 -41.30290001 76.30283145 -26.25390625 90.5546875 C-17.99144445 99.51881416 -13.59898508 110.33429846 -11.4921875 122.22265625 C-11.09153706 124.23696162 -11.09153706 124.23696162 -9 126 C-8.76565112 121.68843121 -8.62490797 117.37851641 -8.5 113.0625 C-8.43296875 111.85013672 -8.3659375 110.63777344 -8.296875 109.38867188 C-8.15724825 102.94838785 -8.32221067 98.93143774 -12.7890625 94.06640625 C-13.51577148 93.36990967 -14.24248047 92.67341309 -14.99121094 91.95581055 C-17.83471519 89.18729905 -19.17202116 86.45207039 -20.875 82.875 C-21.42929688 81.73804687 -21.98359375 80.60109375 -22.5546875 79.4296875 C-30.38991387 60.83690708 -27.06663189 40.72181412 -20.02148438 22.43652344 C-9.92195305 -1.65365884 -9.92195305 -1.65365884 0 0 Z M0 18 C0 40.44 0 62.88 0 86 C8.10324483 77.89675517 10.79152806 67.61724399 11.1015625 56.2890625 C10.50435949 42.7240227 6.58506629 30.29172376 1 18 C0.67 18 0.34 18 0 18 Z M-9 19 C-16.81621395 37.06076622 -21.98953267 55.92350713 -15.21875 75.171875 C-13.50927592 79.13873151 -11.53726546 82.50268816 -9 86 C-8.67 86 -8.34 86 -8 86 C-8 63.89 -8 41.78 -8 19 C-8.33 19 -8.66 19 -9 19 Z M-73 79 C-68.8877308 82.49946046 -64.50840663 85.1498809 -59.875 87.875 C-47.56930486 95.24567827 -35.92827748 103.7074838 -25 113 C-24.34 112.67 -23.68 112.34 -23 112 C-29.95428426 97.13027023 -40.73941232 87.92234072 -55.95996094 82.27246094 C-61.60682528 80.36362166 -67.00305685 78.73247837 -73 79 Z M27.125 95.83203125 C19.93850695 102.84515183 19.93850695 102.84515183 17 112 C19.85053166 110.66349277 22.27720827 109.14850967 24.7734375 107.234375 C25.505625 106.68048096 26.2378125 106.12658691 26.9921875 105.5559082 C27.77851563 104.9599585 28.56484375 104.36400879 29.375 103.75 C37.6154602 97.57208423 46.12065882 91.95128423 54.87646484 86.53222656 C56.20605225 85.70609863 56.20605225 85.70609863 57.5625 84.86328125 C58.34753906 84.38157471 59.13257813 83.89986816 59.94140625 83.40356445 C61.87635583 82.08430151 63.41341908 80.71425506 65 79 C50.92526372 79 37.07818265 86.30951516 27.125 95.83203125 Z M-85 83 C-83.21545009 94.29538975 -75.20926831 104.19816584 -66.36328125 111.0390625 C-54.52332541 118.97740665 -41.22370084 122.54706542 -27 122 C-31.01846923 117.7131065 -35.407239 114.33922635 -40.1875 110.9375 C-40.97487549 110.37385742 -41.76225098 109.81021484 -42.57348633 109.22949219 C-53.63385354 101.35858023 -64.88828737 93.78568912 -76.5 86.75 C-77.1293042 86.36682617 -77.7586084 85.98365234 -78.40698242 85.58886719 C-81.48909016 83.62111269 -81.48909016 83.62111269 -85 83 Z M-40 163 C-37.80293256 165.19706744 -35.72313263 166.38191876 -33 167.875 C-32.113125 168.36742187 -31.22625 168.85984375 -30.3125 169.3671875 C-29.219375 169.90601563 -28.12625 170.44484375 -27 171 C-26.32146973 171.33475342 -25.64293945 171.66950684 -24.94384766 172.0144043 C-17.36167062 175.41982444 -9.54914527 176.20547082 -1.375 177.0625 C14.82331916 178.79395251 14.82331916 178.79395251 22 182 C22.99 182.33 23.98 182.66 25 183 C26.80482609 185.882528 27.68394604 188.99908633 28.625 192.25 C28.88539063 193.14203125 29.14578125 194.0340625 29.4140625 194.953125 C29.60742188 195.62859375 29.80078125 196.3040625 30 197 C37.51254735 196.63023476 43.2556064 193.86774844 49.9375 190.5625 C50.99001953 190.05912109 52.04253906 189.55574219 53.12695312 189.03710938 C58.38383941 186.92340211 58.38383941 186.92340211 62 183 C31.13503519 158.40712034 -2.02820524 146.54989028 -40 163 Z M-99.1875 176.6875 C-100.22197266 177.26822266 -101.25644531 177.84894531 -102.32226562 178.44726562 C-107.43365087 180.93169702 -107.43365087 180.93169702 -111 185 C-109.98162696 186.70823864 -108.96152369 188.41551787 -107.92578125 190.11328125 C-106.61593953 192.78270551 -106.71559784 195.08487785 -107 198 C-109.73828125 197.90234375 -109.73828125 197.90234375 -113 197 C-114.69574208 194.81721466 -115.91955983 192.96721412 -117.1875 190.5625 C-119.82773453 185.65810803 -119.82773453 185.65810803 -124 182 C-125.65206447 182.92647536 -127.2964997 183.86656574 -128.9375 184.8125 C-129.85402344 185.33457031 -130.77054688 185.85664063 -131.71484375 186.39453125 C-134.284062 187.86140987 -134.284062 187.86140987 -135 191 C-134.05449857 193.37197371 -134.05449857 193.37197371 -132.52734375 195.91796875 C-131.68224243 197.41179077 -131.68224243 197.41179077 -130.82006836 198.93579102 C-130.1988208 200.00885498 -129.57757324 201.08191895 -128.9375 202.1875 C-127.9930603 203.84446899 -127.9930603 203.84446899 -127.02954102 205.53491211 C-125.36546334 208.44648006 -123.69217768 211.35220166 -122.01123047 214.25402832 C-121.01880972 215.96752348 -120.02891136 217.68247877 -119.0390625 219.39746094 C-113.48557839 229.01122195 -107.93555262 238.61585815 -102 248 C-96.84535266 247.51675181 -93.18449681 244.81389239 -89 242 C-89.58361385 237.67310479 -91.14975272 234.70913299 -93.4140625 231 C-94.09936282 229.85440854 -94.78424623 228.70856759 -95.46875 227.5625 C-96.54746794 225.77513525 -97.63063524 223.99080698 -98.72167969 222.2109375 C-99.77789205 220.48137786 -100.81560887 218.74174713 -101.8515625 217 C-102.47885254 215.96875 -103.10614258 214.9375 -103.75244141 213.875 C-105.14691819 210.66142688 -105.07434208 209.27647984 -104 206 C-101.68798828 205.7265625 -101.68798828 205.7265625 -99 206 C-97.37841797 207.8359375 -97.37841797 207.8359375 -95.9921875 210.375 C-95.48042969 211.27734375 -94.96867187 212.1796875 -94.44140625 213.109375 C-93.92449219 214.06328125 -93.40757813 215.0171875 -92.875 216 C-91.84071135 217.88052481 -90.79691524 219.75586224 -89.7421875 221.625 C-89.2869873 222.46289062 -88.83178711 223.30078125 -88.36279297 224.1640625 C-87.68821045 225.07285156 -87.68821045 225.07285156 -87 226 C-83.14158 226 -82.04175105 224.61229834 -79.20703125 222.19140625 C-73.20004976 218.94869943 -68.3877424 219.96597175 -62.0859375 221.80078125 C-59.50890236 222.62231042 -56.94101894 223.45854474 -54.375 224.3125 C-53.06557733 224.73519253 -51.75568348 225.15642835 -50.4453125 225.57617188 C-40.99612631 228.62382606 -40.99612631 228.62382606 -37.20782471 230.0544281 C-27.65558077 232.87014725 -16.43484453 230.85664674 -6.6640625 229.828125 C-5.45986664 229.70443542 -4.25567078 229.58074585 -3.01498413 229.45330811 C-0.49542286 229.19150418 2.023734 228.92578017 4.54248047 228.65625 C8.38487059 228.24895371 12.22923208 227.86627868 16.07421875 227.484375 C18.53661643 227.22545752 20.99886232 226.96509147 23.4609375 226.703125 C24.6006601 226.59252747 25.74038269 226.48192993 26.91464233 226.36798096 C33.37105897 225.64857914 38.47089073 224.46286848 44 221 C44.69947754 220.56518311 45.39895508 220.13036621 46.11962891 219.68237305 C46.64991699 219.29605713 47.18020508 218.90974121 47.7265625 218.51171875 C48.35554443 218.05974121 48.98452637 217.60776367 49.63256836 217.14208984 C50.2900708 216.6620752 50.94757324 216.18206055 51.625 215.6875 C59.60880092 209.94775022 67.71219797 204.39965934 75.86376953 198.90112305 C77.21317627 197.98713745 77.21317627 197.98713745 78.58984375 197.0546875 C79.79435181 196.24233643 79.79435181 196.24233643 81.02319336 195.41357422 C84.22534176 193.15626938 84.22534176 193.15626938 85.4375 189.5625 C85.2307391 186.85496254 85.2307391 186.85496254 83.0546875 185.0703125 C79.49130254 183.82176074 78.99617266 184.10133622 75.69921875 185.61328125 C74.01737332 186.49176922 72.34729632 187.39303203 70.6875 188.3125 C69.80320313 188.7772876 68.91890625 189.2420752 68.0078125 189.72094727 C65.32872186 191.12963818 62.66406589 192.56314393 60 194 C57.17718178 195.50031441 54.34231742 196.97455806 51.5 198.4375 C49.75203125 199.36369141 49.75203125 199.36369141 47.96875 200.30859375 C36.23668357 205.67438722 23.40786726 205.88767775 10.75 206.6875 C8.84889462 206.8174305 6.94785206 206.94828358 5.046875 207.08007812 C3.21359833 207.20396629 1.3802665 207.32704161 -0.453125 207.44921875 C-1.29288879 207.50542892 -2.13265259 207.5616391 -2.99786377 207.61955261 C-8.00862612 207.93449593 -12.97923341 208.14040887 -18 208 C-19 207 -19 207 -19.0625 204.4375 C-19.041875 203.633125 -19.02125 202.82875 -19 202 C-15.67727354 200.33863677 -11.93474572 200.50875957 -8.2734375 200.24609375 C-6.97921371 200.14833397 -6.97921371 200.14833397 -5.65884399 200.04859924 C-2.89784095 199.84095795 -0.13644536 199.63916512 2.625 199.4375 C4.49482041 199.29791047 6.36461251 199.15794134 8.234375 199.01757812 C12.82259969 198.67397677 17.41118491 198.33562064 22 198 C21.19023052 194.17199882 20.52502294 191.58228499 17.87792969 188.64648438 C14.30008754 186.59957503 10.98061524 186.07456126 6.953125 185.65625 C5.79716827 185.51249939 5.79716827 185.51249939 4.61785889 185.36584473 C2.1634983 185.06149235 -0.29257675 184.77846292 -2.75 184.5 C-22.72277625 182.21705787 -22.72277625 182.21705787 -30 178 C-30.61117676 177.67338379 -31.22235352 177.34676758 -31.85205078 177.01025391 C-33.04455316 176.36991316 -34.23144291 175.71898595 -35.41186523 175.05664062 C-59.76328501 161.42279196 -75.36108866 163.01711585 -99.1875 176.6875 Z " fill="#000000" transform="translate(153,0)"/>
</svg>
