<?xml version="1.0" encoding="UTF-8"?>
<svg version="1.1" xmlns="http://www.w3.org/2000/svg" width="256" height="256">
<path d="M0 0 C3.54260413 1.58200841 6.7709503 3.57961814 10.0625 5.625 C33.41050998 19.4441094 59.05687492 30.12868155 84.93359375 38.18359375 C86.08230957 38.54146973 87.23102539 38.8993457 88.41455078 39.26806641 C90.62829887 39.94851003 92.84661559 40.61431728 95.06982422 41.26318359 C96.06385254 41.56434082 97.05788086 41.86549805 98.08203125 42.17578125 C99.40037964 42.56117065 99.40037964 42.56117065 100.74536133 42.9543457 C103.5340699 44.24769046 104.41859685 45.37234036 106 48 C106.3742218 50.68673706 106.3742218 50.68673706 106.37231445 53.79638672 C106.37854324 54.966362 106.38477203 56.13633728 106.39118958 57.34176636 C106.37737495 59.24153732 106.37737495 59.24153732 106.36328125 61.1796875 C106.36402901 63.15716476 106.36402901 63.15716476 106.36479187 65.17459106 C106.36470208 67.97734948 106.35428247 70.77982081 106.33618164 73.58251953 C106.31388498 77.10559149 106.31307583 80.62823435 106.31942081 84.1513567 C106.3756469 125.08943016 106.3756469 125.08943016 101.4375 144.5625 C101.18137939 145.5949585 100.92525879 146.62741699 100.66137695 147.69116211 C94.17514316 172.4749227 81.43237107 195.02635464 64.04296875 213.74609375 C62.62324156 215.31240845 61.26157259 216.93252833 59.94921875 218.58984375 C57.0151044 222.21779676 53.5869187 225.032285 50 228 C49.50709473 228.41056641 49.01418945 228.82113281 48.50634766 229.24414062 C33.42134395 241.72891194 13.69341914 256.58239612 -6.6640625 256.3359375 C-21.64494343 254.8273242 -37.42358964 244.08057877 -49 235 C-49.86367187 234.32839844 -50.72734375 233.65679687 -51.6171875 232.96484375 C-54.10256217 231.00449503 -56.55829595 229.01440584 -59 227 C-60.06734375 226.12021484 -60.06734375 226.12021484 -61.15625 225.22265625 C-65.92896088 221.17503029 -69.98256205 216.78620694 -74 212 C-74.75023437 211.16082031 -75.50046875 210.32164062 -76.2734375 209.45703125 C-94.17382971 188.98733985 -105.28243141 163.95584975 -110.75 137.5 C-110.96100342 136.49195313 -111.17200684 135.48390625 -111.3894043 134.4453125 C-114.72164687 117.42448544 -114.27760242 99.92725401 -114.35009766 82.65380859 C-114.36356845 79.78305132 -114.39171068 76.91298284 -114.43212891 74.04248047 C-114.48142612 70.53675025 -114.50620701 67.03165468 -114.51332474 63.5255928 C-114.52324382 61.56178223 -114.55744734 59.59814233 -114.59213257 57.63461304 C-114.57113352 48.84832777 -114.57113352 48.84832777 -111.83496094 44.78417969 C-108.90644009 42.94111817 -106.44946615 41.85001101 -103.1171875 40.9296875 C-101.96355713 40.59654541 -100.80992676 40.26340332 -99.62133789 39.92016602 C-98.38504639 39.57526123 -97.14875488 39.23035645 -95.875 38.875 C-81.1459801 34.5759259 -67.08572709 29.09273204 -53 23 C-52.02981934 22.58637207 -51.05963867 22.17274414 -50.06005859 21.74658203 C-38.13533343 16.64127692 -26.82073506 10.91455274 -15.76074219 4.11376953 C-6.07906091 -1.65459493 -6.07906091 -1.65459493 0 0 Z M-10.25390625 15.203125 C-11.09429443 15.68289795 -11.93468262 16.1626709 -12.80053711 16.65698242 C-13.71198486 17.18267822 -14.62343262 17.70837402 -15.5625 18.25 C-39.31236237 31.55747835 -64.87867897 41.7549436 -90.70703125 50.265625 C-92.34750427 50.80920654 -92.34750427 50.80920654 -94.02111816 51.36376953 C-96.68008843 52.24452164 -99.33971323 53.12323412 -102 54 C-102.07052768 61.57338261 -102.12331881 69.14672987 -102.15543652 76.72036934 C-102.17087677 80.23980702 -102.1917002 83.75901488 -102.22631836 87.27832031 C-102.42194041 107.73527435 -102.34536617 128.27398945 -96.1875 148 C-95.92815674 148.86189941 -95.66881348 149.72379883 -95.40161133 150.61181641 C-83.64806054 188.65368068 -55.16901427 220.37350537 -20.421875 239.26171875 C-9.95315468 244.62882675 -9.95315468 244.62882675 1.40625 244.08203125 C16.94458222 237.59992579 30.05988209 228.741443 43 218 C43.63550781 217.48824219 44.27101562 216.97648438 44.92578125 216.44921875 C49.4710942 212.71016974 53.23413125 208.51119694 57 204 C57.70125 203.18660156 58.4025 202.37320313 59.125 201.53515625 C74.06209707 183.87515086 83.54798736 163.929053 89.6875 141.6875 C89.89004395 140.97827393 90.09258789 140.26904785 90.30126953 139.53833008 C94.96863227 121.88682353 94.25405041 103.64617176 94.1373291 85.55541992 C94.11656282 81.98814294 94.10767081 78.42083612 94.09765625 74.85351562 C94.07645387 67.90227247 94.04249579 60.95114486 94 54 C92.9891333 53.65332275 91.9782666 53.30664551 90.93676758 52.94946289 C52.7131353 39.8118479 52.7131353 39.8118479 36 32 C34.98486328 31.52675293 33.96972656 31.05350586 32.92382812 30.56591797 C21.89651817 25.39830142 10.89948727 20.21763401 0.35546875 14.109375 C-3.8376182 12.13452144 -6.49597388 13.00494018 -10.25390625 15.203125 Z " fill="#000000" transform="translate(132,0)"/>
<path d="M0 0 C4.41854291 3.11306432 8.02390999 6.75922996 9.75 11.9375 C9.98828125 13.91796875 9.98828125 13.91796875 10.0625 16.125 C10.11857422 17.19814453 10.11857422 17.19814453 10.17578125 18.29296875 C8.97645247 25.74201079 4.26265468 31.00754462 -0.94287109 36.13208008 C-1.60681381 36.80142578 -2.27075653 37.47077148 -2.95481873 38.16040039 C-5.13459637 40.35260398 -7.32844765 42.53006763 -9.5234375 44.70703125 C-11.05100142 46.23475027 -12.57789758 47.76313725 -14.10415649 49.29216003 C-17.2971826 52.48656731 -20.49704205 55.67391591 -23.70214844 58.85620117 C-27.80521844 62.93085191 -31.89249931 67.02091867 -35.97501183 71.11615467 C-39.12297811 74.2710819 -42.27828058 77.41858702 -45.43593216 80.56381798 C-46.9458386 82.06921657 -48.45367038 83.57669905 -49.95936203 85.08631325 C-52.06509231 87.1949606 -54.1802936 89.29362585 -56.29833984 91.38989258 C-56.91568497 92.01173935 -57.53303009 92.63358612 -58.16908264 93.27427673 C-62.80852357 97.83490379 -67.33840448 101.36387443 -74.125 101.375 C-74.90617187 101.39433594 -75.68734375 101.41367188 -76.4921875 101.43359375 C-84.33318193 100.02310325 -89.6758096 95.1088018 -95.109375 89.609375 C-95.82103821 88.9015387 -96.53270142 88.19370239 -97.26593018 87.4644165 C-98.75984148 85.97321312 -100.2487699 84.47700267 -101.73291016 82.97607422 C-103.99346672 80.69409519 -106.27457666 78.43425115 -108.55859375 76.17578125 C-110.01430499 74.71742654 -111.4687748 73.25783136 -112.921875 71.796875 C-113.93601471 70.79488068 -113.93601471 70.79488068 -114.97064209 69.77264404 C-119.6532631 64.99698 -123.33978878 60.16730509 -124.78125 53.46875 C-124.67574216 46.61074033 -122.7046994 41.68098756 -118.125 36.5625 C-112.67293717 33.48089927 -106.90305063 32.13536969 -100.75 33.75 C-94.87095711 36.11193127 -90.67388955 40.5332431 -86.25 44.9375 C-85.22400369 45.94926475 -84.19796055 46.96098201 -83.171875 47.97265625 C-80.51154688 50.60851577 -77.87555308 53.267023 -75.25 55.9375 C-71.36125437 54.34778643 -68.93736947 51.84734972 -66.01000977 48.87695312 C-65.24577194 48.10592506 -65.24577194 48.10592506 -64.46609497 47.31932068 C-63.36336543 46.20565525 -62.26292178 45.08972273 -61.16452217 43.9717865 C-59.42465782 42.20171075 -57.67815813 40.43843722 -55.92967224 38.67687988 C-50.96071879 33.66821233 -46.00456701 28.64694491 -41.05151367 23.62255859 C-38.01876526 20.54706645 -34.97871796 17.47894099 -31.93427849 14.4150238 C-30.77715415 13.24734213 -29.62295368 12.0767554 -28.47177315 10.9032135 C-26.86108865 9.26128931 -25.24135149 7.62881596 -23.61938477 5.99804688 C-22.70101334 5.0669812 -21.78264191 4.13591553 -20.83644104 3.17663574 C-14.80667908 -2.04345446 -7.41118534 -2.42288751 0 0 Z M-17.23608398 16.33764648 C-17.80117676 16.91150085 -18.36626953 17.48535522 -18.94848633 18.07659912 C-20.17139759 19.3223109 -21.3873286 20.57490524 -22.59698296 21.83349419 C-24.51336873 23.82655995 -26.44797546 25.80018168 -28.38844299 27.76979065 C-33.20356769 32.6650953 -37.98562126 37.59230734 -42.7689209 42.51867676 C-46.81249745 46.68071329 -50.8681796 50.83021011 -54.94075203 54.96388435 C-56.84496879 56.90693599 -58.73018651 58.86719519 -60.61534119 60.82872009 C-61.78750175 62.0226835 -62.96051723 63.21580841 -64.13452148 64.40795898 C-64.65162186 64.95605728 -65.16872223 65.50415558 -65.70149231 66.06886292 C-69.34148268 69.7119487 -72.10052642 70.89727457 -77.25 70.9375 C-79.60401887 69.28661182 -81.15133897 67.93600353 -83.04296875 65.85546875 C-83.5562825 65.32609207 -84.06959625 64.79671539 -84.59846497 64.251297 C-86.23146812 62.56042706 -87.83486557 60.84463613 -89.4375 59.125 C-91.05572623 57.42156596 -92.67959752 55.72390055 -94.30867004 54.03083801 C-95.31900942 52.97734262 -96.32221714 51.91694813 -97.31718445 50.84892273 C-99.75434493 48.27343381 -101.86873307 46.13266919 -105.25 44.9375 C-107.8772914 45.01283247 -107.8772914 45.01283247 -110.25 45.9375 C-112.53475547 48.78185785 -112.53475547 48.78185785 -112.31420898 52.14697266 C-110.85435068 57.34673409 -108.05426972 59.90920038 -104.22265625 63.5859375 C-103.51854111 64.28393463 -102.81442596 64.98193176 -102.088974 65.70108032 C-99.84385244 67.91932974 -97.57846347 70.11556651 -95.3125 72.3125 C-93.79100174 73.81246839 -92.27080384 75.31375704 -90.75195312 76.81640625 C-87.97504383 79.55121642 -85.19665088 82.28428385 -82.39868164 84.99755859 C-81.83766251 85.54270111 -81.27664337 86.08784363 -80.69862366 86.64950562 C-78.64472916 88.47565595 -77.29134097 88.93065875 -74.55671692 89.38319397 C-69.73953623 88.733913 -67.66167282 86.19133368 -64.3425293 82.80639648 C-63.68001663 82.15439774 -63.01750397 81.50239899 -62.33491516 80.8306427 C-60.14934693 78.67147871 -57.98645518 76.49110443 -55.82421875 74.30859375 C-54.3114898 72.79990667 -52.79787114 71.29211121 -51.28340149 69.78517151 C-48.11226233 66.62287998 -44.95223307 63.44998626 -41.79956055 60.26928711 C-37.76000288 56.1955743 -33.69414672 52.14935213 -29.61955547 48.11071682 C-26.48855557 45.00141479 -23.37200824 41.877942 -20.25962257 38.75001717 C-18.76611401 37.25250918 -17.26814393 35.75943702 -15.76566124 34.27093315 C-13.66573087 32.18626567 -11.58603575 30.08328266 -9.51049805 27.97436523 C-8.57625504 27.0583403 -8.57625504 27.0583403 -7.62313843 26.12380981 C-3.86053574 22.24850917 -2.32490964 19.56960796 -2.25 13.9375 C-3.16666667 11.85416667 -3.16666667 11.85416667 -5.25 10.9375 C-11.02781579 10.08792599 -13.47095585 12.34769533 -17.23608398 16.33764648 Z " fill="#000000" transform="translate(185.25,78.0625)"/>
<path d="M0 0 C1.8125 1.125 1.8125 1.125 3 3 C3.4375 6 3.4375 6 3 9 C0.062229 11.73440678 -3.10856956 12.94128214 -6.859375 14.26171875 C-8.53193359 14.85629883 -8.53193359 14.85629883 -10.23828125 15.46289062 C-11.97658203 16.06907227 -11.97658203 16.06907227 -13.75 16.6875 C-14.92433594 17.10322266 -16.09867188 17.51894531 -17.30859375 17.94726562 C-20.2035871 18.97110474 -23.10070538 19.98841898 -26 21 C-26.01458252 21.55985596 -26.02916504 22.11971191 -26.04418945 22.6965332 C-26.11871352 25.23588137 -26.21535581 27.77392078 -26.3125 30.3125 C-26.34633789 31.63411133 -26.34633789 31.63411133 -26.38085938 32.98242188 C-26.41630859 33.82998047 -26.45175781 34.67753906 -26.48828125 35.55078125 C-26.51446533 36.33106689 -26.54064941 37.11135254 -26.56762695 37.9152832 C-27.10796695 40.52057017 -27.84485734 41.46087852 -30 43 C-33.625 42.8125 -33.625 42.8125 -37 42 C-39.23343367 37.53313266 -38.27478717 31.46768182 -38.3125 26.5625 C-38.34150391 25.30888672 -38.37050781 24.05527344 -38.40039062 22.76367188 C-38.40876953 21.56419922 -38.41714844 20.36472656 -38.42578125 19.12890625 C-38.44036377 18.02619385 -38.45494629 16.92348145 -38.4699707 15.78735352 C-38 13 -38 13 -36.38330078 11.27197266 C-33.46991576 9.71709292 -30.56292716 8.60259622 -27.44140625 7.51953125 C-26.81523911 7.30181564 -26.18907196 7.08410004 -25.54393005 6.85978699 C-24.22477325 6.40335526 -22.90435184 5.95056391 -21.58276367 5.5012207 C-19.56873771 4.81462648 -17.56071242 4.11226102 -15.55273438 3.40820312 C-14.26595527 2.96518537 -12.97885585 2.52309668 -11.69140625 2.08203125 C-10.52810791 1.68218018 -9.36480957 1.2823291 -8.16625977 0.87036133 C-5.23059883 0.06338845 -3.01658275 -0.27545484 0 0 Z " fill="#000000" transform="translate(78,49)"/>
<path d="M0 0 C3 0.1875 3 0.1875 6 1 C8.19681831 4.29522747 8.53151252 5.17870471 8 9 C6.34765625 11.76171875 6.34765625 11.76171875 4.0625 14.6875 C3.65572021 15.21005371 3.24894043 15.73260742 2.82983398 16.27099609 C-19.71933176 44.87989719 -19.71933176 44.87989719 -30.25 46.5 C-33 46 -33 46 -34.9375 44.875 C-36 43 -36 43 -36.03125 40.33203125 C-34.51945821 35.44734037 -31.34862269 33.10526263 -27.5625 29.8125 C-26.09341032 28.48632675 -24.62726454 27.15688516 -23.1640625 25.82421875 C-22.09140137 24.8504126 -22.09140137 24.8504126 -20.99707031 23.85693359 C-14.45374722 17.772763 -8.73925756 10.90819574 -3.375 3.77734375 C-2 2 -2 2 0 0 Z " fill="#000000" transform="translate(187,172)"/>
<path d="M0 0 C5.94232331 -0.64825345 5.94232331 -0.64825345 8.9375 1.1875 C10.38718434 3.66049093 10.42317323 5.17884512 10 8 C8.9375 9.8125 8.9375 9.8125 7 11 C3.4375 11.3125 3.4375 11.3125 0 11 C-2 9 -2 9 -2.25 6.0625 C-2 3 -2 3 0 0 Z " fill="#000000" transform="translate(140,216)"/>
<path d="M0 0 C3.5 0.25 3.5 0.25 5.5 2.25 C5.75 5.75 5.75 5.75 5.5 9.25 C3.5 11.25 3.5 11.25 0 11.5 C-3.5 11.25 -3.5 11.25 -5.5 9.25 C-5.75 5.75 -5.75 5.75 -5.5 2.25 C-3.5 0.25 -3.5 0.25 0 0 Z " fill="#000000" transform="translate(90.5,42.75)"/>
</svg>
