<?xml version="1.0" encoding="UTF-8"?>
<svg version="1.1" xmlns="http://www.w3.org/2000/svg" width="256" height="256">
<path d="M0 0 C1.54731661 0.52940938 3.09501812 1.0576949 4.64306641 1.58496094 C9.01383741 3.07818506 13.37796027 4.59010604 17.74139404 6.10461426 C21.97369363 7.57047401 26.20998562 9.02464809 30.44602966 10.47964478 C43.51705878 14.97082667 56.58628536 19.46770785 69.62585449 24.04956055 C71.7065481 24.78042896 73.78804055 25.50902631 75.87023926 26.2355957 C78.94023131 27.30942576 82.0057583 28.39513717 85.0703125 29.484375 C85.99770233 29.8070636 86.92509216 30.1297522 87.88058472 30.46221924 C89.16003464 30.92129669 89.16003464 30.92129669 90.46533203 31.38964844 C91.21138702 31.65340271 91.95744202 31.91715698 92.72610474 32.18890381 C94.90646955 33.22950549 96.1564814 34.26336946 97.6875 36.125 C98.80661712 39.48235137 98.80115586 42.00705386 98.78515625 45.54296875 C98.78193359 46.79658203 98.77871094 48.05019531 98.77539062 49.34179688 C98.76701172 50.65212891 98.75863281 51.96246094 98.75 53.3125 C98.74498317 54.64778481 98.74042059 55.98307141 98.73632812 57.31835938 C98.72452695 60.58728473 98.70806297 63.85611991 98.6875 67.125 C99.4805957 67.42607666 100.27369141 67.72715332 101.09082031 68.03735352 C104.92482746 69.64326756 106.24063078 71.79453912 108.6875 75.125 C110.22295678 79.73137033 110.44473661 84.25418013 108.625 88.75 C106.9753572 92.92909508 108.38391162 96.41522551 110.09765625 100.421875 C110.64292969 101.56140625 111.18820313 102.7009375 111.75 103.875 C114.34750391 109.63358838 116.07944157 114.80126544 114.6875 121.125 C112.88255804 124.45720054 111.63377166 125.70443482 108.19140625 127.234375 C103.4966784 128.42768375 99.07357387 128.41556264 94.25 128.375 C93.33412109 128.38273438 92.41824219 128.39046875 91.47460938 128.3984375 C86.15489849 128.38316195 81.71866379 127.86895224 76.6875 126.125 C74.90368288 133.80254889 74.01904251 143.94093742 77.6875 151.125 C79.65480492 152.39121353 81.6341391 153.31644041 83.78125 154.2421875 C86.36681691 155.43960169 87.44298842 156.56277028 88.6875 159.125 C90.00457317 165.49085366 90.00457317 165.49085366 88.6875 168.125 C89.739375 168.2075 90.79125 168.29 91.875 168.375 C96.03333134 169.1930324 97.72484506 170.16234506 100.6875 173.125 C103.02758701 176.92664305 102.84308457 179.62710417 102.21875 183.93359375 C101.41767674 187.23802097 100.28407002 188.93841472 97.6875 191.125 C95.36431874 191.52297538 93.02990598 191.86291262 90.6875 192.125 C88.83229512 202.98508397 88.65766876 212.25759582 90.6875 223.125 C91.61949219 223.24875 92.55148438 223.3725 93.51171875 223.5 C97.77237247 224.33850504 99.13782058 225.6282968 101.6875 229.125 C102.96004183 233.43446679 103.24252475 236.84844308 101.4375 241 C97.41722973 245.88175676 97.41722973 245.88175676 93.6875 247.125 C91.03161405 247.22721415 88.40169318 247.27280835 85.74551392 247.27217102 C84.51811117 247.27768605 84.51811117 247.27768605 83.26591241 247.2833125 C80.51401995 247.29435724 77.76216523 247.2981946 75.01025391 247.30200195 C73.04078043 247.30826627 71.07130815 247.31491304 69.10183716 247.32191467 C62.62258733 247.34297046 56.14333724 247.35332207 49.6640625 247.36328125 C47.43214277 247.36732897 45.20022316 247.3714459 42.96830368 247.37563133 C32.47698145 247.39469046 21.98566627 247.40891702 11.49433005 247.4172433 C-0.60298107 247.42700301 -12.70010859 247.45328648 -24.79735506 247.49374419 C-34.15380612 247.52395745 -43.51020475 247.53871733 -52.86670363 247.54202431 C-58.45126145 247.54436989 -64.0356233 247.55326542 -69.62012863 247.57848549 C-74.88147701 247.60186072 -80.14250175 247.60596151 -85.4038887 247.59572411 C-87.32706024 247.59523084 -89.25024821 247.60148894 -91.17337036 247.61528015 C-106.04998194 247.71592674 -118.96205439 246.94591164 -130.3125 236.125 C-130.87582031 235.60164062 -131.43914062 235.07828125 -132.01953125 234.5390625 C-139.82503355 226.43714872 -142.02495243 216.61245027 -141.83374023 205.70996094 C-141.29661229 194.16476892 -136.95254697 185.19590009 -128.3984375 177.375 C-123.77475306 173.69078929 -118.79467413 171.28233704 -113.3125 169.125 C-114.20001953 168.34189453 -114.20001953 168.34189453 -115.10546875 167.54296875 C-122.78470036 160.38988351 -127.82796552 152.25003988 -128.55078125 141.62109375 C-128.87640694 129.7890537 -127.15079674 120.51148385 -119.28125 111.19140625 C-112.5907211 104.16900587 -105.77025739 100.41133474 -96.3125 98.125 C-95.3225 98.125 -94.3325 98.125 -93.3125 98.125 C-93.6425 86.245 -93.9725 74.365 -94.3125 62.125 C-97.16519531 61.16078125 -100.01789063 60.1965625 -102.95703125 59.203125 C-105.71830716 58.25968809 -108.47798469 57.31171168 -111.23754883 56.36328125 C-113.15552023 55.70682161 -115.07511667 55.05508996 -116.99633789 54.40820312 C-119.75848726 53.47725384 -122.51433588 52.52942789 -125.26953125 51.578125 C-126.12899857 51.29253723 -126.98846588 51.00694946 -127.87397766 50.71270752 C-133.77777906 48.64802012 -133.77777906 48.64802012 -136.35424805 46.12792969 C-137.84582639 43.01024594 -137.67634721 40.52090731 -137.3125 37.125 C-135.22740355 33.53564192 -133.25449625 32.39418508 -129.37304688 31.08203125 C-128.36769897 30.73487061 -127.36235107 30.38770996 -126.32653809 30.0300293 C-124.69537048 29.48922729 -124.69537048 29.48922729 -123.03125 28.9375 C-121.90738892 28.55311768 -120.78352783 28.16873535 -119.62561035 27.77270508 C-116.02534776 26.5443083 -112.41921844 25.3342945 -108.8125 24.125 C-106.41364132 23.3111362 -104.01519849 22.4960456 -101.6171875 21.6796875 C-98.21628134 20.52195722 -94.81493391 19.36590582 -91.41003418 18.2199707 C-85.44405626 16.21024559 -79.5235736 14.1208014 -73.63879395 11.88330078 C-70.76811592 10.94754741 -68.30591807 10.7311292 -65.3125 11.125 C-64.3125 12.125 -64.3125 12.125 -64.25 15.1875 C-64.270625 16.156875 -64.29125 17.12625 -64.3125 18.125 C-71.2312889 21.37979112 -78.29685554 23.95775894 -85.53125 26.41796875 C-87.2398822 27.00521477 -87.2398822 27.00521477 -88.98303223 27.60432434 C-92.59155614 28.84420862 -96.20184538 30.07883558 -99.8125 31.3125 C-103.45157491 32.55728248 -107.09022363 33.80325108 -110.72766113 35.05281067 C-112.98472661 35.82807172 -115.24276161 36.60051679 -117.50183105 37.36991882 C-118.5137854 37.71730606 -119.52573975 38.0646933 -120.56835938 38.42260742 C-121.46276733 38.72809006 -122.35717529 39.03357269 -123.27868652 39.34831238 C-125.27612196 39.9525183 -125.27612196 39.9525183 -126.3125 41.125 C-110.4725 46.57 -110.4725 46.57 -94.3125 52.125 C-93.3225 49.815 -92.3325 47.505 -91.3125 45.125 C-85.10065728 41.12796471 -77.37481992 40.91488288 -70.1875 40 C-68.32351562 39.74669922 -68.32351562 39.74669922 -66.421875 39.48828125 C-51.01796433 37.44621794 -35.83080533 36.88709692 -20.3125 36.875 C-18.78964386 36.87299088 -18.78964386 36.87299088 -17.23602295 36.87094116 C-0.40100809 36.87574464 16.00957925 37.69125048 32.6875 40.125 C33.56567383 40.24246582 34.44384766 40.35993164 35.34863281 40.48095703 C48.84042657 42.31202426 48.84042657 42.31202426 53.6875 48.125 C54.0175 49.115 54.3475 50.105 54.6875 51.125 C61.96003309 49.6841436 68.7737366 47.49120826 75.75 45 C76.80638672 44.62746094 77.86277344 44.25492188 78.95117188 43.87109375 C81.53162317 42.96034623 84.11030144 42.04490295 86.6875 41.125 C83.08798417 38.72532278 79.34968502 37.53198523 75.28125 36.17578125 C74.42494492 35.8861853 73.56863983 35.59658936 72.68638611 35.29821777 C70.82815165 34.67009858 68.96927298 34.04388274 67.10983276 33.41934204 C62.13377521 31.74749188 57.16277677 30.06072605 52.19140625 28.375 C51.1644313 28.02709915 50.13745636 27.6791983 49.07936096 27.320755 C38.07327895 23.58735539 27.0967288 19.77047653 16.125 15.9375 C15.22120605 15.62221344 14.31741211 15.30692688 13.38623047 14.98208618 C11.63270128 14.37028607 9.87936823 13.75792345 8.12625122 13.14494324 C6.4825189 12.57055101 4.83822846 11.99775291 3.19332886 11.42671204 C-1.04976636 9.94737623 -5.22808268 8.36498313 -9.40234375 6.69921875 C-19.08753025 3.21962874 -26.69631168 5.50859587 -36 9.125 C-48.16377655 13.79791091 -48.16377655 13.79791091 -54.3125 13.125 C-55.3125 12.125 -55.3125 12.125 -55.625 9.75 C-55.3125 7.125 -55.3125 7.125 -53.66674805 5.60229492 C-48.9136248 2.61970146 -43.42078685 1.20088734 -38.125 -0.5625 C-36.93068359 -0.97822266 -35.73636719 -1.39394531 -34.50585938 -1.82226562 C-21.12230918 -6.30800149 -13.08509412 -4.57051741 0 0 Z M-85.3125 52.125 C-85.39987645 53.97869611 -85.41948153 55.83567541 -85.41015625 57.69140625 C-85.40693359 58.81611328 -85.40371094 59.94082031 -85.40039062 61.09960938 C-85.39201172 62.28361328 -85.38363281 63.46761719 -85.375 64.6875 C-85.37048828 65.87537109 -85.36597656 67.06324219 -85.36132812 68.28710938 C-85.34949675 71.23312226 -85.33301287 74.17903681 -85.3125 77.125 C-84.16435822 77.13530746 -83.01621643 77.14561493 -81.83328247 77.15623474 C-71.03220066 77.25383785 -60.23117815 77.35655932 -49.43019295 77.46433926 C-43.8768223 77.51958896 -38.32344641 77.57301223 -32.77001953 77.62231445 C-27.41429826 77.6699278 -22.05864247 77.7222695 -16.70299911 77.77794075 C-14.65601092 77.79837805 -12.60900476 77.81708882 -10.56198502 77.83407402 C-7.70287813 77.8580876 -4.84389572 77.88814629 -1.98486328 77.91967773 C-1.13178589 77.9254332 -0.2787085 77.93118866 0.60021973 77.93711853 C6.45939568 78.01094784 6.45939568 78.01094784 8.6875 79.125 C8.730221 80.79111905 8.72813832 82.45882885 8.6875 84.125 C6.5864144 86.2260856 1.94036375 85.31102605 -0.96313477 85.33032227 C-1.87036285 85.34022186 -2.77759094 85.35012146 -3.71231079 85.36032104 C-6.72614894 85.39203595 -9.74000289 85.41673278 -12.75390625 85.44140625 C-14.83756431 85.46196716 -16.92121811 85.48296339 -19.00486755 85.50437927 C-24.50068731 85.55968909 -29.99654526 85.60905894 -35.49243164 85.65722656 C-41.09590064 85.7073767 -46.69931388 85.76309655 -52.30273438 85.81835938 C-63.305942 85.92604986 -74.30919795 86.02747048 -85.3125 86.125 C-85.3125 90.085 -85.3125 94.045 -85.3125 98.125 C-42.0825 98.125 1.1475 98.125 45.6875 98.125 C45.6875 94.165 45.6875 90.205 45.6875 86.125 C37.4375 85.795 29.1875 85.465 20.6875 85.125 C20.1925 81.66 20.1925 81.66 19.6875 78.125 C28.2675 77.795 36.8475 77.465 45.6875 77.125 C45.6875 68.545 45.6875 59.965 45.6875 51.125 C-22.23347892 38.73391264 -22.23347892 38.73391264 -85.3125 52.125 Z M79.6484375 52.49609375 C78.96697662 52.73787857 78.28551575 52.97966339 77.58340454 53.22877502 C76.14529319 53.74018477 74.70800287 54.25390835 73.27148438 54.76977539 C71.06582526 55.56130668 68.85739346 56.344676 66.6484375 57.12695312 C65.25243285 57.62451962 63.85659365 58.12255057 62.4609375 58.62109375 C61.46566544 58.97426918 61.46566544 58.97426918 60.45028687 59.33457947 C57.32464102 60.30688337 57.32464102 60.30688337 54.6875 62.125 C54.59894839 64.7912603 54.57225327 67.43147114 54.58984375 70.09765625 C54.5912587 70.89529892 54.59267365 71.69294159 54.59413147 72.51475525 C54.59974684 75.07237435 54.61230188 77.62990718 54.625 80.1875 C54.63001302 81.91731645 54.63457627 83.64713426 54.63867188 85.37695312 C54.64887209 89.62636239 54.66844432 93.87558416 54.6875 98.125 C62.9375 98.125 71.1875 98.125 79.6875 98.125 C81.78657691 93.92684617 81.90562126 93.33305526 80.6875 89.125 C80.3575 88.465 80.0275 87.805 79.6875 87.125 C79.14714406 82.1997885 79.14314531 78.25558282 81.3125 73.75 C83.6875 71.125 83.6875 71.125 86.8125 69.5078125 C89.78769507 67.51823675 89.78769507 67.51823675 90.17333984 65.21142578 C90.27842417 62.90623438 90.21142336 60.67758422 90.0625 58.375 C90.03542969 57.58222656 90.00835937 56.78945313 89.98046875 55.97265625 C89.90997273 54.02226634 89.80235499 52.07328099 89.6875 50.125 C86.01017985 50.125 83.06009945 51.26755055 79.6484375 52.49609375 Z M87.6875 78.125 C86.43919273 81.28737842 86.52218197 82.67037542 87.6875 85.875 C89.60653523 88.42502648 89.60653523 88.42502648 93.125 89.1875 C96.67003455 89.43701155 96.67003455 89.43701155 99.125 87.5625 C101.13293026 84.43012879 101.29725382 82.78352292 100.6875 79.125 C98.69991034 76.32765158 97.58584723 75.28221076 94.1875 74.6875 C91.16375341 75.21665565 89.81989991 75.91644296 87.6875 78.125 Z M88.6875 97.125 C87.48178057 100.03446313 86.30121775 102.95349916 85.125 105.875 C84.78275391 106.7 84.44050781 107.525 84.08789062 108.375 C83.76884766 109.17421875 83.44980469 109.9734375 83.12109375 110.796875 C82.82259521 111.5300293 82.52409668 112.26318359 82.21655273 113.01855469 C81.43231386 115.44031434 81.43231386 115.44031434 82.6875 119.125 C90.2775 119.125 97.8675 119.125 105.6875 119.125 C106.69118724 115.11025103 106.79615409 114.57271292 105.359375 111.05078125 C105.05386719 110.30119141 104.74835938 109.55160156 104.43359375 108.77929688 C104.10488281 108.00650391 103.77617187 107.23371094 103.4375 106.4375 C103.12425781 105.65310547 102.81101563 104.86871094 102.48828125 104.06054688 C101.24747794 101.01111106 101.24747794 101.01111106 99.6875 98.125 C96.93671116 97.20807039 95.32801087 97.01613917 92.5 97.0625 C91.241875 97.083125 89.98375 97.10375 88.6875 97.125 Z M-67.3125 122.125 C-67.3125 126.745 -67.3125 131.365 -67.3125 136.125 C-65.745 135.939375 -64.1775 135.75375 -62.5625 135.5625 C-58.91149538 135.13014419 -56.98983219 135.20566695 -53.3125 136.125 C-53.3125 131.505 -53.3125 126.885 -53.3125 122.125 C-57.9325 122.125 -62.5525 122.125 -67.3125 122.125 Z M-113.3125 118.125 C-118.56281695 125.1810618 -121.08279157 132.18961784 -120.3125 141.125 C-118.35865451 151.12409162 -113.68851987 157.71540924 -105.6328125 163.80078125 C-96.7762346 168.85529288 -88.35529012 168.54646473 -78.46337891 168.49731445 C-76.75117777 168.49974475 -75.03897805 168.50346639 -73.32678223 168.50837708 C-68.69496161 168.51775279 -64.06335351 168.50839092 -59.43154955 168.49504495 C-54.58248912 168.48370606 -49.73343878 168.48783956 -44.8843689 168.48979187 C-36.74888647 168.49067357 -28.61348759 168.47961622 -20.47802734 168.46118164 C-11.0643529 168.43997325 -1.65080042 168.43651392 7.76289308 168.4427436 C16.81847331 168.44842988 25.87401048 168.44280306 34.9295845 168.43157005 C38.78522155 168.42691865 42.64083231 168.42605249 46.49647141 168.4281559 C51.0289589 168.43003404 55.5613215 168.42197169 60.09378052 168.4060955 C61.76032622 168.40183997 63.42688456 168.40101057 65.09343338 168.40378571 C67.36079805 168.40698965 69.62778525 168.39797172 71.89511108 168.38569641 C73.16601278 168.38364354 74.43691448 168.38159067 75.74632835 168.37947559 C78.8092345 168.43228041 78.8092345 168.43228041 80.6875 166.125 C80.28221099 163.34262345 80.28221099 163.34262345 78.6875 161.125 C77.09368922 161.01687487 75.49512353 160.97815703 73.89768982 160.96678162 C72.86137421 160.9569928 71.82505859 160.94720398 70.75733948 160.93711853 C69.61079391 160.93136307 68.46424835 160.9256076 67.28295898 160.91967773 C66.08312378 160.90977814 64.88328857 160.89987854 63.64709473 160.88967896 C60.34767762 160.86342867 57.04828552 160.84159258 53.7488277 160.82167697 C50.3041283 160.79985486 46.85947358 160.77244777 43.41481018 160.74562073 C36.88770511 160.69564262 30.36057532 160.65072286 23.83342177 160.60759836 C16.40424811 160.55826962 8.97511927 160.50333537 1.54598892 160.44791877 C-13.74013268 160.3340202 -29.02629543 160.2271984 -44.3125 160.125 C-44.3125 157.815 -44.3125 155.505 -44.3125 153.125 C-7.3525 152.795 29.6075 152.465 67.6875 152.125 C67.3575 146.515 67.0275 140.905 66.6875 135.125 C67.3475 130.835 68.0075 126.545 68.6875 122.125 C31.3975 122.125 -5.8925 122.125 -44.3125 122.125 C-44.6425 130.045 -44.9725 137.965 -45.3125 146.125 C-53.3125 145.125 -53.3125 145.125 -55.9375 144 C-59.13973378 142.82022966 -60.99452291 143.35931298 -64.3125 144.125 C-65.89550286 144.48064085 -67.47885429 144.83473277 -69.0625 145.1875 C-69.82046875 145.36410156 -70.5784375 145.54070312 -71.359375 145.72265625 C-73.3125 146.125 -73.3125 146.125 -75.3125 146.125 C-75.6425 138.205 -75.9725 130.285 -76.3125 122.125 C-80.086875 122.0321875 -80.086875 122.0321875 -83.9375 121.9375 C-84.71818848 121.91018799 -85.49887695 121.88287598 -86.30322266 121.85473633 C-92.54528836 121.78104858 -96.49122165 123.42514021 -101.125 127.75 C-104.01970839 131.54695516 -104.70300187 135.4150693 -104.3125 140.125 C-103.02381451 144.90071683 -101.38437416 147.39544676 -97.25927734 150.203125 C-93.03847261 152.54874218 -89.32255814 152.71099604 -84.5703125 152.69921875 C-83.76133514 152.71338333 -82.95235779 152.72754791 -82.11886597 152.74214172 C-79.55827198 152.78378004 -76.9983838 152.79924241 -74.4375 152.8125 C-71.85551823 152.84154609 -69.27371421 152.87600514 -66.69186401 152.91499329 C-65.09048542 152.93751045 -63.48899589 152.95331173 -61.88748169 152.96183777 C-56.42212388 153.01537612 -56.42212388 153.01537612 -55.3125 154.125 C-55.1875 156.625 -55.1875 156.625 -55.3125 159.125 C-57.32749341 161.13999341 -61.38792826 160.33685707 -64.15234375 160.36328125 C-64.94846573 160.371353 -65.74458771 160.37942474 -66.56483459 160.38774109 C-68.25877696 160.40160781 -69.95274757 160.41231832 -71.64672852 160.42016602 C-74.20840923 160.43722307 -76.76874591 160.48106321 -79.33007812 160.52539062 C-98.29239869 160.70795945 -98.29239869 160.70795945 -105.23022461 154.37426758 C-111.03772106 148.18324876 -111.89918919 142.03202705 -111.7421875 133.7109375 C-111.08392092 128.21740371 -109.33739962 123.96445202 -105.3125 120.125 C-96.95296536 114.24677141 -88.43445412 114.40819707 -78.66357422 114.46557617 C-76.9970836 114.45711113 -75.33060287 114.44646161 -73.66413879 114.43380737 C-69.16680114 114.40578535 -64.66994247 114.40811049 -60.172544 114.41610122 C-55.46262499 114.41923662 -50.75285577 114.39416173 -46.04299927 114.37214661 C-37.1361892 114.33476559 -28.22953181 114.32256213 -19.32265103 114.3195222 C-9.17743609 114.31482492 0.96762654 114.28188011 11.11277413 114.24662435 C31.97099879 114.17476882 52.82916112 114.1381857 73.6875 114.125 C74.94414978 111.21899739 75.6875 109.32895416 75.6875 106.125 C53.95575114 106.0548437 32.22402101 106.00197939 10.49218178 105.96956348 C0.40116205 105.95411054 -9.68978722 105.93305112 -19.78076172 105.89868164 C-28.5785345 105.86873111 -37.37625623 105.84941357 -46.17407858 105.84273452 C-50.83021149 105.83883183 -55.48619839 105.82969283 -60.14228439 105.80780983 C-64.53023721 105.78735529 -68.91798471 105.78118424 -73.30598068 105.78567696 C-74.91112384 105.78485575 -76.5162743 105.77894371 -78.12137604 105.76738358 C-92.29601591 105.67035599 -103.44600304 106.99356753 -113.3125 118.125 Z M-118.3125 181.125 C-119.12203125 181.66640625 -119.9315625 182.2078125 -120.765625 182.765625 C-127.38620464 188.69536155 -132.62948317 195.49448281 -133.56640625 204.58984375 C-133.97688978 214.03096503 -131.0629109 221.9578246 -125.12890625 229.3046875 C-115.07358086 239.38163725 -102.08333125 239.37758983 -88.72917175 239.39605713 C-86.9509578 239.39216986 -85.17274429 239.3880736 -83.39453125 239.38378906 C-81.49632127 239.38650304 -79.59811235 239.39006625 -77.6999054 239.39440918 C-72.57445921 239.40348206 -67.44909404 239.4000114 -62.32364655 239.39365101 C-56.95322967 239.38857044 -51.58281951 239.39328762 -46.21240234 239.39642334 C-37.20457722 239.40005448 -28.19678497 239.39528363 -19.18896484 239.38574219 C-8.76926141 239.37483283 1.65036391 239.3784046 12.0700655 239.389395 C21.0231331 239.39846065 29.97617715 239.39975749 38.92924786 239.39451766 C44.27408315 239.39139738 49.61888166 239.39099076 54.9637146 239.39759064 C59.98048901 239.40335388 64.99716212 239.39938604 70.01392555 239.38780212 C71.8574386 239.38515119 73.70096013 239.38592798 75.54446983 239.39032745 C78.05433965 239.39576661 80.56388171 239.38896908 83.07373047 239.37896729 C83.80844165 239.38342873 84.54315283 239.38789017 85.30012798 239.39248681 C88.98801872 239.36384257 90.53186624 239.22875584 93.6875 237.125 C93.30845792 233.83424004 93.30845792 233.83424004 91.6875 231.125 C89.39761219 230.96611908 87.10306559 230.87361927 84.80859375 230.80859375 C84.1219313 230.78781265 83.43526886 230.76703156 82.72779846 230.74562073 C80.52697065 230.68005857 78.32602025 230.62120985 76.125 230.5625 C74.63605486 230.51932108 73.14712227 230.475707 71.65820312 230.43164062 C68.00143447 230.3243707 64.34452682 230.22312228 60.6875 230.125 C60.30531233 228.46885343 59.97354898 226.80042976 59.6875 225.125 C61.30530157 223.50719843 63.14385518 223.90227853 65.37890625 223.80859375 C66.32314453 223.76669922 67.26738281 223.72480469 68.24023438 223.68164062 C69.23345703 223.64232422 70.22667969 223.60300781 71.25 223.5625 C72.24708984 223.51931641 73.24417969 223.47613281 74.27148438 223.43164062 C76.7433415 223.32519702 79.2153031 223.22318072 81.6875 223.125 C81.52507812 221.96097656 81.36265625 220.79695313 81.1953125 219.59765625 C80.69379631 215.57223563 80.554033 211.62242735 80.5625 207.5625 C80.55992187 206.32371094 80.55734375 205.08492187 80.5546875 203.80859375 C80.6875 200.125 80.6875 200.125 81.6875 193.125 C70.1375 193.125 58.5875 193.125 46.6875 193.125 C46.3575 200.715 46.0275 208.305 45.6875 216.125 C36.6875 215.125 36.6875 215.125 33.625 213.875 C29.91471801 212.92769396 28.18143499 213.78415615 24.8125 215.3984375 C22.6875 216.125 22.6875 216.125 16.6875 216.125 C16.3575 208.535 16.0275 200.945 15.6875 193.125 C-0.24609142 193.0346617 -16.17947953 192.96099608 -32.11325264 192.91775131 C-39.51179303 192.89713718 -46.91016285 192.8690388 -54.30859375 192.82324219 C-60.75803552 192.78333894 -67.20735375 192.75755883 -73.65691555 192.74864602 C-77.07110635 192.74343708 -80.48494375 192.73121886 -83.89902115 192.70207977 C-87.71300536 192.67307937 -91.52625545 192.66904279 -95.34033203 192.67089844 C-96.46890121 192.65651733 -97.5974704 192.64213623 -98.76023865 192.62731934 C-104.93337443 192.65985798 -108.62886766 192.96516912 -113.3125 197.125 C-116.82989637 201.12755449 -117.67218516 204.72301086 -117.59375 210.06640625 C-116.97077662 214.62622526 -114.06058391 217.43302238 -110.8125 220.4375 C-106.63004733 223.26065555 -103.00705147 223.25462143 -98.02301025 223.28321838 C-96.08371391 223.29790161 -96.08371391 223.29790161 -94.10523987 223.31288147 C-92.67465247 223.3187853 -91.24406468 223.32459577 -89.81347656 223.33032227 C-88.30551384 223.3399035 -86.7975538 223.34991373 -85.28959656 223.36032104 C-81.19700584 223.38734957 -77.10440362 223.40837025 -73.01177311 223.42832303 C-68.7342882 223.45019523 -64.45683868 223.47757789 -60.17938232 223.50437927 C-52.07990318 223.55428945 -43.98040438 223.5992345 -35.88088679 223.64240164 C-26.65966439 223.69178831 -17.4384775 223.74670114 -8.21728945 223.80208123 C10.75094073 223.91587557 29.71920442 224.02272017 48.6875 224.125 C48.730221 225.79111905 48.72813832 227.45882885 48.6875 229.125 C46.88498168 230.92751832 44.14251214 230.26698398 41.71217346 230.27890015 C40.41264236 230.28750061 39.11311127 230.29610107 37.77420044 230.30496216 C36.32025186 230.30939794 34.86630286 230.31369624 33.41235352 230.31787109 C31.891503 230.32576905 30.37065437 230.33403781 28.84980774 230.34265137 C23.83869224 230.36892394 18.8275682 230.38419193 13.81640625 230.3984375 C12.09147575 230.4037965 10.3665453 230.409174 8.64161491 230.41456985 C1.46237316 230.43621316 -5.71686631 230.4549467 -12.89613247 230.46619225 C-23.18043811 230.48240669 -33.46436437 230.51550658 -43.74852699 230.57259309 C-50.98006611 230.61136149 -58.2115041 230.63083353 -65.44314438 230.63611281 C-69.76066879 230.63975908 -74.07778906 230.65170123 -78.39520073 230.68421555 C-82.46401685 230.71441507 -86.53218693 230.72056614 -90.60109138 230.70883179 C-92.0885319 230.70861199 -93.57600338 230.71683919 -95.06333923 230.73448563 C-103.71737862 230.83150589 -111.06263949 230.35089587 -118.3125 225.125 C-123.20657637 220.18813692 -125.19220601 214.56172533 -125.37890625 207.67578125 C-125.02241259 200.62152789 -122.69406032 195.69745485 -117.859375 190.58984375 C-112.22146898 185.50089174 -106.36866037 184.82802416 -99.04962158 184.85998535 C-98.23327924 184.85560408 -97.41693691 184.85122281 -96.57585692 184.84670877 C-93.84901766 184.83441763 -91.12237152 184.83619488 -88.39550781 184.83789062 C-86.43729874 184.83186482 -84.47909226 184.82494017 -82.52088928 184.81718445 C-78.30900565 184.8023087 -74.09716933 184.79354967 -69.88526154 184.78947449 C-63.23040526 184.78276079 -56.57565043 184.76100825 -49.9208374 184.73693848 C-34.59889765 184.68381794 -19.2769267 184.65039338 -3.95493317 184.61717987 C10.09867368 184.58652416 24.15223689 184.55175705 38.20578694 184.50086927 C44.8269813 184.47746715 51.44810475 184.46376666 58.06933641 184.45737457 C62.17863932 184.45145601 66.28788429 184.43737796 70.39715767 184.42103004 C72.30880803 184.41513118 74.22047248 184.41268653 76.13213158 184.41386986 C78.7323976 184.41502104 81.33233465 184.40407741 83.93255615 184.39001465 C84.69693646 184.39331362 85.46131677 184.3966126 86.24886012 184.40001154 C90.42489754 184.50007457 90.42489754 184.50007457 93.6875 182.125 C93.36708603 179.52219432 93.36708603 179.52219432 92.6875 177.125 C66.5054431 177.03152431 40.32341125 176.96100484 14.14122105 176.91775131 C1.98414593 176.8971334 -10.17282545 176.86902737 -22.32983398 176.82324219 C-32.92690557 176.78335102 -43.52390202 176.75756158 -54.1210466 176.74864602 C-59.73124338 176.74343518 -65.34122523 176.73120355 -70.95135307 176.70207977 C-76.23479499 176.67487484 -81.51793398 176.66656536 -86.80143929 176.67256927 C-88.73758212 176.67147132 -90.67373537 176.66354785 -92.6098175 176.6481781 C-106.0654862 176.22122052 -106.0654862 176.22122052 -118.3125 181.125 Z M23.6875 193.125 C23.6875 197.745 23.6875 202.365 23.6875 207.125 C25.729375 206.568125 25.729375 206.568125 27.8125 206 C32.55273898 204.70720755 33.40010988 205.36253663 38.6875 207.125 C38.6875 202.505 38.6875 197.885 38.6875 193.125 C33.7375 193.125 28.7875 193.125 23.6875 193.125 Z " fill="#000000" transform="translate(141.3125,6.875)"/>
</svg>
