<?xml version="1.0" encoding="UTF-8"?>
<svg version="1.1" xmlns="http://www.w3.org/2000/svg" width="256" height="256">
<path d="M0 0 C2.26999111 3.40498666 2.17927568 4.06969478 1.74047852 7.96411133 C1.63043488 8.94578278 1.52039124 9.92745422 1.40701294 10.93887329 C0.75587705 15.83603816 -0.01501051 20.70486936 -0.84765625 25.57421875 C-1.02380966 26.62406448 -1.19996307 27.67391022 -1.38145447 28.75556946 C-1.93795601 32.06687478 -2.50012566 35.37718758 -3.0625 38.6875 C-3.4437366 40.94980626 -3.82459944 43.21217553 -4.20507812 45.47460938 C-5.13240319 50.98380815 -6.06436779 56.49220629 -7 62 C-5.90010742 62.0093457 -4.80021484 62.01869141 -3.66699219 62.02832031 C0.41854166 62.06822937 4.50332319 62.13399004 8.58837891 62.20751953 C10.35553311 62.23572397 12.12281334 62.25694118 13.89013672 62.27099609 C16.43262222 62.29243358 18.97359338 62.33908503 21.515625 62.390625 C22.30430969 62.39185364 23.09299438 62.39308228 23.90557861 62.39434814 C27.37295686 62.48668455 29.64699971 62.77357458 32.59277344 64.66308594 C34 67 34 67 34.01123047 69.82495117 C32.81649263 73.57617416 31.01795952 76.57828691 28.8203125 79.80078125 C28.38463455 80.45768448 27.9489566 81.11458771 27.50007629 81.79139709 C26.05112658 83.97153439 24.58804067 86.14179918 23.125 88.3125 C22.09731125 89.85361149 21.07072248 91.395457 20.04516602 92.93798828 C17.85381754 96.23215991 15.65759003 99.52300634 13.45849609 102.81201172 C8.74657645 109.86877383 4.09199759 116.96311472 -0.56616211 124.05541992 C-2.88354172 127.58367893 -5.20592629 131.10854983 -7.53344727 134.63012695 C-14.10952643 144.56502537 -14.10952643 144.56502537 -20.56361389 154.57925415 C-21.55792986 156.14552487 -22.55988913 157.70693567 -23.56225586 159.26806641 C-24.68020998 161.01306663 -25.78410878 162.7672055 -26.86938477 164.53271484 C-30.23607442 169.74783942 -30.23607442 169.74783942 -34.20703125 171.05859375 C-37 171 -37 171 -39.375 170.0625 C-42.27826836 166.37758247 -41.14982159 161.45394344 -40.68997192 156.99133301 C-40.25140923 153.40118048 -39.77447487 149.81796114 -39.28515625 146.234375 C-39.10779683 144.91022918 -38.93083739 143.58602974 -38.7542572 142.26177979 C-38.38505389 139.50122236 -38.01239379 136.74116257 -37.63696289 133.98144531 C-37.1565487 130.44935441 -36.68279102 126.91641149 -36.21134281 123.38311386 C-35.75943952 119.99984138 -35.30352635 116.61711538 -34.84765625 113.234375 C-34.6778273 111.96768982 -34.50799835 110.70100464 -34.33302307 109.39593506 C-34.17293259 108.2208136 -34.0128421 107.04569214 -33.84790039 105.83496094 C-33.70800186 104.80207947 -33.56810333 103.769198 -33.42396545 102.70501709 C-33.06544016 100.41752635 -32.60991676 98.23130223 -32 96 C-33.748573 96.0314209 -33.748573 96.0314209 -35.5324707 96.06347656 C-39.85412327 96.13583287 -44.17572224 96.18178362 -48.49780273 96.21972656 C-50.36898804 96.23985207 -52.24011039 96.26715549 -54.11108398 96.30175781 C-56.79947432 96.35023581 -59.48703388 96.37295872 -62.17578125 96.390625 C-63.43217155 96.42159271 -63.43217155 96.42159271 -64.71394348 96.45318604 C-70.49699936 96.45542436 -70.49699936 96.45542436 -73.046875 94.14672852 C-74.4883452 90.90009751 -74.11473738 89.38474803 -73 86 C-71.15355046 83.09102142 -69.00096723 80.46959163 -66.8125 77.8125 C-65.52253923 76.20228109 -64.23484406 74.59024503 -62.94921875 72.9765625 C-62.28970215 72.15188477 -61.63018555 71.32720703 -60.95068359 70.47753906 C-57.91183696 66.61793761 -55.0171738 62.65753355 -52.125 58.6875 C-47.16075218 51.8974507 -42.11339627 45.17843335 -37 38.5 C-31.17281275 30.88850532 -25.43138183 23.22100656 -19.77929688 15.47851562 C-16.96388703 11.62929556 -14.11841987 7.80486591 -11.22265625 4.015625 C-10.65426025 3.27086914 -10.08586426 2.52611328 -9.50024414 1.75878906 C-6.53404479 -1.71859094 -4.21287893 -1.05321973 0 0 Z M-15 29 C-24.58052459 41.49821275 -34.06288157 54.05907698 -43.36279297 66.76757812 C-45.00804277 69.01096676 -46.66107179 71.24841981 -48.31640625 73.484375 C-48.83356201 74.18449707 -49.35071777 74.88461914 -49.88354492 75.60595703 C-50.85470739 76.92065889 -51.82744719 78.23419751 -52.80200195 79.54638672 C-55.01534339 82.03443633 -55.01534339 82.03443633 -56 85 C-54.97527588 85.02505615 -53.95055176 85.0501123 -52.89477539 85.07592773 C-49.10590324 85.16984484 -45.31722119 85.27010317 -41.52856445 85.37231445 C-39.88635697 85.41572297 -38.24410261 85.45739358 -36.60180664 85.49731445 C-34.24611255 85.5548744 -31.89065572 85.61860892 -29.53515625 85.68359375 C-28.79660904 85.70030624 -28.05806183 85.71701874 -27.2971344 85.73423767 C-22.11387171 85.88612829 -22.11387171 85.88612829 -21 87 C-20.04925547 97.39390025 -22.04867597 107.81408053 -23.5625 118.0625 C-23.93403829 120.58958639 -24.30299213 123.11690337 -24.66331482 125.64561462 C-24.8858563 127.20693436 -25.11480164 128.76735834 -25.35096741 130.32667542 C-25.82499414 133.64748348 -26.07653169 135.77040493 -25 139 C-23.79947917 137.19921875 -22.59895833 135.3984375 -21.3984375 133.59765625 C-21.01376312 133.02069 -20.62908875 132.44372375 -20.23275757 131.84927368 C-18.05479018 128.58251176 -15.87718772 125.31550745 -13.70019531 122.0480957 C-9.24914466 115.36841557 -4.79509115 108.69079909 -0.3298645 102.02058411 C1.70433253 98.98153338 3.73684734 95.94135945 5.76922607 92.90109253 C6.75770232 91.42343034 7.74700328 89.94631951 8.73712158 88.46975708 C10.12369116 86.4017861 11.5074579 84.33196643 12.890625 82.26171875 C13.30841217 81.64019928 13.72619934 81.01867981 14.15664673 80.37832642 C16.13720675 77.89032056 16.13720675 77.89032056 17 75 C5.12 74.67 -6.76 74.34 -19 74 C-19 60.5162374 -19 60.5162374 -17.87109375 54.37109375 C-17.7010659 53.40841331 -17.7010659 53.40841331 -17.52760315 52.42628479 C-17.17389913 50.42813548 -16.80710143 48.43276453 -16.4375 46.4375 C-15.94820138 43.77093349 -15.46968739 41.10306099 -14.99609375 38.43359375 C-14.78138428 37.26884521 -14.5666748 36.10409668 -14.34545898 34.90405273 C-13.78360666 31.93905218 -13.78360666 31.93905218 -15 29 Z " fill="#000000" transform="translate(148,43)"/>
<path d="M0 0 C1.051875 0.01160156 1.051875 0.01160156 2.125 0.0234375 C2.82625 0.01570312 3.5275 0.00796875 4.25 0 C6.125 0.3984375 6.125 0.3984375 8.125 3.3984375 C8.38378906 6.078125 8.38378906 6.078125 8.390625 9.2734375 C8.39320313 10.42328125 8.39578125 11.573125 8.3984375 12.7578125 C8.39070312 13.95921875 8.38296875 15.160625 8.375 16.3984375 C8.38273438 17.59984375 8.39046875 18.80125 8.3984375 20.0390625 C8.39585937 21.18890625 8.39328125 22.33875 8.390625 23.5234375 C8.38836914 24.57789063 8.38611328 25.63234375 8.38378906 26.71875 C8.125 29.3984375 8.125 29.3984375 6.125 32.3984375 C4.25 32.796875 4.25 32.796875 2.125 32.7734375 C1.42375 32.78117187 0.7225 32.78890625 0 32.796875 C-1.875 32.3984375 -1.875 32.3984375 -3.875 29.3984375 C-4.13378906 26.71875 -4.13378906 26.71875 -4.140625 23.5234375 C-4.14320312 22.37359375 -4.14578125 21.22375 -4.1484375 20.0390625 C-4.14070313 18.83765625 -4.13296875 17.63625 -4.125 16.3984375 C-4.13273437 15.19703125 -4.14046875 13.995625 -4.1484375 12.7578125 C-4.14585938 11.60796875 -4.14328125 10.458125 -4.140625 9.2734375 C-4.13836914 8.21898437 -4.13611328 7.16453125 -4.13378906 6.078125 C-3.8332817 2.96645636 -3.35004374 0.71188429 0 0 Z " fill="#000000" transform="translate(125.875,223.6015625)"/>
<path d="M0 0 C1.14984375 -0.00257812 2.2996875 -0.00515625 3.484375 -0.0078125 C5.28648437 0.00378906 5.28648437 0.00378906 7.125 0.015625 C8.32640625 0.00789063 9.5278125 0.00015625 10.765625 -0.0078125 C12.49039063 -0.00394531 12.49039063 -0.00394531 14.25 0 C15.83167969 0.00338379 15.83167969 0.00338379 17.4453125 0.00683594 C20.125 0.265625 20.125 0.265625 23.125 2.265625 C23.5234375 4.140625 23.5234375 4.140625 23.5 6.265625 C23.51160156 7.3175 23.51160156 7.3175 23.5234375 8.390625 C23.125 10.265625 23.125 10.265625 20.125 12.265625 C17.4453125 12.52441406 17.4453125 12.52441406 14.25 12.53125 C13.10015625 12.53382813 11.9503125 12.53640625 10.765625 12.5390625 C9.56421875 12.53132812 8.3628125 12.52359375 7.125 12.515625 C5.32289063 12.52722656 5.32289063 12.52722656 3.484375 12.5390625 C1.75960937 12.53519531 1.75960937 12.53519531 0 12.53125 C-1.58167969 12.52786621 -1.58167969 12.52786621 -3.1953125 12.52441406 C-5.875 12.265625 -5.875 12.265625 -8.875 10.265625 C-9.2734375 8.390625 -9.2734375 8.390625 -9.25 6.265625 C-9.25773438 5.564375 -9.26546875 4.863125 -9.2734375 4.140625 C-8.28820763 -0.49575088 -3.81193224 0.00815511 0 0 Z " fill="#000000" transform="translate(232.875,121.734375)"/>
<path d="M0 0 C1.14984375 -0.00257812 2.2996875 -0.00515625 3.484375 -0.0078125 C5.28648438 0.00378906 5.28648438 0.00378906 7.125 0.015625 C8.32640625 0.00789063 9.5278125 0.00015625 10.765625 -0.0078125 C12.49039062 -0.00394531 12.49039062 -0.00394531 14.25 0 C15.83167969 0.00338379 15.83167969 0.00338379 17.4453125 0.00683594 C20.125 0.265625 20.125 0.265625 23.125 2.265625 C23.5234375 4.140625 23.5234375 4.140625 23.5 6.265625 C23.51160156 7.3175 23.51160156 7.3175 23.5234375 8.390625 C23.125 10.265625 23.125 10.265625 20.125 12.265625 C17.4453125 12.52441406 17.4453125 12.52441406 14.25 12.53125 C13.10015625 12.53382813 11.9503125 12.53640625 10.765625 12.5390625 C9.56421875 12.53132812 8.3628125 12.52359375 7.125 12.515625 C5.32289062 12.52722656 5.32289062 12.52722656 3.484375 12.5390625 C1.75960938 12.53519531 1.75960938 12.53519531 0 12.53125 C-1.58167969 12.52786621 -1.58167969 12.52786621 -3.1953125 12.52441406 C-5.875 12.265625 -5.875 12.265625 -8.875 10.265625 C-9.2734375 8.390625 -9.2734375 8.390625 -9.25 6.265625 C-9.25773438 5.564375 -9.26546875 4.863125 -9.2734375 4.140625 C-8.28820763 -0.49575088 -3.81193224 0.00815511 0 0 Z " fill="#000000" transform="translate(8.875,121.734375)"/>
<path d="M0 0 C1.051875 0.01160156 1.051875 0.01160156 2.125 0.0234375 C2.82625 0.01570312 3.5275 0.00796875 4.25 0 C6.125 0.3984375 6.125 0.3984375 8.125 3.3984375 C8.38378906 6.078125 8.38378906 6.078125 8.390625 9.2734375 C8.39320313 10.42328125 8.39578125 11.573125 8.3984375 12.7578125 C8.39070312 13.95921875 8.38296875 15.160625 8.375 16.3984375 C8.38273438 17.59984375 8.39046875 18.80125 8.3984375 20.0390625 C8.39585937 21.18890625 8.39328125 22.33875 8.390625 23.5234375 C8.38836914 24.57789062 8.38611328 25.63234375 8.38378906 26.71875 C8.125 29.3984375 8.125 29.3984375 6.125 32.3984375 C4.25 32.796875 4.25 32.796875 2.125 32.7734375 C1.42375 32.78117187 0.7225 32.78890625 0 32.796875 C-1.875 32.3984375 -1.875 32.3984375 -3.875 29.3984375 C-4.13378906 26.71875 -4.13378906 26.71875 -4.140625 23.5234375 C-4.14320312 22.37359375 -4.14578125 21.22375 -4.1484375 20.0390625 C-4.14070313 18.83765625 -4.13296875 17.63625 -4.125 16.3984375 C-4.13273437 15.19703125 -4.14046875 13.995625 -4.1484375 12.7578125 C-4.14585938 11.60796875 -4.14328125 10.458125 -4.140625 9.2734375 C-4.13836914 8.21898437 -4.13611328 7.16453125 -4.13378906 6.078125 C-3.8332817 2.96645636 -3.35004374 0.71188429 0 0 Z " fill="#000000" transform="translate(125.875,-0.3984375)"/>
<path d="M0 0 C2.22583008 1.48120117 2.22583008 1.48120117 4.26953125 3.54296875 C5.38424805 4.65961914 5.38424805 4.65961914 6.52148438 5.79882812 C7.65553711 6.9812207 7.65553711 6.9812207 8.8125 8.1875 C9.58787109 8.95642578 10.36324219 9.72535156 11.16210938 10.51757812 C17.75876163 17.24120007 17.75876163 17.24120007 18 22 C15.5625 24.8125 15.5625 24.8125 13 27 C6.61189964 25.66998541 3.05586747 21.72092957 -1.375 17.25 C-2.47908203 16.19425781 -2.47908203 16.19425781 -3.60546875 15.1171875 C-8.85953895 9.87286511 -8.85953895 9.87286511 -9.546875 5.6015625 C-9 3 -9 3 -7.875 1.125 C-5.13157334 -0.521056 -3.15427569 -0.29217576 0 0 Z " fill="#000000" transform="translate(203,194)"/>
<path d="M0 0 C2.6015625 0.546875 2.6015625 0.546875 4.4765625 1.671875 C6.1226185 4.41530166 5.89373826 6.39259931 5.6015625 9.546875 C4.12036133 11.77270508 4.12036133 11.77270508 2.05859375 13.81640625 C1.31416016 14.55955078 0.56972656 15.30269531 -0.19726562 16.06835938 C-0.98552734 16.82439453 -1.77378906 17.58042969 -2.5859375 18.359375 C-3.35486328 19.13474609 -4.12378906 19.91011719 -4.91601562 20.70898438 C-11.63963757 27.30563663 -11.63963757 27.30563663 -16.3984375 27.546875 C-19.2109375 25.109375 -19.2109375 25.109375 -21.3984375 22.546875 C-20.06842291 16.15877464 -16.11936707 12.60274247 -11.6484375 8.171875 C-10.94460937 7.43582031 -10.24078125 6.69976562 -9.515625 5.94140625 C-4.27130261 0.68733605 -4.27130261 0.68733605 0 0 Z " fill="#000000" transform="translate(56.3984375,193.453125)"/>
<path d="M0 0 C2.4375 1.375 2.4375 1.375 3.9375 3.6875 C4.4375 6.375 4.4375 6.375 3.42578125 8.5546875 C0.67136141 12.46174276 -2.52624645 15.78667643 -5.875 19.1875 C-6.52662109 19.88037109 -7.17824219 20.57324219 -7.84960938 21.28710938 C-12.73085663 26.24653476 -12.73085663 26.24653476 -16.92578125 26.89453125 C-19.5625 26.375 -19.5625 26.375 -21.4375 25.25 C-23.08483492 22.5044418 -22.85928863 20.53152934 -22.5625 17.375 C-21.04956055 15.14916992 -21.04956055 15.14916992 -18.94921875 13.10546875 C-17.8190332 11.99075195 -17.8190332 11.99075195 -16.66601562 10.85351562 C-15.86873047 10.09748047 -15.07144531 9.34144531 -14.25 8.5625 C-13.46431641 7.78712891 -12.67863281 7.01175781 -11.86914062 6.21289062 C-4.38328581 -1.0690941 -4.38328581 -1.0690941 0 0 Z " fill="#000000" transform="translate(216.5625,35.625)"/>
<path d="M0 0 C6.38810036 1.33001459 9.94413253 5.27907043 14.375 9.75 C15.11105469 10.45382813 15.84710938 11.15765625 16.60546875 11.8828125 C21.85953895 17.12713489 21.85953895 17.12713489 22.546875 21.3984375 C22 24 22 24 20.875 25.875 C18.13157334 27.521056 16.15427569 27.29217576 13 27 C10.77416992 25.51879883 10.77416992 25.51879883 8.73046875 23.45703125 C7.98732422 22.71259766 7.24417969 21.96816406 6.47851562 21.20117188 C5.72248047 20.41291016 4.96644531 19.62464844 4.1875 18.8125 C3.41212891 18.04357422 2.63675781 17.27464844 1.83789062 16.48242188 C-4.75876163 9.75879993 -4.75876163 9.75879993 -5 5 C-2.5625 2.1875 -2.5625 2.1875 0 0 Z " fill="#000000" transform="translate(40,35)"/>
</svg>
