<?xml version="1.0" encoding="UTF-8"?>
<svg version="1.1" xmlns="http://www.w3.org/2000/svg" width="256" height="256">
<path d="M0 0 C7.49106163 4.93729062 9.38613342 10.21309005 12.17578125 18.5703125 C12.76446236 20.28031937 12.76446236 20.28031937 13.36503601 22.02487183 C14.18940566 24.4281458 15.00679244 26.83382495 15.81762695 29.24169922 C17.06198185 32.93596169 18.32687268 36.62267446 19.59570312 40.30859375 C20.39443144 42.64542274 21.19199796 44.98264923 21.98828125 47.3203125 C22.36632401 48.4265799 22.74436676 49.53284729 23.13386536 50.67263794 C23.65021797 52.20970901 23.65021797 52.20970901 24.17700195 53.77783203 C24.481689 54.67986359 24.78637604 55.58189514 25.10029602 56.51126099 C25.75 58.8125 25.75 58.8125 25.75 61.8125 C26.60335937 62.06257813 27.45671875 62.31265625 28.3359375 62.5703125 C31.97645133 63.89489305 35.10654029 65.64992545 38.375 67.6875 C39.69080955 68.49836491 41.00725132 69.30820451 42.32421875 70.1171875 C43.02981934 70.5512793 43.73541992 70.98537109 44.46240234 71.43261719 C46.91839542 72.9140764 49.40192029 74.33889174 51.89453125 75.7578125 C64.00607778 82.70581568 75.11406622 89.45767255 79.28611755 103.63421631 C79.78666861 105.98468723 79.87012522 108.08691925 79.86352539 110.48925781 C79.86341209 111.87023651 79.86341209 111.87023651 79.86329651 113.27911377 C79.85813522 114.26466248 79.85297394 115.25021118 79.84765625 116.265625 C79.8462413 117.28098328 79.84482635 118.29634155 79.84336853 119.34246826 C79.83777516 122.58250892 79.82522385 125.82248025 79.8125 129.0625 C79.80748414 131.26041567 79.80292139 133.45833242 79.79882812 135.65625 C79.7878079 141.04169029 79.77107633 146.42709019 79.75 151.8125 C81.07 152.1425 82.39 152.4725 83.75 152.8125 C83.77464849 158.20596988 83.79283531 163.59940725 83.80493164 168.99291992 C83.80997231 170.82918875 83.81680477 172.66545354 83.82543945 174.50170898 C83.83751672 177.13526401 83.84323081 179.76876616 83.84765625 182.40234375 C83.85281754 183.22838608 83.85797882 184.05442841 83.86329651 184.90550232 C83.86349205 186.87486368 83.81204152 188.84411614 83.75 190.8125 C81.97083533 192.59166467 79.36686701 191.94014835 76.9609375 191.94189453 C75.7229541 191.94504669 74.4849707 191.94819885 73.20947266 191.95144653 C71.84798141 191.94965675 70.48649049 191.9476058 69.125 191.9453125 C67.73876936 191.94598559 66.35253883 191.94695566 64.96630859 191.94821167 C62.05760578 191.9496884 59.14893363 191.9475349 56.24023438 191.94287109 C52.50403402 191.93717381 48.76790548 191.94045294 45.03170776 191.94644356 C42.16820734 191.95004985 39.30472407 191.94891027 36.44122314 191.94631577 C35.06325268 191.94564668 33.68528068 191.94647426 32.30731201 191.94879532 C30.38456246 191.95132292 28.46180748 191.94679024 26.5390625 191.94189453 C24.89478271 191.94070114 24.89478271 191.94070114 23.21728516 191.93948364 C20.75 191.8125 20.75 191.8125 19.75 190.8125 C19.66138008 188.0008662 19.63477645 185.21391745 19.65234375 182.40234375 C19.6537587 181.56030899 19.65517365 180.71827423 19.65663147 179.85072327 C19.66224737 177.15044665 19.67480252 174.45025172 19.6875 171.75 C19.69251295 169.92382932 19.69707621 168.09765734 19.70117188 166.27148438 C19.71222196 161.78512458 19.72949721 157.29882616 19.75 152.8125 C21.07 152.4825 22.39 152.1525 23.75 151.8125 C23.0584914 142.55475225 21.69973669 137.04244253 14.75 130.8125 C13.450625 129.59433594 13.450625 129.59433594 12.125 128.3515625 C9.36590636 125.79940088 6.56889067 123.29832289 3.75 120.8125 C2.99976563 120.14734375 2.24953125 119.4821875 1.4765625 118.796875 C-2.14557754 115.57487253 -2.14557754 115.57487253 -5.93359375 112.5546875 C-14.1542995 106.36353254 -15.82199938 95.97009826 -18.32421875 86.53125 C-18.69665528 85.14921287 -19.06969796 83.76733896 -19.4433136 82.38562012 C-20.22094189 79.50247381 -20.99271645 76.61784712 -21.76000977 73.73193359 C-22.73890873 70.05118798 -23.73015481 66.37391002 -24.72554302 62.69759369 C-25.49583958 59.84868007 -26.26066784 56.99832107 -27.02378273 54.1474762 C-27.38716718 52.7916562 -27.75194522 51.43620885 -28.1182003 50.0811615 C-33.3573907 30.65496223 -33.3573907 30.65496223 -30.25 22.8125 C-28.40453061 20.21730868 -26.49649767 18.05899767 -24.25 15.8125 C-23.71895697 13.77997642 -23.71895697 13.77997642 -23.375 11.5 C-22.23118092 6.01846703 -20.2488409 3.16055549 -15.5625 0 C-10.12004689 -1.9510681 -5.43605822 -1.98625204 0 0 Z M-14.25 11.8125 C-14.25 12.8025 -14.25 13.7925 -14.25 14.8125 C-13.64671875 15.04324219 -13.0434375 15.27398437 -12.421875 15.51171875 C-11.62265625 15.83785156 -10.8234375 16.16398437 -10 16.5 C-9.21109375 16.81324219 -8.4221875 17.12648438 -7.609375 17.44921875 C-1.84343739 20.78086151 -0.17992494 26.13567538 1.66015625 32.140625 C2.04052284 33.32504181 2.04052284 33.32504181 2.42857361 34.53338623 C3.50781344 37.89403342 4.56203656 41.26235564 5.61645508 44.63085938 C6.39204418 47.09569337 7.18180285 49.5556546 7.97265625 52.015625 C8.20710953 52.7822345 8.44156281 53.54884399 8.68312073 54.33868408 C9.28150756 56.19496619 10.00563629 58.00978739 10.75 59.8125 C12.235 60.3075 12.235 60.3075 13.75 60.8125 C14.74 60.3175 14.74 60.3175 15.75 59.8125 C13.43774468 50.49946712 10.38621786 41.45258369 7.24414062 32.39428711 C6.66122551 30.70465198 6.08545348 29.01253679 5.51660156 27.31811523 C4.68550267 24.84314462 3.83355251 22.37626351 2.9765625 19.91015625 C2.72742096 19.15597916 2.47827942 18.40180206 2.22158813 17.62477112 C0.59634443 13.04566578 -0.96893299 10.46829202 -5.25 7.8125 C-9.70709697 6.94282254 -11.53687939 8.2954918 -14.25 11.8125 Z M-22.25 27.8125 C-23.04211629 35.59998965 -20.68358295 42.7480125 -18.63671875 50.19921875 C-18.26210439 51.58810521 -17.88815841 52.97717211 -17.5148468 54.3664093 C-16.73348356 57.26533532 -15.94517528 60.16225209 -15.15161133 63.05786133 C-14.13746968 66.75993698 -13.13924683 70.46607982 -12.14596844 74.17380047 C-11.37704159 77.03817569 -10.60056208 79.90046043 -9.82172585 82.76215553 C-9.45083253 84.12786226 -9.08206796 85.49414903 -8.71552086 86.86102867 C-8.20159898 88.77227133 -7.67657986 90.68051945 -7.15112305 92.58862305 C-6.85578171 93.67257858 -6.56044037 94.75653412 -6.25614929 95.87333679 C-4.64812009 100.57071152 -2.49950315 103.91103184 1.3125 107.0625 C4.50962699 109.76099251 7.64930361 112.5032404 10.75 115.3125 C13.79595874 118.06881236 16.87194365 120.77507036 20 123.4375 C24.38026116 127.25801176 28.88216733 131.20900198 30.75 136.8125 C31.245 144.2375 31.245 144.2375 31.75 151.8125 C44.95 151.8125 58.15 151.8125 71.75 151.8125 C71.79125 145.934375 71.8325 140.05625 71.875 134 C71.89320801 132.16848389 71.91141602 130.33696777 71.93017578 128.44995117 C72.24629327 110.29564894 72.24629327 110.29564894 63.75 94.8125 C56.94419269 89.33028527 49.24425863 85.03156213 41.6875 80.6875 C40.66333984 80.09324219 39.63917969 79.49898437 38.58398438 78.88671875 C36.5811902 77.72727368 34.57542488 76.57294233 32.56640625 75.42431641 C30.75044021 74.38504735 28.94005036 73.33594331 27.13671875 72.27490234 C26.3478125 71.81809082 25.55890625 71.3612793 24.74609375 70.890625 C24.06345459 70.49004883 23.38081543 70.08947266 22.67749023 69.67675781 C19.36570026 68.19180069 17.07880789 68.61412916 13.75 69.8125 C11.46295365 72.38542714 10.77337196 73.87762148 10.6875 77.3125 C13.60042879 84.1664501 22.46309371 87.68919453 28.625 91.125 C29.59953125 91.67478516 30.5740625 92.22457031 31.578125 92.79101562 C33.96574649 94.13697872 36.35636011 95.47727881 38.75 96.8125 C38.75 99.1225 38.75 101.4325 38.75 103.8125 C31.70170087 102.46563862 26.22841885 99.60368543 20.0625 96 C18.67708008 95.21786133 18.67708008 95.21786133 17.26367188 94.41992188 C6.08441725 87.97313789 6.08441725 87.97313789 3.58081055 82.04321289 C2.66418713 78.47880571 2.90664245 76.24561001 3.4765625 72.6328125 C4.25760022 63.81890616 1.81345365 56.44384339 -1.02685547 48.16796875 C-1.88242059 45.66579788 -2.69141808 43.15175477 -3.49609375 40.6328125 C-4.02859279 39.02255635 -4.56365686 37.41314565 -5.1015625 35.8046875 C-5.34137848 35.05992157 -5.58119446 34.31515564 -5.82827759 33.54782104 C-7.42261307 28.98792513 -8.99879408 26.45591585 -13.25 23.8125 C-17.67310755 22.94945463 -19.75178799 24.11144517 -22.25 27.8125 Z M27.75 159.8125 C27.75 167.7325 27.75 175.6525 27.75 183.8125 C43.59 183.8125 59.43 183.8125 75.75 183.8125 C75.75 175.8925 75.75 167.9725 75.75 159.8125 C59.91 159.8125 44.07 159.8125 27.75 159.8125 Z " fill="#000000" transform="translate(40.25,56.1875)"/>
<path d="M0 0 C4.02286118 2.37207526 6.9787069 4.60790568 8.73828125 9.05859375 C8.88735885 10.38945011 9.01057084 11.72335843 9.11328125 13.05859375 C9.50255411 17.45654884 11.38465479 19.19574189 14.73828125 22.05859375 C17.36254497 25.99498933 18.09093796 29.42146585 17.45602417 34.16928101 C16.94962066 36.58481817 16.35915797 38.96388829 15.734375 41.3515625 C15.39447792 42.70884712 15.39447792 42.70884712 15.04771423 44.09355164 C14.29261194 47.08586389 13.51668435 50.07226405 12.73828125 53.05859375 C12.47154602 54.09759827 12.20481079 55.13660278 11.92999268 56.20709229 C10.23350997 62.8144658 8.48999591 69.4077755 6.70922852 75.99291992 C6.09787755 78.26630432 5.49416929 80.54175628 4.89770508 82.8190918 C4.01933493 86.17072344 3.11776238 89.51534523 2.2109375 92.859375 C1.82156761 94.37196648 1.82156761 94.37196648 1.42433167 95.91511536 C-0.7990665 103.94765016 -4.49961064 110.1797931 -11.01171875 115.49609375 C-14.15205914 118.12702778 -17.22597826 120.80687193 -20.26171875 123.55859375 C-23.97909341 126.92084171 -27.74278504 130.21690658 -31.5703125 133.453125 C-35.64421325 137.32003772 -36.72044558 140.2026463 -37.44921875 145.80859375 C-37.68705078 147.56429687 -37.68705078 147.56429687 -37.9296875 149.35546875 C-38.03925781 150.2475 -38.14882812 151.13953125 -38.26171875 152.05859375 C-36.94171875 152.38859375 -35.62171875 152.71859375 -34.26171875 153.05859375 C-34.23707026 158.45206363 -34.21888344 163.845501 -34.20678711 169.23901367 C-34.20174644 171.0752825 -34.19491398 172.91154729 -34.1862793 174.74780273 C-34.17420203 177.38135776 -34.16848794 180.01485991 -34.1640625 182.6484375 C-34.15890121 183.47447983 -34.15373993 184.30052216 -34.14842224 185.15159607 C-34.1482267 187.12095743 -34.19967723 189.09020989 -34.26171875 191.05859375 C-36.04088342 192.83775842 -38.64485174 192.1862421 -41.05078125 192.18798828 C-42.28876465 192.19114044 -43.52674805 192.1942926 -44.80224609 192.19754028 C-46.16373734 192.1957505 -47.52522826 192.19369955 -48.88671875 192.19140625 C-50.27294939 192.19207934 -51.65917992 192.19304941 -53.04541016 192.19430542 C-55.95411297 192.19578215 -58.86278512 192.19362865 -61.77148438 192.18896484 C-65.50768473 192.18326756 -69.24381327 192.18654669 -72.98001099 192.19253731 C-75.84351141 192.1961436 -78.70699468 192.19500402 -81.57049561 192.19240952 C-82.94846607 192.19174043 -84.32643807 192.19256801 -85.70440674 192.19488907 C-87.62715629 192.19741667 -89.54991127 192.19288399 -91.47265625 192.18798828 C-93.11693604 192.18679489 -93.11693604 192.18679489 -94.79443359 192.18557739 C-97.26171875 192.05859375 -97.26171875 192.05859375 -98.26171875 191.05859375 C-98.35033867 188.24695995 -98.3769423 185.4600112 -98.359375 182.6484375 C-98.35796005 181.80640274 -98.3565451 180.96436798 -98.35508728 180.09681702 C-98.34947138 177.3965404 -98.33691623 174.69634547 -98.32421875 171.99609375 C-98.3192058 170.16992307 -98.31464254 168.34375109 -98.31054688 166.51757812 C-98.29949679 162.03121833 -98.28222154 157.54491991 -98.26171875 153.05859375 C-96.94171875 152.72859375 -95.62171875 152.39859375 -94.26171875 152.05859375 C-94.2706012 151.50450836 -94.27948364 150.95042297 -94.28863525 150.37954712 C-94.37767337 144.57133382 -94.43768513 138.76331686 -94.48144531 132.95458984 C-94.50146265 130.79174921 -94.52868505 128.62896202 -94.56347656 126.46630859 C-94.61243122 123.34328969 -94.63478692 120.22099115 -94.65234375 117.09765625 C-94.67298889 116.14307526 -94.69363403 115.18849426 -94.71490479 114.20498657 C-94.71823157 104.07239077 -91.18673769 95.48109676 -84.26171875 88.05859375 C-77.51225762 82.08256371 -69.34422822 77.85694196 -61.57421875 73.37109375 C-60.25558772 72.60528528 -58.93722634 71.8390123 -57.61914062 71.07226562 C-55.20258965 69.66675081 -52.7842735 68.26448448 -50.36450195 66.86450195 C-48.38493957 65.71234026 -46.42044082 64.53361567 -44.47729492 63.32104492 C-42.26171875 62.05859375 -42.26171875 62.05859375 -40.26171875 62.05859375 C-40.00052246 60.78137451 -39.73932617 59.50415527 -39.47021484 58.18823242 C-38.31096622 52.98481431 -36.67961931 48.01370484 -34.92578125 42.984375 C-34.60515717 42.05690964 -34.28453308 41.12944427 -33.95419312 40.1738739 C-33.27935879 38.22755958 -32.60188104 36.28215995 -31.921875 34.33764648 C-30.88715164 31.37233432 -29.86704884 28.40225266 -28.84765625 25.43164062 C-28.18708121 23.53224466 -27.52565196 21.63314551 -26.86328125 19.734375 C-26.41150009 18.41231804 -26.41150009 18.41231804 -25.95059204 17.06355286 C-23.42472556 9.90990627 -20.68295874 4.50406759 -14.26171875 0.05859375 C-9.47048627 -1.53848374 -4.75032512 -1.97725104 0 0 Z M-14.26171875 12.05859375 C-15.92601991 15.40678681 -17.07639528 18.89614616 -18.25 22.44140625 C-18.59806198 23.45202118 -18.94612396 24.46263611 -19.30473328 25.50387573 C-20.40974289 28.72549433 -21.49178746 31.95432839 -22.57421875 35.18359375 C-23.32085308 37.3650673 -24.06888437 39.54606327 -24.81835938 41.7265625 C-26.17775293 45.70578834 -27.53639382 49.68518938 -28.87231445 53.67236328 C-29.14147171 54.4730423 -29.41062897 55.27372131 -29.6879425 56.09866333 C-30.35537243 58.03813488 -30.35537243 58.03813488 -30.26171875 60.05859375 C-28.94171875 60.38859375 -27.62171875 60.71859375 -26.26171875 61.05859375 C-24.35220308 56.1287984 -22.61597541 51.16455838 -20.95703125 46.14453125 C-20.3179753 44.22761165 -19.67787782 42.31104226 -19.03759766 40.39453125 C-18.60296082 39.08507773 -18.17263188 37.7741866 -17.74658203 36.46191406 C-12.5279988 20.42626749 -12.5279988 20.42626749 -6.0234375 16.81640625 C-4.10286458 16.23046875 -2.18229167 15.64453125 -0.26171875 15.05859375 C-0.53206509 12.62142117 -0.53206509 12.62142117 -1.26171875 10.05859375 C-6.64502727 6.46972141 -9.85156324 7.57971828 -14.26171875 12.05859375 Z M-6.26171875 28.05859375 C-7.63545709 30.62101823 -8.52058399 33.28815004 -9.41015625 36.05078125 C-9.67180573 36.83317169 -9.9334552 37.61556213 -10.20303345 38.42166138 C-10.7508108 40.07811853 -11.28989398 41.73747294 -11.82080078 43.39941406 C-12.62628992 45.9012026 -13.47496555 48.38522324 -14.328125 50.87109375 C-17.2719096 59.7565439 -18.93115818 66.87886623 -17.56225586 76.265625 C-17.10979919 80.47042133 -18.02699497 82.51385947 -20.26171875 86.05859375 C-24.61718634 90.8822057 -30.02671301 93.59569874 -35.63671875 96.74609375 C-36.66539062 97.33970703 -37.6940625 97.93332031 -38.75390625 98.54492188 C-39.75421875 99.11017578 -40.75453125 99.67542969 -41.78515625 100.2578125 C-42.69185059 100.77174561 -43.59854492 101.28567871 -44.53271484 101.81518555 C-47.46270219 103.15016726 -50.07727775 103.66924128 -53.26171875 104.05859375 C-54.27666635 99.83684364 -54.27666635 99.83684364 -53.26171875 97.05859375 C-49.68413807 94.09645926 -45.61934424 92.0720029 -41.51171875 89.93359375 C-39.30363954 88.75270684 -37.10030666 87.56289233 -34.90234375 86.36328125 C-33.91782227 85.84749512 -32.93330078 85.33170898 -31.91894531 84.80029297 C-28.97740638 82.87223906 -27.21710688 80.97081228 -25.26171875 78.05859375 C-25.26171875 74.80699052 -26.05700062 73.35779717 -27.88671875 70.68359375 C-30.2306408 68.72409502 -30.2306408 68.72409502 -33.51098633 69.24975586 C-37.4540058 70.10006006 -40.16810943 71.35854177 -43.6484375 73.375 C-44.23156204 73.70974838 -44.81468658 74.04449677 -45.41548157 74.38938904 C-46.64456623 75.09778724 -47.87054712 75.81159543 -49.09350586 76.53051758 C-50.92096642 77.60449026 -52.75709964 78.66203858 -54.59570312 79.71679688 C-73.81850965 89.74645324 -73.81850965 89.74645324 -85.26171875 107.05859375 C-86.10717081 112.73031217 -86.39803763 118.20543537 -86.359375 123.93359375 C-86.35836792 124.65289062 -86.35736084 125.3721875 -86.35632324 126.11328125 C-86.35115048 128.76173532 -86.33718998 131.41016639 -86.32421875 134.05859375 C-86.30359375 139.99859375 -86.28296875 145.93859375 -86.26171875 152.05859375 C-73.06171875 152.05859375 -59.86171875 152.05859375 -46.26171875 152.05859375 C-45.93171875 147.10859375 -45.60171875 142.15859375 -45.26171875 137.05859375 C-44.27171875 135.07859375 -43.28171875 133.09859375 -42.26171875 131.05859375 C-41.76671875 129.57359375 -41.76671875 129.57359375 -41.26171875 128.05859375 C-39.9518707 127.34689135 -38.61490306 126.68398517 -37.26171875 126.05859375 C-35.62172438 124.76170102 -35.62172438 124.76170102 -34.08984375 123.265625 C-33.2225061 122.44868164 -33.2225061 122.44868164 -32.33764648 121.61523438 C-31.73509033 121.03966797 -31.13253418 120.46410156 -30.51171875 119.87109375 C-29.25864952 118.6892161 -28.00474877 117.5082194 -26.75 116.328125 C-26.14881348 115.76174316 -25.54762695 115.19536133 -24.92822266 114.61181641 C-22.89155646 112.71359339 -20.80756131 110.87668647 -18.69921875 109.05859375 C-18.09464844 108.52492188 -17.49007812 107.99125 -16.8671875 107.44140625 C-15.45474886 106.22485327 -13.98677758 105.07341194 -12.51171875 103.93359375 C-10.14986053 100.9156638 -9.43155119 98.85177538 -8.35498047 95.21069336 C-8.00868591 94.04448456 -7.66239136 92.87827576 -7.30560303 91.67672729 C-4.60052883 82.30086073 -2.00199671 72.89799616 0.55859375 63.48168945 C1.26358623 60.89288749 1.97795181 58.30694154 2.70019531 55.72290039 C3.75005835 51.96619183 4.772422 48.20228403 5.79296875 44.4375 C6.11884979 43.28431778 6.44473083 42.13113556 6.78048706 40.94300842 C7.06803864 39.86425949 7.35559021 38.78551056 7.65185547 37.67407227 C7.91070526 36.73177261 8.16955505 35.78947296 8.43624878 34.81861877 C8.81511959 31.35643172 8.16700168 29.21560503 6.73828125 26.05859375 C1.31677518 22.44425637 -1.76364481 23.66111294 -6.26171875 28.05859375 Z M-90.26171875 160.05859375 C-90.26171875 167.97859375 -90.26171875 175.89859375 -90.26171875 184.05859375 C-74.42171875 184.05859375 -58.58171875 184.05859375 -42.26171875 184.05859375 C-42.26171875 176.13859375 -42.26171875 168.21859375 -42.26171875 160.05859375 C-58.10171875 160.05859375 -73.94171875 160.05859375 -90.26171875 160.05859375 Z " fill="#000000" transform="translate(230.26171875,55.94140625)"/>
<path d="M0 0 C2.4250144 1.54063186 2.4250144 1.54063186 5.06640625 0.58203125 C7.15674956 -0.59209016 9.09010865 -1.8102521 11.03515625 -3.20703125 C19.12920871 -8.37865645 28.96043543 -9.92506975 38.3125 -8.265625 C50.48465278 -5.57946266 60.18441808 0.03434293 67.078125 10.71875 C73.45461126 22.74244696 73.77718235 33.96528505 69.93359375 46.859375 C65.48860555 57.11612585 57.61874051 64.57396214 49.84765625 72.359375 C48.61485602 73.60183182 47.38227514 74.8445063 46.14990234 76.08738708 C43.57983062 78.67531989 41.00373803 81.25708176 38.42382812 83.83520508 C35.11983292 87.13889363 31.83706163 90.46285185 28.55905151 93.79229832 C26.0265251 96.35814882 23.48051245 98.91027987 20.93048096 101.45872307 C19.71361153 102.67912941 18.50159637 103.90439626 17.2946167 105.13458443 C15.61004408 106.84852982 13.90754572 108.54244156 12.19921875 110.23266602 C11.70657532 110.74216797 11.21393188 111.25166992 10.70635986 111.77661133 C8.35762477 114.06256577 6.71138205 115.17988627 3.48413086 115.86369324 C-0.53616848 115.0183426 -2.65780356 112.94239905 -5.4375 110.09667969 C-5.9944455 109.55024811 -6.55139099 109.00381653 -7.12521362 108.44082642 C-8.96213696 106.63030175 -10.77624335 104.79870921 -12.58984375 102.96484375 C-13.86639392 101.69233862 -15.14383337 100.42072502 -16.42211914 99.14996338 C-19.10151112 96.47942072 -21.76974808 93.79832378 -24.43066406 91.109375 C-27.81967744 87.68638452 -31.23463464 84.29076719 -34.65864563 80.90282822 C-37.30525335 78.27806785 -39.93719981 75.63897573 -42.56515503 72.99555206 C-43.81730464 71.73943473 -45.07383014 70.48766213 -46.33499146 69.24059296 C-56.90636903 58.76143694 -65.23170517 47.91333975 -65.83984375 32.41796875 C-65.5562857 20.86297814 -61.17670368 10.85637196 -53.33984375 2.48046875 C-38.23153039 -11.85241793 -16.36267435 -12.36455483 0 0 Z M-49.83984375 12.66796875 C-54.85682058 18.84375817 -56.93956022 25.98327658 -56.8046875 33.92578125 C-55.10467401 48.05265391 -44.80204258 57.24802016 -35.22265625 66.73046875 C-34.13220059 67.81718664 -33.04219128 68.90435259 -31.9526062 69.99194336 C-29.10643226 72.83054093 -26.254301 75.66307631 -23.40081787 78.49432373 C-20.4809848 81.39356804 -17.56692118 84.298599 -14.65234375 87.203125 C-8.94959066 92.88453421 -3.24052081 98.55954198 2.47265625 104.23046875 C6.17474243 102.67395004 8.57332514 100.40690732 11.42138672 97.60400391 C11.9000116 97.13530884 12.37863647 96.66661377 12.87176514 96.18371582 C14.45006563 94.63456524 16.02053336 93.07778539 17.58984375 91.51953125 C18.13031467 90.98471508 18.6707856 90.44989891 19.22763443 89.89887619 C22.09293797 87.06353451 24.95244402 84.22249611 27.80712891 81.37646484 C30.73427221 78.46023166 33.67945421 75.56298328 36.62954521 72.66999245 C38.91339052 70.4237205 41.1833933 68.16382552 43.45004654 65.90021896 C44.52857135 64.82768563 45.61202225 63.76007931 46.70074081 62.69789505 C55.61639031 53.98404316 62.71361715 44.9082173 63.72265625 32.04296875 C63.03016648 21.48249974 58.75632551 13.97980221 51.03515625 6.91796875 C44.41170948 1.53733208 36.92849991 -0.3240128 28.47265625 0.23046875 C18.91106775 2.10155904 11.8359896 7.05476981 4.47265625 13.23046875 C1.04059737 12.19045091 -1.18526761 10.74815442 -3.77734375 8.35546875 C-9.77937185 2.99557902 -16.78819814 0.60216645 -24.71484375 -0.01953125 C-35.27531276 0.67295852 -42.77801029 4.94679949 -49.83984375 12.66796875 Z " fill="#000000" transform="translate(124.52734375,16.76953125)"/>
<path d="M0 0 C0.98484375 -0.00128906 1.9696875 -0.00257812 2.984375 -0.00390625 C4.02078125 -0.00003906 5.0571875 0.00382812 6.125 0.0078125 C7.67960937 0.00201172 7.67960937 0.00201172 9.265625 -0.00390625 C10.25046875 -0.00261719 11.2353125 -0.00132813 12.25 0 C13.16007812 0.00112793 14.07015625 0.00225586 15.0078125 0.00341797 C17.125 0.1328125 17.125 0.1328125 18.125 1.1328125 C18.19813567 3.66330652 18.21747527 6.16586087 18.1875 8.6953125 C18.18298828 9.40623047 18.17847656 10.11714844 18.17382812 10.84960938 C18.16200864 12.61071263 18.14407263 14.37177286 18.125 16.1328125 C19.73181641 16.11541016 19.73181641 16.11541016 21.37109375 16.09765625 C22.76822743 16.08827951 24.16536299 16.07917919 25.5625 16.0703125 C26.26955078 16.06193359 26.97660156 16.05355469 27.70507812 16.04492188 C29.51193559 16.03627662 31.31887603 16.08061239 33.125 16.1328125 C34.77894117 17.78675367 34.25499683 19.73596663 34.2578125 22.0078125 C34.25974609 23.48507813 34.25974609 23.48507813 34.26171875 24.9921875 C34.25785156 26.02859375 34.25398438 27.065 34.25 28.1328125 C34.25580078 29.68742187 34.25580078 29.68742187 34.26171875 31.2734375 C34.26042969 32.25828125 34.25914062 33.243125 34.2578125 34.2578125 C34.25668457 35.16789062 34.25555664 36.07796875 34.25439453 37.015625 C34.125 39.1328125 34.125 39.1328125 33.125 40.1328125 C30.59450598 40.20594817 28.09195163 40.22528777 25.5625 40.1953125 C24.85158203 40.19080078 24.14066406 40.18628906 23.40820312 40.18164062 C21.64709987 40.16982114 19.88603964 40.15188513 18.125 40.1328125 C18.13660156 41.20402344 18.14820313 42.27523437 18.16015625 43.37890625 C18.16953299 44.77603993 18.17863331 46.17317549 18.1875 47.5703125 C18.19587891 48.27736328 18.20425781 48.98441406 18.21289062 49.71289062 C18.22153588 51.51974809 18.17720011 53.32668853 18.125 55.1328125 C16.47105883 56.78675367 14.52184587 56.26280933 12.25 56.265625 C11.26515625 56.26691406 10.2803125 56.26820312 9.265625 56.26953125 C8.22921875 56.26566406 7.1928125 56.26179688 6.125 56.2578125 C4.57039063 56.26361328 4.57039063 56.26361328 2.984375 56.26953125 C1.99953125 56.26824219 1.0146875 56.26695313 0 56.265625 C-0.91007812 56.26449707 -1.82015625 56.26336914 -2.7578125 56.26220703 C-4.875 56.1328125 -4.875 56.1328125 -5.875 55.1328125 C-5.94813567 52.60231848 -5.96747527 50.09976413 -5.9375 47.5703125 C-5.93298828 46.85939453 -5.92847656 46.14847656 -5.92382812 45.41601562 C-5.91200864 43.65491237 -5.89407263 41.89385214 -5.875 40.1328125 C-7.48181641 40.15021484 -7.48181641 40.15021484 -9.12109375 40.16796875 C-10.51822743 40.17734549 -11.91536299 40.18644581 -13.3125 40.1953125 C-14.01955078 40.20369141 -14.72660156 40.21207031 -15.45507812 40.22070312 C-17.26193559 40.22934838 -19.06887603 40.18501261 -20.875 40.1328125 C-22.52894117 38.47887133 -22.00499683 36.52965837 -22.0078125 34.2578125 C-22.00910156 33.27296875 -22.01039062 32.288125 -22.01171875 31.2734375 C-22.00785156 30.23703125 -22.00398438 29.200625 -22 28.1328125 C-22.00580078 26.57820313 -22.00580078 26.57820313 -22.01171875 24.9921875 C-22.01042969 24.00734375 -22.00914063 23.0225 -22.0078125 22.0078125 C-22.00668457 21.09773438 -22.00555664 20.18765625 -22.00439453 19.25 C-21.875 17.1328125 -21.875 17.1328125 -20.875 16.1328125 C-18.34450598 16.05967683 -15.84195163 16.04033723 -13.3125 16.0703125 C-12.60158203 16.07482422 -11.89066406 16.07933594 -11.15820312 16.08398438 C-9.39709987 16.09580386 -7.63603964 16.11373987 -5.875 16.1328125 C-5.88660156 15.06160156 -5.89820312 13.99039063 -5.91015625 12.88671875 C-5.91953299 11.48958507 -5.92863331 10.09244951 -5.9375 8.6953125 C-5.95006836 7.63473633 -5.95006836 7.63473633 -5.96289062 6.55273438 C-5.97153588 4.74587691 -5.92720011 2.93893647 -5.875 1.1328125 C-4.22105883 -0.52112867 -2.27184587 0.00281567 0 0 Z M2.125 8.1328125 C1.795 13.0828125 1.465 18.0328125 1.125 23.1328125 C-3.825 23.4628125 -8.775 23.7928125 -13.875 24.1328125 C-13.875 26.7728125 -13.875 29.4128125 -13.875 32.1328125 C-8.925 32.4628125 -3.975 32.7928125 1.125 33.1328125 C1.455 38.0828125 1.785 43.0328125 2.125 48.1328125 C4.765 48.1328125 7.405 48.1328125 10.125 48.1328125 C10.455 43.1828125 10.785 38.2328125 11.125 33.1328125 C16.075 32.8028125 21.025 32.4728125 26.125 32.1328125 C26.125 29.4928125 26.125 26.8528125 26.125 24.1328125 C21.175 23.8028125 16.225 23.4728125 11.125 23.1328125 C10.795 18.1828125 10.465 13.2328125 10.125 8.1328125 C7.485 8.1328125 4.845 8.1328125 2.125 8.1328125 Z " fill="#000000" transform="translate(121.875,35.8671875)"/>
</svg>
