<?xml version="1.0" encoding="UTF-8"?>
<svg version="1.1" xmlns="http://www.w3.org/2000/svg" width="256" height="256">
<path d="M0 0 C1.02478958 -0.01606293 2.04957916 -0.03212585 3.10542297 -0.04867554 C7.79423407 -0.09307334 12.48290294 -0.13418799 17.171875 -0.15722656 C19.64625448 -0.17379281 22.12058599 -0.20109123 24.59472656 -0.23925781 C28.15870032 -0.29396741 31.72155179 -0.31589234 35.28588867 -0.33056641 C36.39124466 -0.35323578 37.49660065 -0.37590515 38.63545227 -0.39926147 C46.32607604 -0.37806868 46.32607604 -0.37806868 50.25341797 2.60058594 C53.33663451 6.97902558 53.21021469 10.26475264 53.17651367 15.48193359 C53.17439125 16.70956924 53.17439125 16.70956924 53.17222595 17.96200562 C53.16662032 20.58066434 53.1540669 23.19923813 53.14135742 25.81787109 C53.13634315 27.59130736 53.13178011 29.36474497 53.12768555 31.13818359 C53.11664906 35.48977891 53.09938067 39.84131059 53.07885742 44.19287109 C55.71885742 44.19287109 58.35885742 44.19287109 61.07885742 44.19287109 C61.03245117 43.52642578 60.98604492 42.85998047 60.93823242 42.17333984 C60.65535388 34.94983411 61.56706163 28.60948562 65.07885742 22.19287109 C67.29352448 20.21315889 68.61746815 19.29934554 71.51635742 18.63037109 C74.67722115 19.32421923 76.0329135 20.72872405 77.94213867 23.29443359 C81.78602824 29.71412545 82.42909227 35.8379392 82.07885742 43.19287109 C85.04885742 43.52287109 88.01885742 43.85287109 91.07885742 44.19287109 C90.74885742 43.53287109 90.41885742 42.87287109 90.07885742 42.19287109 C89.47266384 34.91854812 91.07638553 27.5402322 95.32885742 21.50537109 C98.07885742 19.19287109 98.07885742 19.19287109 101.64135742 18.94287109 C106.84594408 20.83544806 108.04244727 24.01640978 110.32885742 28.81787109 C111.46376145 33.92493922 111.2305893 38.98340983 111.07885742 44.19287109 C111.91030273 44.14646484 112.74174805 44.10005859 113.59838867 44.05224609 C115.2284082 43.99810547 115.2284082 43.99810547 116.89135742 43.94287109 C117.97030273 43.89646484 119.04924805 43.85005859 120.16088867 43.80224609 C123.07885742 44.19287109 123.07885742 44.19287109 124.73817444 45.92144775 C126.26953543 48.51592321 126.4512607 49.93745592 126.44775391 52.92626953 C126.4546373 53.86114197 126.46152069 54.7960144 126.46861267 55.75921631 C126.46245438 56.76341614 126.45629608 57.76761597 126.44995117 58.80224609 C126.46733944 60.94026848 126.48492376 63.07828928 126.50268555 65.21630859 C126.51274019 68.5779928 126.5163591 71.93957095 126.51464844 75.30126953 C126.51823265 78.55191378 126.54563507 81.80174693 126.57495117 85.05224609 C126.56676865 86.048349 126.55858612 87.0444519 126.55015564 88.07073975 C126.6092463 93.64963366 127.26072032 97.64544994 130.10102844 102.49082947 C133.05945473 107.64036461 133.35233134 113.07644361 133.32885742 118.88037109 C133.3365918 120.80429688 133.3365918 120.80429688 133.34448242 122.76708984 C133.07885742 126.19287109 133.07885742 126.19287109 131.07885742 130.19287109 C138.00885742 130.19287109 144.93885742 130.19287109 152.07885742 130.19287109 C152.40885742 131.84287109 152.73885742 133.49287109 153.07885742 135.19287109 C150.03204681 137.22407817 149.47767418 137.43946984 146.06713867 137.38818359 C145.30981445 137.38173828 144.55249023 137.37529297 143.7722168 137.36865234 C142.59369141 137.34351563 142.59369141 137.34351563 141.39135742 137.31787109 C140.59407227 137.30884766 139.79678711 137.29982422 138.9753418 137.29052734 C137.00971842 137.26698694 135.04424967 137.23111656 133.07885742 137.19287109 C133.13686523 138.00111328 133.19487305 138.80935547 133.25463867 139.64208984 C133.29975586 140.71072266 133.34487305 141.77935547 133.39135742 142.88037109 C133.47836914 144.46398437 133.47836914 144.46398437 133.56713867 146.07958984 C133.07885742 149.19287109 133.07885742 149.19287109 131.22338867 152.04833984 C126.70644926 155.12883641 122.80202148 154.86158906 117.45385742 154.81787109 C115.56579169 154.81787109 113.67767341 154.83034376 111.78979492 154.85693359 C110.95754395 154.85129395 110.12529297 154.8456543 109.26782227 154.83984375 C106.56727501 155.27537702 105.75154449 156.07392194 104.07885742 158.19287109 C102.79004357 160.53907492 102.79004357 160.53907492 101.76635742 163.13037109 C101.39897461 163.98501953 101.0315918 164.83966797 100.65307617 165.72021484 C99.88793335 168.11843581 99.88793335 168.11843581 100.62963867 170.16943359 C103.03508242 173.5279777 106.08060213 176.23470951 109.09057617 179.03857422 C112.91762164 182.71684714 115.02203615 185.63591405 115.14135742 191.00537109 C113.54937172 195.78132819 110.55566915 198.62751578 107.07885742 202.19287109 C106.60883301 202.68722656 106.13880859 203.18158203 105.65454102 203.69091797 C104.09818985 205.32709473 102.5285432 206.94934312 100.95385742 208.56787109 C100.45136475 209.09203613 99.94887207 209.61620117 99.43115234 210.15625 C95.67159854 213.94732398 92.66872222 216.13531854 87.26635742 216.25537109 C82.54371788 214.68115791 79.6488659 211.57044417 76.07885742 208.19287109 C74.58424192 206.87424274 73.08444634 205.56145618 71.57885742 204.25537109 C70.41219076 203.23453776 69.24552409 202.21370443 68.07885742 201.19287109 C65.9298751 201.97594949 63.78473647 202.76958352 61.64135742 203.56787109 C60.44639648 204.00873047 59.25143555 204.44958984 58.02026367 204.90380859 C54.97688844 205.86372345 54.97688844 205.86372345 54.07885742 208.19287109 C53.9856455 209.72851946 53.94711236 211.26770328 53.93823242 212.80615234 C53.91889648 213.72460938 53.89956055 214.64306641 53.87963867 215.58935547 C53.84599219 217.52144017 53.82757134 219.45385459 53.82495117 221.38623047 C53.80045898 222.30855469 53.7759668 223.23087891 53.75073242 224.18115234 C53.73671387 225.44245972 53.73671387 225.44245972 53.72241211 226.72924805 C52.75949347 230.41544379 51.07857867 231.89986809 48.07885742 234.19287109 C44.65307617 234.83984375 44.65307617 234.83984375 40.76635742 234.85693359 C39.72934692 234.86410904 39.72934692 234.86410904 38.67138672 234.87142944 C37.21571566 234.87481845 35.75996747 234.86568559 34.30444336 234.84472656 C32.08428245 234.81793656 29.86917481 234.84449756 27.64916992 234.87646484 C26.229888 234.87316056 24.81060921 234.8667539 23.39135742 234.85693359 C22.10874023 234.85129395 20.82612305 234.8456543 19.50463867 234.83984375 C15.18130955 234.02336555 13.69882604 232.68042378 11.07885742 229.19287109 C10.46704102 226.74511719 10.46704102 226.74511719 10.47729492 224.21630859 C10.4540918 222.83958984 10.4540918 222.83958984 10.43041992 221.43505859 C10.4381543 220.48888672 10.44588867 219.54271484 10.45385742 218.56787109 C10.45385742 216.67980536 10.44138476 214.79168708 10.41479492 212.90380859 C10.42043457 212.07155762 10.42607422 211.23930664 10.43188477 210.38183594 C9.99531479 207.67486055 9.21940289 206.85386333 7.07885742 205.19287109 C4.36059958 203.97420135 4.36059958 203.97420135 1.39135742 203.00537109 C-0.09944336 202.48910156 -0.09944336 202.48910156 -1.62036133 201.96240234 C-2.37961914 201.70845703 -3.13887695 201.45451172 -3.92114258 201.19287109 C-4.40583008 201.61697266 -4.89051758 202.04107422 -5.38989258 202.47802734 C-6.80121612 203.71293544 -8.21549802 204.94446743 -9.63208008 206.17333984 C-11.1180223 207.48431617 -12.58325371 208.81929222 -14.02270508 210.18115234 C-16.9724648 212.93160397 -19.21954259 214.9402951 -23.04614258 216.31787109 C-30.75699939 215.98261645 -35.59522224 209.97215041 -40.67114258 204.81787109 C-41.43813477 204.06248047 -42.20512695 203.30708984 -42.99536133 202.52880859 C-43.72883789 201.79146484 -44.46231445 201.05412109 -45.21801758 200.29443359 C-45.8815625 199.62750488 -46.54510742 198.96057617 -47.22875977 198.2734375 C-49.77262409 195.14608439 -50.89416897 192.4066834 -50.98364258 188.38037109 C-48.52790041 181.01314458 -41.38391405 175.50620505 -35.92114258 170.19287109 C-38.1392927 163.08343654 -38.1392927 163.08343654 -40.92114258 156.19287109 C-43.32149502 154.99269487 -44.85631878 155.06770413 -47.53442383 155.05224609 C-48.45288086 155.03291016 -49.37133789 155.01357422 -50.31762695 154.99365234 C-52.24971166 154.96000586 -54.18212608 154.94158501 -56.11450195 154.93896484 C-60.68950372 154.81747633 -63.21904439 154.67284144 -67.06958008 152.04052734 C-69.26874311 148.65827028 -69.45304572 146.87350833 -69.23364258 142.88037109 C-69.1659668 141.27742188 -69.1659668 141.27742188 -69.09692383 139.64208984 C-69.03891602 138.83384766 -68.9809082 138.02560547 -68.92114258 137.19287109 C-70.11352539 137.21607422 -71.3059082 137.23927734 -72.53442383 137.26318359 C-74.10082382 137.28194288 -75.66723058 137.30014291 -77.23364258 137.31787109 C-78.01932617 137.33462891 -78.80500977 137.35138672 -79.61450195 137.36865234 C-80.37182617 137.37509766 -81.12915039 137.38154297 -81.90942383 137.38818359 C-82.60592041 137.39865723 -83.30241699 137.40913086 -84.02001953 137.41992188 C-85.92114258 137.19287109 -85.92114258 137.19287109 -88.92114258 135.19287109 C-88.59114258 133.54287109 -88.26114258 131.89287109 -87.92114258 130.19287109 C-81.65114258 130.19287109 -75.38114258 130.19287109 -68.92114258 130.19287109 C-68.94732666 127.34122314 -68.97351074 124.4895752 -69.00048828 121.55151367 C-69.08331977 112.13195245 -69.13855935 102.71237517 -69.18020344 93.29254627 C-69.20630214 87.58098405 -69.24170597 81.86979481 -69.29833984 76.15844727 C-69.35264868 70.64711018 -69.38256105 65.13613196 -69.39552879 59.62454796 C-69.40477061 57.52135251 -69.42281779 55.41817681 -69.44979286 53.31513405 C-69.48606762 50.37005733 -69.49108851 47.42646518 -69.48876953 44.48120117 C-69.50674591 43.61085739 -69.52472229 42.74051361 -69.54324341 41.84379578 C-69.5056192 37.43060054 -69.35796611 35.73979297 -66.51066589 32.17485046 C-62.25410979 28.91695109 -59.01241056 29.00367011 -53.80786133 28.95458984 C-52.59801323 28.94248222 -52.59801323 28.94248222 -51.36372375 28.93013 C-49.6547765 28.91628966 -47.94580162 28.90556728 -46.23681641 28.89770508 C-43.62910228 28.88050603 -41.02266071 28.83662315 -38.4152832 28.79248047 C-36.75448523 28.78235212 -35.09367648 28.77383646 -33.43286133 28.76708984 C-32.65561203 28.74958176 -31.87836273 28.73207367 -31.07756042 28.71403503 C-27.40954005 28.72865628 -25.16990826 29.04083718 -22.01416016 30.96948242 C-17.68183719 35.57165964 -17.59750896 39.50301131 -17.50708008 45.67724609 C-17.48771393 46.49283997 -17.46834778 47.30843384 -17.44839478 48.14874268 C-17.38874683 50.74668002 -17.34227316 53.34466203 -17.29614258 55.94287109 C-17.25794916 57.70721304 -17.21889662 59.47153661 -17.17895508 61.23583984 C-17.08305753 65.55470055 -16.99897211 69.87364853 -16.92114258 74.19287109 C-16.30239258 73.53287109 -15.68364258 72.87287109 -15.04614258 72.19287109 C-12.92114258 70.19287109 -12.92114258 70.19287109 -10.92114258 70.19287109 C-10.93002502 69.41692596 -10.93890747 68.64098083 -10.94805908 67.84152222 C-11.02833922 60.5147866 -11.08917464 53.18826544 -11.12839127 45.86120415 C-11.14923112 42.09461518 -11.17748166 38.32839085 -11.22290039 34.56201172 C-11.26648856 30.92450522 -11.29030677 27.28734857 -11.30065155 23.64960098 C-11.30801984 22.26454285 -11.32240862 20.87950302 -11.34406281 19.49459457 C-11.52734419 7.28263461 -11.52734419 7.28263461 -9.02172852 3.35742188 C-5.95735152 0.19973168 -4.27562581 0.0608086 0 0 Z M-3.92114258 9.19287109 C-3.92114258 11.17287109 -3.92114258 13.15287109 -3.92114258 15.19287109 C12.57885742 15.19287109 29.07885742 15.19287109 46.07885742 15.19287109 C46.07885742 13.21287109 46.07885742 11.23287109 46.07885742 9.19287109 C43.63757074 6.75158441 43.00804928 6.94068409 39.66088867 6.93408203 C38.74654053 6.92777771 37.83219238 6.92147339 36.89013672 6.91497803 C35.90053955 6.91902649 34.91094238 6.92307495 33.89135742 6.92724609 C32.8779126 6.92533264 31.86446777 6.92341919 30.8203125 6.92144775 C28.67504631 6.92008518 26.52977189 6.92378662 24.38452148 6.93212891 C21.0923417 6.94282727 17.80070764 6.9322359 14.50854492 6.91943359 C12.42781455 6.92075518 10.34708451 6.92331754 8.26635742 6.92724609 C7.27676025 6.92319763 6.28716309 6.91914917 5.26757812 6.91497803 C3.89605591 6.92443451 3.89605591 6.92443451 2.49682617 6.93408203 C1.28675903 6.93646881 1.28675903 6.93646881 0.05224609 6.93890381 C-2.15420694 7.0185586 -2.15420694 7.0185586 -3.92114258 9.19287109 Z M-3.92114258 22.19287109 C-3.92114258 24.50287109 -3.92114258 26.81287109 -3.92114258 29.19287109 C12.57885742 29.19287109 29.07885742 29.19287109 46.07885742 29.19287109 C46.07885742 26.88287109 46.07885742 24.57287109 46.07885742 22.19287109 C29.57885742 22.19287109 13.07885742 22.19287109 -3.92114258 22.19287109 Z M71.07885742 27.19287109 C68.40484154 32.54090285 67.66628094 36.21051212 68.07885742 42.19287109 C69.14530857 43.4892073 69.14530857 43.4892073 71.64135742 43.25537109 C72.84791992 43.22443359 72.84791992 43.22443359 74.07885742 43.19287109 C75.51566713 37.05377507 74.40523433 32.9890983 72.07885742 27.19287109 C71.74885742 27.19287109 71.41885742 27.19287109 71.07885742 27.19287109 Z M100.07885742 27.19287109 C97.75248051 32.9890983 96.64204771 37.05377507 98.07885742 43.19287109 C99.74497647 43.2355921 101.41268627 43.23350941 103.07885742 43.19287109 C104.49086571 41.99978972 104.49086571 41.99978972 104.32885742 38.56787109 C104.29695497 34.1493819 103.04099987 31.11715599 101.07885742 27.19287109 C100.74885742 27.19287109 100.41885742 27.19287109 100.07885742 27.19287109 Z M-61.92114258 38.19287109 C-62.1094225 41.11535491 -62.17282998 43.94237931 -62.14819336 46.86523438 C-62.14848541 47.76285492 -62.14877747 48.66047546 -62.14907837 49.58529663 C-62.14768161 52.56135625 -62.13210414 55.53716755 -62.11645508 58.51318359 C-62.11272618 60.57298648 -62.10987863 62.63279114 -62.10787964 64.69259644 C-62.10023348 70.1210823 -62.08057657 75.54946159 -62.05847168 80.97790527 C-62.03803438 86.51438963 -62.02888246 92.05089116 -62.01879883 97.58740234 C-61.9973316 108.45593882 -61.96318383 119.3243961 -61.92114258 130.19287109 C-59.61114258 130.19287109 -57.30114258 130.19287109 -54.92114258 130.19287109 C-54.82317383 129.08427734 -54.72520508 127.97568359 -54.62426758 126.83349609 C-54.47415098 125.36985925 -54.32305793 123.90632233 -54.17114258 122.44287109 C-54.07833008 121.34845703 -54.07833008 121.34845703 -53.98364258 120.23193359 C-53.60961042 116.8033055 -53.16897165 114.5252474 -51.08911133 111.73583984 C-47.79659932 109.39252048 -44.91490546 108.98643405 -40.92114258 109.19287109 C-38.06371432 110.3731132 -36.52760758 111.27234386 -34.82739258 113.85302734 C-33.58800309 117.05300278 -33.48606215 120.02431872 -33.29614258 123.44287109 C-33.22137695 124.70615234 -33.14661133 125.96943359 -33.06958008 127.27099609 C-33.0205957 128.23521484 -32.97161133 129.19943359 -32.92114258 130.19287109 C-30.28114258 130.19287109 -27.64114258 130.19287109 -24.92114258 130.19287109 C-24.87485272 118.37977349 -24.83929043 106.56669738 -24.81751823 94.75352764 C-24.80707 89.26851389 -24.79289181 83.78356208 -24.77026367 78.29858398 C-24.74857241 73.00773826 -24.73658179 67.7169522 -24.73138809 62.42606544 C-24.72768565 60.40499749 -24.72045594 58.38393288 -24.70968246 56.36289024 C-24.69521697 53.53750868 -24.69316256 50.71237538 -24.6940918 47.88696289 C-24.68690125 47.04683151 -24.67971069 46.20670013 -24.67230225 45.34111023 C-24.68624947 41.43588677 -24.70459533 39.51769197 -26.92114258 36.19287109 C-29.45161081 35.9007024 -31.73407138 35.79653969 -34.26489258 35.82958984 C-35.35223694 35.82884209 -35.35223694 35.82884209 -36.46154785 35.82807922 C-37.99481954 35.83042068 -39.52809499 35.84015354 -41.0612793 35.85668945 C-43.41205103 35.88027986 -45.76168887 35.87725188 -48.11254883 35.87060547 C-49.60083686 35.87618224 -51.0891201 35.88329212 -52.57739258 35.89208984 C-53.28263062 35.89117844 -53.98786865 35.89026703 -54.71447754 35.889328 C-58.76705136 35.83767448 -58.76705136 35.83767448 -61.92114258 38.19287109 Z M-3.92114258 36.19287109 C-3.92114258 38.83287109 -3.92114258 41.47287109 -3.92114258 44.19287109 C12.57885742 44.19287109 29.07885742 44.19287109 46.07885742 44.19287109 C46.07885742 41.55287109 46.07885742 38.91287109 46.07885742 36.19287109 C29.57885742 36.19287109 13.07885742 36.19287109 -3.92114258 36.19287109 Z M-3.92114258 50.19287109 C-3.92114258 52.83287109 -3.92114258 55.47287109 -3.92114258 58.19287109 C12.57885742 58.19287109 29.07885742 58.19287109 46.07885742 58.19287109 C46.07885742 55.55287109 46.07885742 52.91287109 46.07885742 50.19287109 C29.57885742 50.19287109 13.07885742 50.19287109 -3.92114258 50.19287109 Z M53.07885742 50.19287109 C53.07885742 76.59287109 53.07885742 102.99287109 53.07885742 130.19287109 C68.58885742 130.19287109 84.09885742 130.19287109 100.07885742 130.19287109 C99.41885742 127.88287109 98.75885742 125.57287109 98.07885742 123.19287109 C97.58906869 118.46931535 98.15025819 113.83586726 99.07885742 109.19287109 C97.94448242 108.88349609 96.81010742 108.57412109 95.64135742 108.25537109 C92.07885742 107.19287109 92.07885742 107.19287109 91.07885742 106.19287109 C90.99253868 104.85019696 90.97179269 103.50312788 90.98120117 102.15771484 C90.98442383 101.34882812 90.98764648 100.53994141 90.9909668 99.70654297 C91.00353516 98.43133789 91.00353516 98.43133789 91.01635742 97.13037109 C91.02086914 96.27636719 91.02538086 95.42236328 91.0300293 94.54248047 C91.04185369 92.42591446 91.05978974 90.30938424 91.07885742 88.19287109 C94.05808336 88.16603122 97.03707037 88.14611072 100.01635742 88.13037109 C101.2915625 88.11780273 101.2915625 88.11780273 102.5925293 88.10498047 C103.40141602 88.10175781 104.21030273 88.09853516 105.04370117 88.09521484 C105.79256592 88.08997803 106.54143066 88.08474121 107.31298828 88.0793457 C109.07885742 88.19287109 109.07885742 88.19287109 110.07885742 89.19287109 C111.5981378 89.26467073 113.12053224 89.27679117 114.64135742 89.25537109 C115.46764648 89.24634766 116.29393555 89.23732422 117.14526367 89.22802734 C117.78334961 89.21642578 118.42143555 89.20482422 119.07885742 89.19287109 C119.10350592 83.79940121 119.12169273 78.40596384 119.13378906 73.01245117 C119.13882974 71.17618235 119.14566219 69.33991755 119.15429688 67.50366211 C119.16637414 64.87010708 119.17208823 62.23660493 119.17651367 59.60302734 C119.18167496 58.77698502 119.18683624 57.95094269 119.19215393 57.09986877 C119.19234947 55.13050742 119.14089894 53.16125496 119.07885742 51.19287109 C118.00898889 49.89849514 118.00898889 49.89849514 115.49095154 50.07261658 C113.76220543 50.07594749 113.76220543 50.07594749 111.99853516 50.0793457 C110.67897827 50.07946655 109.35942139 50.0795874 107.99987793 50.07971191 C106.58740187 50.0847484 105.17492627 50.08991504 103.76245117 50.09521484 C101.84728699 50.09672546 101.84728699 50.09672546 99.89343262 50.0982666 C95.10106515 50.10351843 90.30871043 50.11747953 85.51635742 50.13037109 C74.81198242 50.15099609 64.10760742 50.17162109 53.07885742 50.19287109 Z M-3.92114258 65.19287109 C-3.92114258 66.84287109 -3.92114258 68.49287109 -3.92114258 70.19287109 C-0.72068782 72.3265076 0.06515179 72.43959338 3.73388672 72.41992188 C4.67463547 72.41977081 5.61538422 72.41961975 6.5846405 72.41946411 C7.59722427 72.40914154 8.60980804 72.39881897 9.65307617 72.38818359 C10.69204544 72.3853537 11.73101471 72.3825238 12.8014679 72.37960815 C16.12321439 72.36840391 19.44469228 72.34329873 22.76635742 72.31787109 C25.01700457 72.30784162 27.26765594 72.29871571 29.51831055 72.29052734 C35.03858465 72.26846379 40.55870184 72.23498381 46.07885742 72.19287109 C46.07885742 69.88287109 46.07885742 67.57287109 46.07885742 65.19287109 C29.57885742 65.19287109 13.07885742 65.19287109 -3.92114258 65.19287109 Z M-8.92114258 76.19287109 C-15.371922 83.10442048 -18.04256181 92.36184081 -18.17114258 101.63037109 C-18.19692383 102.74283203 -18.22270508 103.85529297 -18.24926758 105.00146484 C-17.88204182 108.57317252 -17.16693551 110.40586229 -14.92114258 113.19287109 C-13.60114258 113.52287109 -12.28114258 113.85287109 -10.92114258 114.19287109 C-10.59114258 109.90287109 -10.26114258 105.61287109 -9.92114258 101.19287109 C-8.27114258 101.19287109 -6.62114258 101.19287109 -4.92114258 101.19287109 C-4.59114258 105.48287109 -4.26114258 109.77287109 -3.92114258 114.19287109 C0.87969838 112.77930647 0.87969838 112.77930647 2.37182617 110.45068359 C5.2118374 101.38147647 3.02888216 91.13225422 -1.09301758 82.83349609 C-3.2532636 78.72100561 -3.2532636 78.72100561 -7.08129883 76.47802734 C-7.68844727 76.38392578 -8.2955957 76.28982422 -8.92114258 76.19287109 Z M5.07885742 79.19287109 C6.06885742 81.83287109 7.05885742 84.47287109 8.07885742 87.19287109 C20.61885742 87.19287109 33.15885742 87.19287109 46.07885742 87.19287109 C46.07885742 84.55287109 46.07885742 81.91287109 46.07885742 79.19287109 C32.54885742 79.19287109 19.01885742 79.19287109 5.07885742 79.19287109 Z M97.07885742 93.19287109 C97.07885742 96.16287109 97.07885742 99.13287109 97.07885742 102.19287109 C99.49471317 102.16193937 99.49471317 102.16193937 102.07885742 101.19287109 C104.41511689 97.45360864 104.41511689 97.45360864 105.07885742 93.19287109 C102.43885742 93.19287109 99.79885742 93.19287109 97.07885742 93.19287109 Z M10.07885742 94.19287109 C10.07885742 96.83287109 10.07885742 99.47287109 10.07885742 102.19287109 C11.09254395 102.21474487 11.09254395 102.21474487 12.12670898 102.23706055 C15.19466265 102.31162521 18.26153819 102.40825764 21.32885742 102.50537109 C22.39233398 102.52792969 23.45581055 102.55048828 24.55151367 102.57373047 C25.57631836 102.60917969 26.60112305 102.64462891 27.65698242 102.68115234 C28.59960938 102.70733643 29.54223633 102.73352051 30.51342773 102.76049805 C33.57877667 103.27712661 34.9520789 103.92186276 37.07885742 106.19287109 C37.62475586 108.73657227 37.62475586 108.73657227 37.68823242 111.73583984 C37.72045898 112.80898437 37.75268555 113.88212891 37.78588867 114.98779297 C37.80006836 116.10734375 37.81424805 117.22689453 37.82885742 118.38037109 C37.85850586 119.51152344 37.8881543 120.64267578 37.91870117 121.80810547 C37.98946051 124.60309943 38.04212718 127.39725637 38.07885742 130.19287109 C40.71885742 130.19287109 43.35885742 130.19287109 46.07885742 130.19287109 C46.07885742 118.31287109 46.07885742 106.43287109 46.07885742 94.19287109 C34.19885742 94.19287109 22.31885742 94.19287109 10.07885742 94.19287109 Z M113.07885742 96.19287109 C106.95625846 102.75279855 104.49196688 110.95094439 103.98120117 119.77099609 C104.11412857 123.06759548 104.77966615 124.81704011 107.07885742 127.19287109 C109.55385742 128.18287109 109.55385742 128.18287109 112.07885742 129.19287109 C112.07885742 124.57287109 112.07885742 119.95287109 112.07885742 115.19287109 C113.72885742 115.19287109 115.37885742 115.19287109 117.07885742 115.19287109 C118.95710634 117.07112001 118.4698814 120.23222385 118.64135742 122.75537109 C118.72514648 123.95291016 118.80893555 125.15044922 118.89526367 126.38427734 C118.95584961 127.31111328 119.01643555 128.23794922 119.07885742 129.19287109 C122.73202413 127.94310354 123.85951578 127.52188356 126.07885742 124.19287109 C127.47603572 114.57508559 124.61477935 105.09539965 119.07885742 97.19287109 C115.98314672 96.30079931 115.98314672 96.30079931 113.07885742 96.19287109 Z M11.07885742 109.19287109 C11.07885742 116.12287109 11.07885742 123.05287109 11.07885742 130.19287109 C17.67885742 130.19287109 24.27885742 130.19287109 31.07885742 130.19287109 C31.07885742 123.26287109 31.07885742 116.33287109 31.07885742 109.19287109 C24.47885742 109.19287109 17.87885742 109.19287109 11.07885742 109.19287109 Z M-44.92114258 115.19287109 C-46.53838868 116.30577008 -46.53838868 116.30577008 -47.92114258 118.19287109 C-48.28433567 121.16479872 -48.28433567 121.16479872 -48.10864258 124.38037109 C-48.08157227 125.46705078 -48.05450195 126.55373047 -48.02661133 127.67333984 C-47.99180664 128.50478516 -47.95700195 129.33623047 -47.92114258 130.19287109 C-45.28114258 130.19287109 -42.64114258 130.19287109 -39.92114258 130.19287109 C-39.92114258 125.90287109 -39.92114258 121.61287109 -39.92114258 117.19287109 C-42.39614258 116.20287109 -42.39614258 116.20287109 -44.92114258 115.19287109 Z M-17.92114258 119.19287109 C-17.92114258 122.82287109 -17.92114258 126.45287109 -17.92114258 130.19287109 C-15.61114258 130.19287109 -13.30114258 130.19287109 -10.92114258 130.19287109 C-10.92114258 127.22287109 -10.92114258 124.25287109 -10.92114258 121.19287109 C-13.23114258 120.53287109 -15.54114258 119.87287109 -17.92114258 119.19287109 Z M-3.92114258 121.19287109 C-3.92114258 124.16287109 -3.92114258 127.13287109 -3.92114258 130.19287109 C-1.28114258 130.19287109 1.35885742 130.19287109 4.07885742 130.19287109 C4.07885742 126.56287109 4.07885742 122.93287109 4.07885742 119.19287109 C1.19490006 119.19287109 -1.21592073 120.25192436 -3.92114258 121.19287109 Z M-61.92114258 137.19287109 C-61.92114258 140.16287109 -61.92114258 143.13287109 -61.92114258 146.19287109 C-58.74921102 148.30749213 -57.79553466 148.46337682 -54.13989258 148.57177734 C-53.21563477 148.6059375 -52.29137695 148.64009766 -51.33911133 148.67529297 C-50.37618164 148.70171875 -49.41325195 148.72814453 -48.42114258 148.75537109 C-46.51476827 148.81534405 -44.6085049 148.87898674 -42.70239258 148.94677734 C-41.85741211 148.97070557 -41.01243164 148.99463379 -40.1418457 149.01928711 C-37.92114258 149.19287109 -37.92114258 149.19287109 -34.92114258 150.19287109 C-34.07739258 152.01318359 -34.07739258 152.01318359 -33.42114258 154.31787109 C-32.51730136 157.36112371 -31.58535225 159.87644426 -30.17114258 162.75537109 C-28.6762685 166.86627482 -28.59226936 170.06786732 -29.92114258 174.19287109 C-31.78354844 176.81624105 -34.02285925 178.87441234 -36.42114258 181.00537109 C-37.62312133 182.1116509 -38.82122467 183.22216028 -40.01489258 184.33740234 C-40.54791992 184.81540283 -41.08094727 185.29340332 -41.63012695 185.78588867 C-43.17683163 187.27928531 -43.17683163 187.27928531 -43.92114258 190.19287109 C-42.83742719 191.99641029 -42.83742719 191.99641029 -41.10864258 193.75537109 C-40.46797852 194.44888672 -39.82731445 195.14240234 -39.16723633 195.85693359 C-38.05541992 197.01322266 -38.05541992 197.01322266 -36.92114258 198.19287109 C-35.63916992 199.53478516 -35.63916992 199.53478516 -34.33129883 200.90380859 C-29.7494524 205.98584728 -29.7494524 205.98584728 -23.92114258 209.19287109 C-22.01689712 208.00470196 -22.01689712 208.00470196 -20.17114258 206.19287109 C-19.46473633 205.55091797 -18.75833008 204.90896484 -18.03051758 204.24755859 C-16.68749431 202.93935445 -15.37999196 201.59289976 -14.12426758 200.20068359 C-10.96643647 196.70968682 -8.37620849 194.04702168 -3.37817383 193.77099609 C1.40072289 194.59153798 5.74839738 196.78258964 10.10229492 198.84521484 C12.83794555 200.33035489 12.83794555 200.33035489 15.07885742 200.19287109 C16.98003951 205.87332609 17.454313 211.10069793 17.64135742 217.06787109 C17.70101243 218.77375033 17.76459473 220.47949837 17.83276367 222.18505859 C17.86865601 223.30436768 17.86865601 223.30436768 17.90527344 224.44628906 C17.89531711 226.22056712 17.89531711 226.22056712 19.07885742 227.19287109 C20.99344024 227.29258895 22.91168059 227.32367698 24.82885742 227.32568359 C25.99416992 227.32697266 27.15948242 227.32826172 28.36010742 227.32958984 C30.20088867 227.32378906 30.20088867 227.32378906 32.07885742 227.31787109 C33.30604492 227.32173828 34.53323242 227.32560547 35.79760742 227.32958984 C36.96291992 227.32830078 38.12823242 227.32701172 39.32885742 227.32568359 C40.40651367 227.32455566 41.48416992 227.32342773 42.59448242 227.32226562 C45.02105739 227.4737948 45.02105739 227.4737948 46.07885742 226.19287109 C46.21122745 224.86097909 46.28205369 223.52282462 46.32495117 222.18505859 C46.37425781 220.95142578 46.37425781 220.95142578 46.42456055 219.69287109 C46.48493517 217.96641365 46.54231226 216.23984832 46.59643555 214.51318359 C46.80513836 209.44131149 47.14162552 204.91872981 49.07885742 200.19287109 C50.99682617 198.95849609 50.99682617 198.95849609 53.26635742 198.44287109 C56.38314588 197.64624785 58.70199068 196.88677055 61.64135742 195.44287109 C65.75226115 193.94799701 68.95385365 193.86399787 73.07885742 195.19287109 C75.70222738 197.05527696 77.76039867 199.29458777 79.89135742 201.69287109 C80.99763723 202.89484984 82.10814661 204.09295319 83.22338867 205.28662109 C83.70138916 205.81964844 84.17938965 206.35267578 84.671875 206.90185547 C86.16527163 208.44856015 86.16527163 208.44856015 89.07885742 209.19287109 C90.88239661 208.1091557 90.88239661 208.1091557 92.64135742 206.38037109 C93.33487305 205.73970703 94.02838867 205.09904297 94.74291992 204.43896484 C95.5137793 203.69775391 96.28463867 202.95654297 97.07885742 202.19287109 C97.9734668 201.33822266 98.86807617 200.48357422 99.78979492 199.60302734 C104.87183361 195.02118092 104.87183361 195.02118092 108.07885742 189.19287109 C106.89068829 187.28862564 106.89068829 187.28862564 105.07885742 185.44287109 C104.4369043 184.73646484 103.79495117 184.03005859 103.13354492 183.30224609 C101.82534077 181.95922282 100.47888609 180.65172048 99.08666992 179.39599609 C95.59567314 176.23816498 92.933008 173.64793701 92.65698242 168.64990234 C93.47752431 163.87100562 95.66857597 159.52333114 97.73120117 155.16943359 C99.21634122 152.43378296 99.21634122 152.43378296 99.07885742 150.19287109 C101.9310909 149.2421266 103.89050827 149.03087068 106.86010742 148.94677734 C107.78436523 148.91390625 108.70862305 148.88103516 109.66088867 148.84716797 C111.60608232 148.78597379 113.55140264 148.72868143 115.49682617 148.67529297 C116.88321289 148.62405273 116.88321289 148.62405273 118.29760742 148.57177734 C119.56507813 148.53419312 119.56507813 148.53419312 120.8581543 148.49584961 C123.36345761 148.31884331 123.36345761 148.31884331 126.07885742 146.19287109 C126.07885742 143.22287109 126.07885742 140.25287109 126.07885742 137.19287109 C110.89885742 137.19287109 95.71885742 137.19287109 80.07885742 137.19287109 C77.60385742 145.60787109 77.60385742 145.60787109 75.07885742 154.19287109 C72.78182413 157.96656864 70.89128782 160.94775909 68.07885742 164.19287109 C66.93416992 165.52318359 66.93416992 165.52318359 65.76635742 166.88037109 C53.22287618 177.67359914 41.55825888 181.16745935 25.07885742 180.19287109 C12.16369132 178.06270733 1.21438657 171.98027453 -6.60864258 161.50537109 C-11.68985375 153.92912573 -13.72272881 145.98652618 -15.92114258 137.19287109 C-31.10114258 137.19287109 -46.28114258 137.19287109 -61.92114258 137.19287109 Z M-8.92114258 137.19287109 C-6.54305424 149.08331277 -2.87292747 158.74862255 7.07885742 166.19287109 C18.03622503 172.58363476 27.92961926 175.95665622 40.73120117 173.73193359 C51.58043289 170.81823787 61.29383893 164.62512697 67.02807617 154.88037109 C70.23394743 148.86164257 72.09455655 144.08297716 73.07885742 137.19287109 C46.01885742 137.19287109 18.95885742 137.19287109 -8.92114258 137.19287109 Z " fill="#000000" transform="translate(95.921142578125,10.80712890625)"/>
<path d="M0 0 C3.14169499 1.80424554 3.83532638 2.50597914 5 6 C5.37881434 11.19768513 5.69155985 16.36453582 3 21 C-0.01861764 22.50930882 -3.12991303 22.18438844 -6.4375 22.1875 C-7.11876953 22.19974609 -7.80003906 22.21199219 -8.50195312 22.22460938 C-12.22829809 22.23555848 -13.81991571 22.12005619 -17 20 C-18.64554002 15.06337995 -18.56180121 10.14637653 -18 5 C-14.4614697 -1.81494725 -6.81936604 -1.04511357 0 0 Z M-11 7 C-11 9.64 -11 12.28 -11 15 C-8.03 15 -5.06 15 -2 15 C-2 12.36 -2 9.72 -2 7 C-4.97 7 -7.94 7 -11 7 Z " fill="#000000" transform="translate(174,69)"/>
<path d="M0 0 C3.3125 1.6875 3.3125 1.6875 5 5 C6.47145133 15.76339398 6.47145133 15.76339398 3.4375 20.375 C0.02765066 22.64823289 -2.49758362 22.49710288 -6.5625 22.4375 C-7.23474609 22.44458984 -7.90699219 22.45167969 -8.59960938 22.45898438 C-11.31701901 22.42390362 -13.5158047 22.25674065 -15.9375 20.97265625 C-17.6516549 17.79012601 -17.47197333 14.52254719 -17.4375 11 C-17.45748047 10.27554688 -17.47746094 9.55109375 -17.49804688 8.8046875 C-17.49509855 5.60870106 -17.44853675 3.54341952 -15.375 1.03125 C-10.45515143 -1.10500004 -5.2293625 -0.65532517 0 0 Z M-10 7 C-10 9.64 -10 12.28 -10 15 C-7.36 15 -4.72 15 -2 15 C-2 12.36 -2 9.72 -2 7 C-4.64 7 -7.28 7 -10 7 Z " fill="#000000" transform="translate(203,69)"/>
<path d="M0 0 C1.08667969 -0.01063477 1.08667969 -0.01063477 2.1953125 -0.02148438 C7.42700772 0.04125736 7.42700772 0.04125736 9.9375 1.77734375 C12.65213384 6.01895913 12.34045137 10.59457923 12 15.4375 C10.91050088 19.37645836 10.47294006 20.12220663 7 22.4375 C1.26670987 23.15605219 -4.10521019 23.40277028 -9.3125 20.75 C-11.95975061 15.55354509 -11.87590622 10.1527881 -11 4.4375 C-8.80331889 -0.62152316 -4.90904732 -0.13539187 0 0 Z M-4 7.4375 C-4.07148199 8.78993917 -4.08399454 10.14584367 -4.0625 11.5 C-4.041875 12.799375 -4.02125 14.09875 -4 15.4375 C0.00254456 15.52931134 0.00254456 15.52931134 4 15.4375 C5.40432936 14.26031015 5.40432936 14.26031015 5.125 10.9375 C5.40432936 7.61468985 5.40432936 7.61468985 4 6.4375 C-0.3162525 5.89483887 -0.3162525 5.89483887 -4 7.4375 Z " fill="#000000" transform="translate(167,97.5625)"/>
<path d="M0 0 C1.32 0.66 2.64 1.32 4 2 C4 8.27 4 14.54 4 21 C2.35 21.33 0.7 21.66 -1 22 C-3.77074229 19.22925771 -3.28860048 17.30617575 -3.32226562 13.5234375 C-3.31904297 12.69070312 -3.31582031 11.85796875 -3.3125 11 C-3.32861328 10.16726562 -3.34472656 9.33453125 -3.36132812 8.4765625 C-3.36197266 7.67992188 -3.36261719 6.88328125 -3.36328125 6.0625 C-3.36626221 5.33160156 -3.36924316 4.60070312 -3.37231445 3.84765625 C-3 2 -3 2 0 0 Z " fill="#000000" transform="translate(44,84)"/>
<path d="M0 0 C1.32 0.66 2.64 1.32 4 2 C4.05379226 4.95857409 4.09357093 7.91617721 4.125 10.875 C4.14175781 11.71675781 4.15851562 12.55851562 4.17578125 13.42578125 C4.18222656 14.23144531 4.18867187 15.03710938 4.1953125 15.8671875 C4.20578613 16.61081543 4.21625977 17.35444336 4.22705078 18.12060547 C4 20 4 20 2 22 C-1.53571429 21.46428571 -1.53571429 21.46428571 -3 20 C-3.15327434 17.00820277 -3.23165249 14.05543676 -3.25 11.0625 C-3.270625 10.22525391 -3.29125 9.38800781 -3.3125 8.52539062 C-3.31765625 7.72423828 -3.3228125 6.92308594 -3.328125 6.09765625 C-3.3374707 5.36039307 -3.34681641 4.62312988 -3.35644531 3.86352539 C-3.23881836 3.24856201 -3.12119141 2.63359863 -3 2 C-2.01 1.34 -1.02 0.68 0 0 Z " fill="#000000" transform="translate(59,84)"/>
<path d="M0 0 C2.625 0.375 2.625 0.375 5 1 C5.02888514 4.14581423 5.04675923 7.29159469 5.0625 10.4375 C5.07087891 11.33533203 5.07925781 12.23316406 5.08789062 13.15820312 C5.09111328 14.01220703 5.09433594 14.86621094 5.09765625 15.74609375 C5.10289307 16.53685303 5.10812988 17.3276123 5.11352539 18.14233398 C5 20 5 20 4 21 C1.5 21.125 1.5 21.125 -1 21 C-3.15732833 18.84267167 -2.18520919 14.05201247 -2.1875 11.0625 C-2.19974609 10.22525391 -2.21199219 9.38800781 -2.22460938 8.52539062 C-2.22654297 7.72423828 -2.22847656 6.92308594 -2.23046875 6.09765625 C-2.23457764 5.36039307 -2.23868652 4.62312988 -2.24291992 3.86352539 C-2 2 -2 2 0 0 Z " fill="#000000" transform="translate(58,54)"/>
<path d="M0 0 C2.625 0.375 2.625 0.375 5 1 C5.02888514 4.14581423 5.04675923 7.29159469 5.0625 10.4375 C5.07087891 11.33533203 5.07925781 12.23316406 5.08789062 13.15820312 C5.09111328 14.01220703 5.09433594 14.86621094 5.09765625 15.74609375 C5.10289307 16.53685303 5.10812988 17.3276123 5.11352539 18.14233398 C5 20 5 20 4 21 C2.33382885 21.04063832 0.66611905 21.042721 -1 21 C-2.64176774 17.71646451 -2.18454039 14.10480362 -2.1875 10.5 C-2.19974609 9.71496094 -2.21199219 8.92992187 -2.22460938 8.12109375 C-2.22986254 6.07936274 -2.1222018 4.03807749 -2 2 C-1.34 1.34 -0.68 0.68 0 0 Z " fill="#000000" transform="translate(43,54)"/>
</svg>
