<?xml version="1.0" encoding="UTF-8"?>
<svg version="1.1" xmlns="http://www.w3.org/2000/svg" width="256" height="256">
<path d="M0 0 C2.41576767 -0.37752342 2.41576767 -0.37752342 5.51507568 -0.38095093 C6.68713562 -0.3894104 7.85919556 -0.39786987 9.06677246 -0.40658569 C11.00550232 -0.39747665 11.00550232 -0.39747665 12.98339844 -0.38818359 C14.3532554 -0.39224714 15.72310909 -0.39758779 17.09295654 -0.40411377 C20.8204761 -0.41782439 24.54774735 -0.41247209 28.27527142 -0.40297651 C32.17491524 -0.39539307 36.07453749 -0.40242243 39.97418213 -0.40713501 C46.52807436 -0.41259901 53.08186532 -0.40538683 59.63574219 -0.39111328 C67.20768371 -0.37481268 74.77938257 -0.38005372 82.35131812 -0.3965925 C88.85163183 -0.41022158 95.35187259 -0.41211927 101.85219598 -0.40427649 C105.73461139 -0.39960426 109.61691293 -0.39896212 113.49932098 -0.40888596 C117.15357513 -0.41757311 120.80751795 -0.41150208 124.46173859 -0.39420319 C126.4381925 -0.38836333 128.41467283 -0.39724093 130.39111328 -0.40658569 C132.16612213 -0.39389648 132.16612213 -0.39389648 133.97698975 -0.38095093 C135.00126949 -0.37981985 136.02554924 -0.37868877 137.08086777 -0.37752342 C142.56029042 0.33111539 146.31813575 2.83515954 149.8125 7 C150.39644531 7.680625 150.98039063 8.36125 151.58203125 9.0625 C154.26787885 12.73241849 154.13113749 16.01399632 154.14717102 20.41911316 C154.15084771 21.07348384 154.1545244 21.72785452 154.1583125 22.40205461 C154.16934254 24.59901764 154.17319203 26.79593335 154.17700195 28.99291992 C154.18326718 30.56657054 154.18991404 32.14021967 154.19691467 33.71386719 C154.21795256 38.88605723 154.22831763 44.05824757 154.23828125 49.23046875 C154.24232908 51.01178821 154.24644601 52.79310751 154.25063133 54.57442665 C154.26968336 62.94441034 154.28391368 71.31438522 154.2922433 79.68438643 C154.30201251 89.34123639 154.32832366 98.99785694 154.36874419 108.65462607 C154.39892375 116.12141843 154.41371397 123.58814511 154.41702431 131.05499727 C154.41937295 135.51320562 154.42830884 139.97116891 154.45348549 144.42931175 C154.47680312 148.62612251 154.48098473 152.82252749 154.47072411 157.01938629 C154.47022951 158.55603448 154.47652752 160.0927029 154.49028015 161.62928963 C154.55780469 169.62401019 154.57705732 176.16214423 150 183 C147.78125 185.05859375 147.78125 185.05859375 145.5 186.4375 C144.37078125 187.14712891 144.37078125 187.14712891 143.21875 187.87109375 C138.40182805 190.32195721 133.61692846 190.14835013 128.31015015 190.14717102 C126.98028546 190.15268605 126.98028546 190.15268605 125.62355483 190.1583125 C122.6466544 190.16934358 119.66978889 190.17319222 116.69287109 190.17700195 C114.5607492 190.18326707 112.4286284 190.18991391 110.29650879 190.19691467 C103.28882609 190.21795274 96.28114318 190.2283172 89.2734375 190.23828125 C86.8603578 190.24232898 84.44727822 190.2464459 82.03419876 190.25063133 C70.69659745 190.26968287 59.35900265 190.28391368 48.02138841 190.2922433 C34.93811484 190.30201432 21.85501052 190.32833062 8.77179658 190.36874419 C-1.34300779 190.39891518 -11.45776367 190.41371314 -21.57261217 190.41702431 C-27.61256759 190.41937377 -33.65234219 190.42832091 -39.6922493 190.45348549 C-45.37711494 190.47678803 -51.06168098 190.48099048 -56.74658203 190.47072411 C-58.82904431 190.47022916 -60.91152145 190.4765373 -62.99393845 190.49028015 C-85.95582857 190.63329438 -85.95582857 190.63329438 -93.25390625 183.9296875 C-93.90166016 182.91261719 -93.90166016 182.91261719 -94.5625 181.875 C-95.24505859 180.85019531 -95.24505859 180.85019531 -95.94140625 179.8046875 C-97.7677219 176.69118998 -98.12408743 174.89035614 -98.12025452 171.27975464 C-98.12162918 170.28413513 -98.12300385 169.28851563 -98.12442017 168.26272583 C-98.12082489 167.16652924 -98.11722961 166.07033264 -98.11352539 164.94091797 C-98.11367142 163.78970459 -98.11381744 162.63849121 -98.1139679 161.45239258 C-98.11326904 157.63230531 -98.1054779 153.81226629 -98.09765625 149.9921875 C-98.09579197 147.34945706 -98.09436812 144.70672627 -98.09336853 142.06399536 C-98.09025748 135.80959377 -98.08204714 129.55520961 -98.07201904 123.3008157 C-98.06085088 116.18119741 -98.05534568 109.06157829 -98.05032361 101.94195342 C-98.03986435 87.29462661 -98.02226928 72.64731355 -98 58 C-95.6875 56.875 -95.6875 56.875 -93 56 C-92.01 56.66 -91.02 57.32 -90 58 C-90 84.07 -90 110.14 -90 137 C-12.12 137 65.76 137 146 137 C157.75382111 68.38339002 157.75382111 68.38339002 140.6875 11.625 C136.38997183 9.02649459 132.2948867 8.87447045 127.34953308 8.84178162 C126.22357727 8.8319928 125.09762146 8.82220398 123.93754578 8.81211853 C122.71187393 8.80636307 121.48620209 8.8006076 120.22338867 8.79467773 C118.92543365 8.78477814 117.62747864 8.77487854 116.29019165 8.76467896 C112.73896762 8.73770228 109.1877304 8.71665367 105.63646102 8.69667697 C101.92219259 8.67477264 98.2079645 8.64740575 94.49372864 8.62062073 C87.46384773 8.57075388 80.43394438 8.52579282 73.40401965 8.48259836 C65.39919265 8.43317457 57.39440611 8.37827555 49.38961828 8.32291877 C32.92644952 8.20919098 16.46324362 8.10233199 0 8 C-1.125 5.6875 -1.125 5.6875 -2 3 C-1.34 2.01 -0.68 1.02 0 0 Z M-90 146 C-91.40331629 161.12793004 -91.40331629 161.12793004 -86.59765625 176.7421875 C-81.11721049 180.78628234 -77.14457858 181.14741311 -70.51737976 181.14044189 C-69.20293931 181.14489858 -69.20293931 181.14489858 -67.8619445 181.1494453 C-64.91405694 181.15814418 -61.96620994 181.15964155 -59.01831055 181.16113281 C-56.9094026 181.16576013 -54.80049549 181.17078467 -52.69158936 181.17617798 C-46.95394414 181.18931196 -41.21631062 181.19574884 -35.47865272 181.20018864 C-31.89572285 181.20311764 -28.31279619 181.20722211 -24.72986794 181.21169281 C-13.52468559 181.22537012 -2.31951057 181.23503574 8.88567954 181.2388947 C21.82974156 181.24337674 34.77369804 181.26093048 47.71772796 181.2898953 C57.71695241 181.31149552 67.71614714 181.32159809 77.71539468 181.32293582 C83.69036836 181.323985 89.66524287 181.3299169 95.64019203 181.34775543 C101.26015544 181.36420745 106.87994483 181.36640552 112.49992371 181.35761642 C114.56309665 181.35684452 116.62627883 181.36120884 118.68942833 181.37107468 C121.50530347 181.38375073 124.32055824 181.37794092 127.13642883 181.36749268 C127.95345931 181.37554908 128.77048978 181.38360548 129.61227876 181.39190602 C134.47732977 181.34966779 137.76523277 180.65080687 142 178 C150.04809612 169.11934222 146 158.40446604 146 146 C68.12 146 -9.76 146 -90 146 Z " fill="#000000" transform="translate(102,32)"/>
<path d="M0 0 C4.1789429 0.18291669 6.18037203 0.39719294 9.8125 2.5625 C12.09834382 6.56272669 12.45341294 10.07309463 12.5625 14.625 C15.4910126 14.20664106 17.3577186 13.7672093 19.8125 12.0625 C23.7918347 9.98239322 27.17686412 9.60143592 31.5625 10.625 C34.69229578 12.46168089 36.71712249 14.5016126 38.5625 17.625 C39.7999482 22.44765771 39.02025749 26.29469728 36.5625 30.5625 C35.9025 31.573125 35.2425 32.58375 34.5625 33.625 C34.5625 34.285 34.5625 34.945 34.5625 35.625 C35.23796875 35.72296875 35.9134375 35.8209375 36.609375 35.921875 C37.50140625 36.07140625 38.3934375 36.2209375 39.3125 36.375 C40.19421875 36.51421875 41.0759375 36.6534375 41.984375 36.796875 C45.21422201 37.83434101 46.55417981 38.89055947 48.5625 41.625 C49.62411843 47.35773951 49.63680302 52.82294332 46.625 57.875 C42.62477331 60.16084382 39.11440537 60.51591294 34.5625 60.625 C35.06548788 65.02614397 36.65022731 67.33695019 39.5625 70.625 C39.94921875 70.14289063 40.3359375 69.66078125 40.734375 69.1640625 C41.25515625 68.53242187 41.7759375 67.90078125 42.3125 67.25 C42.82296875 66.62351562 43.3334375 65.99703125 43.859375 65.3515625 C45.69404274 63.49164704 47.12408043 62.54524647 49.5625 61.625 C54.40268705 61.70306753 57.17105592 61.92999761 60.75 65.25 C61.678125 66.03375 62.60625 66.8175 63.5625 67.625 C66.20376653 67.34192217 66.20376653 67.34192217 68.5625 66.625 C68.72105469 65.80515625 68.87960938 64.9853125 69.04296875 64.140625 C70.8993984 55.56617647 70.8993984 55.56617647 73.5 51.875 C78.38089197 49.88279919 83.37336454 49.85905048 88.5625 50.625 C93.17796015 52.91663712 93.17796015 52.91663712 94.75 55.8125 C95.78587025 59.39820473 96.7007017 62.99313575 97.5625 66.625 C99.38912818 67.35077349 99.38912818 67.35077349 101.5625 67.625 C103.34154387 66.69761773 103.34154387 66.69761773 104.9375 65.25 C108.13331646 62.79850831 110.42986317 61.71483993 114.5625 61.625 C119.31787505 62.69495939 122.84576025 65.65176812 125.5625 69.625 C126.78501023 72.75180501 127.09927965 75.30672579 126.5625 78.625 C124.90759509 81.92481039 122.89199662 84.76883458 120.5625 87.625 C121.13881328 89.64748991 121.13881328 89.64748991 122.5625 91.625 C125.32626973 92.61774899 125.32626973 92.61774899 128.5 93.125 C134.02829915 94.14602244 134.02829915 94.14602244 136.4140625 96.28515625 C137.97756513 99.47065991 137.99622401 102.02439431 138 105.5625 C138.01933594 106.76777344 138.03867188 107.97304687 138.05859375 109.21484375 C137.46733278 113.27918094 136.59662806 114.87673194 133.5625 117.625 C130.546875 118.55078125 130.546875 118.55078125 127.3125 118.9375 C126.23484375 119.07800781 125.1571875 119.21851562 124.046875 119.36328125 C123.22703125 119.44964844 122.4071875 119.53601563 121.5625 119.625 C121.22807324 123.72380272 121.22807324 123.72380272 122.69140625 127.42578125 C123.16449219 127.92464844 123.63757813 128.42351562 124.125 128.9375 C126.29461249 131.75364457 126.97629904 133.55175431 126.8125 137.125 C125.98955319 141.61659753 123.99568556 144.32427142 120.58203125 147.29296875 C117.24690344 149.4927339 114.53635082 150.41977016 110.5625 149.625 C108.11621096 148.24376197 105.9295819 146.68155799 103.68359375 144.99609375 C100.90047999 143.19706442 98.80033471 143.12687158 95.5625 143.625 C95.54832031 144.36105469 95.53414062 145.09710938 95.51953125 145.85546875 C95.12622638 153.90227388 95.12622638 153.90227388 92.125 157.75 C87.36175214 161.23530331 83.345446 161.12667513 77.5625 160.625 C73.33013505 158.91404395 71.37602788 156.79611412 69.5625 152.625 C69.04454285 149.63291742 68.75389452 146.65431329 68.5625 143.625 C64.48132705 143.95149384 62.01620449 144.30644153 58.625 146.6875 C55.25263924 148.82103436 53.42205982 149.28705578 49.51953125 149.078125 C45.01793488 148.03583921 42.3889003 144.6993204 39.6875 141.1875 C38.21618698 137.83617589 37.94215744 136.27812841 38.5625 132.625 C40.04276639 129.98644606 41.63470182 127.48587627 43.34765625 124.9921875 C44.79984107 122.71938758 44.79984107 122.71938758 44.24609375 120.3203125 C44.02050781 119.76085937 43.79492188 119.20140625 43.5625 118.625 C42.56669922 118.60373047 42.56669922 118.60373047 41.55078125 118.58203125 C40.66777344 118.53433594 39.78476563 118.48664063 38.875 118.4375 C37.56982422 118.38529297 37.56982422 118.38529297 36.23828125 118.33203125 C32.42300179 117.32390631 30.92515689 115.75845276 28.5625 112.625 C27.93359375 108.99609375 27.93359375 108.99609375 28 105.0625 C27.99871094 103.76183594 27.99742188 102.46117188 27.99609375 101.12109375 C28.5625 97.625 28.5625 97.625 30.20703125 95.23828125 C33.10619434 93.25261896 35.34026901 92.82789969 38.8125 92.375 C39.89015625 92.22546875 40.9678125 92.0759375 42.078125 91.921875 C42.89796875 91.82390625 43.7178125 91.7259375 44.5625 91.625 C44.19368644 85.47810727 42.66199571 82.93472626 38.5625 78.625 C38.15257813 79.11871094 37.74265625 79.61242187 37.3203125 80.12109375 C36.51207031 81.08208984 36.51207031 81.08208984 35.6875 82.0625 C34.88699219 83.01962891 34.88699219 83.01962891 34.0703125 83.99609375 C31.80962143 86.43834291 30.68834347 86.61289967 27.3125 86.9375 C22.92761618 86.57209301 21.09142134 85.13445517 17.5625 82.625 C16.2425 82.625 14.9225 82.625 13.5625 82.625 C13.46453125 83.22828125 13.3665625 83.8315625 13.265625 84.453125 C12.35557967 89.31716041 11.70800477 92.51587142 7.5625 95.625 C3.60719929 97.60265036 -1.12572199 97.04307399 -5.4375 96.625 C-8.95382788 95.01334972 -10.01875404 93.71544866 -11.39453125 90.1328125 C-12.16660347 87.64384908 -12.84211735 85.16142689 -13.4375 82.625 C-16.01717595 83.18438236 -17.52063224 83.68117043 -19.75 85.1875 C-23.35786728 87.11728948 -25.38952521 87.25313402 -29.4375 86.625 C-32.70528393 84.50483067 -35.67826697 82.14346605 -37.4375 78.625 C-37.9630426 72.31848881 -37.2333672 69.8443174 -33.4375 64.625 C-33.4375 63.305 -33.4375 61.985 -33.4375 60.625 C-34.02917969 60.59921875 -34.62085938 60.5734375 -35.23046875 60.546875 C-36.41576172 60.46179687 -36.41576172 60.46179687 -37.625 60.375 C-38.40230469 60.32859375 -39.17960937 60.2821875 -39.98046875 60.234375 C-43.37518756 59.39244156 -45.04725201 58.17793502 -47.4375 55.625 C-48.1015625 52.3125 -48.1015625 52.3125 -48.0625 48.625 C-48.07539062 47.408125 -48.08828125 46.19125 -48.1015625 44.9375 C-47.4375 41.625 -47.4375 41.625 -45.19921875 39.234375 C-42.43589618 37.62406538 -40.77878144 37.06328546 -37.625 36.875 C-36.83480469 36.81828125 -36.04460938 36.7615625 -35.23046875 36.703125 C-34.63878906 36.67734375 -34.04710937 36.6515625 -33.4375 36.625 C-33.84265649 32.36706327 -33.84265649 32.36706327 -36 28.8125 C-37.96118618 25.82808624 -38.10715266 23.48511774 -37.97265625 19.953125 C-37.13547926 16.31109953 -35.35127639 14.30348957 -32.5703125 11.8828125 C-28.87409716 9.70299319 -25.55944025 9.63964567 -21.4375 10.625 C-18.125 12.625 -18.125 12.625 -15.4375 14.625 C-14.1175 14.625 -12.7975 14.625 -11.4375 14.625 C-11.39882812 13.73748047 -11.39882812 13.73748047 -11.359375 12.83203125 C-11.27429687 11.64673828 -11.27429687 11.64673828 -11.1875 10.4375 C-11.14109375 9.66019531 -11.0946875 8.88289062 -11.046875 8.08203125 C-9.48436176 1.78189773 -6.23674389 -0.07210109 0 0 Z M-1.4375 8.625 C-2.67003164 11.53025316 -3.54441881 14.14177425 -4.1875 17.25 C-5.4375 20.625 -5.4375 20.625 -8.0625 22.5625 C-12.32479655 23.9043341 -14.97223955 24.12114005 -19.4375 23.625 C-22.4375 21.625 -22.4375 21.625 -24.4375 19.625 C-26.4175 20.615 -26.4175 20.615 -28.4375 21.625 C-28.004375 22.49125 -28.004375 22.49125 -27.5625 23.375 C-27.19125 24.1175 -26.82 24.86 -26.4375 25.625 C-26.06625 26.223125 -25.695 26.82125 -25.3125 27.4375 C-23.62462384 31.65719041 -24.16722186 35.47631791 -25.1875 39.8125 C-28.80683722 44.33667153 -33.97797662 45.18605585 -39.4375 46.625 C-39.4375 47.945 -39.4375 49.265 -39.4375 50.625 C-38.68984375 50.77195313 -37.9421875 50.91890625 -37.171875 51.0703125 C-29.19243782 52.88761887 -29.19243782 52.88761887 -25.75 56.25 C-23.82101287 61.21025262 -23.21582862 65.74985959 -25.34375 70.7578125 C-26.29169116 72.43025155 -27.35558725 74.03594065 -28.4375 75.625 C-27.4475 76.285 -26.4575 76.945 -25.4375 77.625 C-24.2309375 76.635 -24.2309375 76.635 -23 75.625 C-18.97980499 72.94804551 -15.12266276 72.90753043 -10.4375 73.625 C-7.51881794 74.86699237 -6.02169306 75.76408392 -4.25 78.375 C-3.15127025 81.41763624 -2.2782226 84.50231606 -1.4375 87.625 C-0.1175 87.625 1.2025 87.625 2.5625 87.625 C2.73265625 86.93792969 2.9028125 86.25085938 3.078125 85.54296875 C3.32046875 84.64191406 3.5628125 83.74085937 3.8125 82.8125 C4.16054687 81.47251953 4.16054687 81.47251953 4.515625 80.10546875 C5.74337356 77.19643765 6.87703836 76.22517169 9.5625 74.625 C13.18180698 73.41856434 15.75481005 73.30231441 19.5625 73.625 C23 75.625 23 75.625 25.5625 77.625 C26.8825 76.965 28.2025 76.305 29.5625 75.625 C28.5725 74.1709375 28.5725 74.1709375 27.5625 72.6875 C25.08345128 68.33813694 24.85290769 64.52763775 25.5625 59.625 C26.4375 56.75 26.4375 56.75 28.5625 54.625 C31.83256659 53.32434549 35.13643843 52.41562959 38.5625 51.625 C38.94468767 49.96885343 39.27645102 48.30042976 39.5625 46.625 C37.5511803 44.6136803 33.7390306 44.82008687 31.0078125 44.41796875 C27.97811845 43.43549608 27.1559826 42.33592481 25.5625 39.625 C24.08690791 35.19822373 23.59085529 30.88227068 25.45703125 26.546875 C26.42427054 24.86531412 27.48643897 23.23909154 28.5625 21.625 C27.2425 20.965 25.9225 20.305 24.5625 19.625 C23.716875 20.285 22.87125 20.945 22 21.625 C18.0359284 23.93136893 16.0727277 24.19902898 11.5625 23.625 C8.75 22.125 8.75 22.125 6.5625 20.625 C5.9025 20.625 5.2425 20.625 4.5625 20.625 C3.5725 16.665 2.5825 12.705 1.5625 8.625 C0.5725 8.625 -0.4175 8.625 -1.4375 8.625 Z M79.5625 60.625 C79.376875 61.96304688 79.376875 61.96304688 79.1875 63.328125 C77.54883312 72.62755952 77.54883312 72.62755952 74.828125 75.37890625 C70.54388625 77.62896187 66.36197052 78.4103679 61.5625 77.625 C58.97394113 76.15814997 56.88371527 74.51986961 54.5625 72.625 C52.5825 73.615 52.5825 73.615 50.5625 74.625 C50.17038553 78.65257055 50.17038553 78.65257055 52.5625 81.375 C55.0221894 85.37199528 55.33667603 88.05280743 54.5625 92.625 C53.21309348 95.93717963 52.0832227 98.1042773 49.5625 100.625 C46.9609375 101.2578125 46.9609375 101.2578125 43.9375 101.75 C42.43316406 102.00136719 42.43316406 102.00136719 40.8984375 102.2578125 C40.12757812 102.37898438 39.35671875 102.50015625 38.5625 102.625 C38.5625 104.935 38.5625 107.245 38.5625 109.625 C39.31015625 109.71136719 40.0578125 109.79773438 40.828125 109.88671875 C48.93488937 111.0433121 48.93488937 111.0433121 52.125 114 C52.8365625 115.299375 52.8365625 115.299375 53.5625 116.625 C54.18125 117.5840625 54.18125 117.5840625 54.8125 118.5625 C55.92975679 121.63495617 56.05036344 123.33192181 55.5625 126.625 C53.77251687 130.10089748 51.72419093 133.36959639 49.5625 136.625 C50.5525 137.615 51.5425 138.605 52.5625 139.625 C56.12403326 138.42308448 56.12403326 138.42308448 58.9609375 136.0703125 C61.53561456 133.74682345 63.95264241 134.27644693 67.2734375 134.40625 C70.36631452 134.70181504 72.78626235 135.20302462 75.5625 136.625 C78.24633043 140.91912869 78.66064195 146.68396917 79.5625 151.625 C81.2125 151.625 82.8625 151.625 84.5625 151.625 C85.66442955 148.3979206 86.64015015 145.27258776 87.375 141.9375 C88.5625 138.625 88.5625 138.625 91.0625 136.75 C92.3 136.193125 92.3 136.193125 93.5625 135.625 C94.2225 135.295 94.8825 134.965 95.5625 134.625 C99.39650347 134.08823951 103.05943214 133.75303771 106.48828125 135.7421875 C108.125 137.125 108.125 137.125 110.5625 139.625 C112.56233534 138.83382096 112.56233534 138.83382096 114.5625 137.625 C115.0575 136.14 115.0575 136.14 115.5625 134.625 C114.53554611 132.52796497 114.53554611 132.52796497 113.0625 130.375 C111.14066637 127.0811907 110.5625 125.86512223 110.5625 121.9375 C113.12601792 113.44584691 113.12601792 113.44584691 116.75 111.375 C120.34659382 110.41590831 123.9404194 109.48447675 127.5625 108.625 C127.5625 106.645 127.5625 104.665 127.5625 102.625 C126.73105469 102.44324219 125.89960938 102.26148438 125.04296875 102.07421875 C123.95628906 101.82285156 122.86960937 101.57148437 121.75 101.3125 C120.67105469 101.06886719 119.59210938 100.82523438 118.48046875 100.57421875 C114.61573638 99.31701665 113.2371234 97.90323381 111.375 94.375 C110.30725448 90.7610921 110.05964386 88.39642105 110.5625 84.625 C112.31540255 81.43002937 114.35580484 78.5212874 116.5625 75.625 C115.5725 74.635 114.5825 73.645 113.5625 72.625 C110.91344963 73.58160152 108.86280064 74.35576494 106.75 76.25 C103.46642456 78.31396171 100.28075576 78.14799166 96.5625 77.625 C93.08786095 76.37937468 91.1568952 75.3467656 88.8125 72.5 C87.13670733 68.64567687 86.32560179 64.74574968 85.5625 60.625 C83.5825 60.625 81.6025 60.625 79.5625 60.625 Z " fill="#000000" transform="translate(47.4375,-0.625)"/>
<path d="M0 0 C2.375 0.75 2.375 0.75 3.375 1.75 C3.375 7.36 3.375 12.97 3.375 18.75 C22.185 18.75 40.995 18.75 60.375 18.75 C60.375 13.47 60.375 8.19 60.375 2.75 C61.365 1.76 62.355 0.77 63.375 -0.25 C67.79605263 0.17105263 67.79605263 0.17105263 69.375 1.75 C69.44830331 4.61469325 69.46717831 7.44893674 69.4375 10.3125 C69.416875 13.096875 69.39625 15.88125 69.375 18.75 C75.315 18.75 81.255 18.75 87.375 18.75 C87.87 21.72 87.87 21.72 88.375 24.75 C86.375 26.75 86.375 26.75 84.42661095 26.99609566 C83.62465105 26.99425207 82.82269115 26.99240849 81.99642944 26.99050903 C80.61659126 26.99463303 80.61659126 26.99463303 79.20887756 26.99884033 C78.19683762 26.99164978 77.18479767 26.98445923 76.14208984 26.97705078 C74.54694298 26.97748886 74.54694298 26.97748886 72.91957092 26.97793579 C69.39161116 26.97653835 65.86386053 26.96095756 62.3359375 26.9453125 C59.89499019 26.94158385 57.45404138 26.93873618 55.01309204 26.93673706 C48.5784901 26.92908899 42.14397799 26.90943041 35.70941162 26.8873291 C29.14743261 26.86689594 22.58543913 26.85774076 16.0234375 26.84765625 C3.1405866 26.82618564 -9.74220193 26.79241826 -22.625 26.75 C-23.25 23.875 -23.25 23.875 -23.625 20.75 C-21.625 18.75 -21.625 18.75 -17.9296875 18.5546875 C-16.45299892 18.567991 -14.97637642 18.59185165 -13.5 18.625 C-12.74589844 18.63402344 -11.99179688 18.64304688 -11.21484375 18.65234375 C-9.35142746 18.6759313 -7.48817407 18.71180281 -5.625 18.75 C-5.67720703 17.06970703 -5.67720703 17.06970703 -5.73046875 15.35546875 C-5.75860839 13.88282749 -5.78590837 12.41017002 -5.8125 10.9375 C-5.83763672 10.19951172 -5.86277344 9.46152344 -5.88867188 8.70117188 C-5.96256362 3.2578131 -5.96256362 3.2578131 -4.27734375 0.72265625 C-2.625 -0.25 -2.625 -0.25 0 0 Z " fill="#000000" transform="translate(97.625,229.25)"/>
<path d="M0 0 C4.89412731 2.97218461 8.28658742 7.06582996 10.875 12.125 C12.25765768 19.45308573 12.7937643 27.00456348 8.8984375 33.62109375 C4.91002494 38.80157375 0.06875593 43.25512393 -6.5 44.4375 C-13.90795824 45.11322592 -20.43141703 44.59923014 -26.4453125 39.92578125 C-32.14593557 34.61871584 -34.60970982 29.45081844 -35 21.625 C-34.78404245 14.43541339 -32.76374785 8.55520466 -27.4921875 3.51953125 C-19.82986533 -2.4321987 -9.09998071 -4.13474852 0 0 Z M-24.5 14.4375 C-25.74199848 18.16349543 -26.03508555 21.56729217 -25.5 25.4375 C-23.47306628 29.27419597 -21.39928574 32.43516408 -17.5 34.4375 C-13.02894258 35.54030384 -9.5817654 35.80489202 -5.1875 34.3125 C-1.70859338 31.88535585 0.6037926 29.2299148 2.5 25.4375 C2.85031691 20.09516707 2.99335294 16.74596863 -0.5 12.4375 C-3.95578297 8.64456748 -6.21012637 7.07625393 -11.375 6.6875 C-17.26435844 6.96370289 -20.85114859 9.98837831 -24.5 14.4375 Z " fill="#000000" transform="translate(141.5,83.5625)"/>
<path d="M0 0 C4.32972433 3.97451413 7.63987351 8.21940793 8.40625 14.13671875 C8.59483367 21.2793252 8.39348503 26.5198922 3.81640625 32.22265625 C-1.20275402 37.13387759 -5.64146813 38.23093364 -12.625 38.4375 C-19.12355354 38.2123769 -22.74438416 36.94087875 -27.6875 32.6875 C-32.60774238 26.96938048 -33.55927477 22.39770608 -33.34765625 14.97265625 C-32.67188826 9.19446027 -30.41724377 5.02190553 -26.125 1.125 C-18.29078631 -4.20226531 -8.28956569 -4.99119113 0 0 Z M-22.3125 11.1875 C-24.51573029 14.85955049 -25.01009397 17.88969453 -24 22 C-22.11470713 25.58480871 -19.86069364 28.23316868 -16.06640625 29.796875 C-12.25588587 30.5396665 -9.56500724 30.10044555 -6.125 28.3125 C-2.52098075 25.79667406 -2.52098075 25.79667406 -1 22 C-0.34210354 16.9835395 -0.40472706 14.15027894 -3.5 10.0625 C-5.86808266 7.61604108 -7.70160331 6.46809942 -11.0625 5.875 C-16.49184089 6.04736003 -18.46858747 7.55136652 -22.3125 11.1875 Z " fill="#000000" transform="translate(60,30)"/>
<path d="M0 0 C3 2.5 3 2.5 5 5 C5.33 5.33 5.66 5.66 6 6 C6.52248736 11.10495843 6.83350333 15.54136917 4.25 20.0625 C0.22426086 23.5291087 -2.49727499 24.45692243 -7.96875 24.32421875 C-11.31551204 23.79002404 -13.44251471 22.13123774 -16 20 C-18.97307695 15.54038458 -18.62015709 11.22922586 -18 6 C-16.24166367 2.80894518 -14.85125522 1.53507471 -11.8125 -0.375 C-7.71092832 -1.28646037 -4.04690489 -1.16568456 0 0 Z M-8 8 C-8.33 9.65 -8.66 11.3 -9 13 C-7.02 13.99 -7.02 13.99 -5 15 C-4.34 14.34 -3.68 13.68 -3 13 C-3.32041397 10.39719432 -3.32041397 10.39719432 -4 8 C-5.32 8 -6.64 8 -8 8 Z " fill="#000000" transform="translate(136,184)"/>
</svg>
