<?xml version="1.0" encoding="UTF-8"?>
<svg version="1.1" xmlns="http://www.w3.org/2000/svg" width="256" height="256">
<path d="M0 0 C0.84706512 -0.00807175 1.69413025 -0.01614349 2.56686401 -0.02445984 C4.37088979 -0.03831852 6.17494199 -0.04903266 7.97900391 -0.05688477 C9.79614117 -0.06828402 11.61324827 -0.08853864 13.43017578 -0.1184082 C28.64682541 -0.36843393 42.5363965 1.05201808 56.3671875 7.92578125 C57.06255615 8.26029297 57.7579248 8.59480469 58.47436523 8.93945312 C65.13264121 12.26514599 70.9055479 16.48408412 76.6171875 21.23828125 C77.19984375 20.91988281 77.7825 20.60148437 78.3828125 20.2734375 C81.83694684 18.67318296 84.95587898 18.36991017 88.6171875 19.23828125 C90.47021484 20.51904297 90.47021484 20.51904297 92.328125 22.23046875 C93.36743164 23.18312622 93.36743164 23.18312622 94.42773438 24.1550293 C98.1582709 27.70461317 101.84934471 31.28613393 105.4921875 34.92578125 C106.62914062 36.04436523 106.62914062 36.04436523 107.7890625 37.18554688 C108.87574219 38.26932617 108.87574219 38.26932617 109.984375 39.375 C110.96059814 40.34505981 110.96059814 40.34505981 111.95654297 41.3347168 C113.636511 43.2604314 114.70844491 44.85334727 115.6171875 47.23828125 C115.08478986 53.20113477 115.08478986 53.20113477 113.79296875 56.06640625 C113.5034584 59.64346747 115.99031077 61.82940456 118.1171875 64.48828125 C126.15180681 75.12860852 131.18945556 87.1098539 133.6171875 100.23828125 C133.8028125 101.23085937 133.9884375 102.2234375 134.1796875 103.24609375 C134.96384805 108.97451908 134.76102928 114.78205616 134.7421875 120.55078125 C134.74605469 121.72318359 134.74992188 122.89558594 134.75390625 124.10351562 C134.74634145 130.87779329 134.46179425 137.51509611 133.6171875 144.23828125 C130.7421875 144.86328125 130.7421875 144.86328125 127.6171875 145.23828125 C124.98260375 142.6036975 124.31078569 139.68204723 123.2265625 136.2109375 C122.75937781 134.76358688 122.29192057 133.31632422 121.82421875 131.86914062 C121.09852929 129.59984009 120.37626426 127.3295619 119.65966797 125.05737305 C115.34596723 111.43129473 110.10039452 100.1335099 100.6171875 89.23828125 C99.9159375 88.36042969 99.2146875 87.48257813 98.4921875 86.578125 C94.47298033 81.77510023 94.47298033 81.77510023 88.7421875 79.9375 C85.82812563 80.18509497 85.82812563 80.18509497 83.09765625 80.80078125 C80.53832565 81.25219074 79.05339609 81.05602959 76.6171875 80.23828125 C75.9365625 80.97949219 75.2559375 81.72070312 74.5546875 82.484375 C66.64829697 91.07960616 58.65388813 99.58957745 50.64306641 108.08740234 C42.03421424 117.22743459 33.45904934 126.39918261 24.8972168 135.58325195 C21.8453354 138.8557409 18.78803094 142.12295555 15.72265625 145.3828125 C15.07369385 146.07342773 14.42473145 146.76404297 13.75610352 147.47558594 C12.46750084 148.84592533 11.17764802 150.21509036 9.88647461 151.58300781 C7.18581174 154.45319512 4.50810076 157.32686958 1.953125 160.328125 C-2.9811833 166.10177441 -7.09161434 170.44248505 -14.82421875 171.60546875 C-20.80575041 171.91596047 -25.49323889 170.73568459 -30.3828125 167.23828125 C-35.94971759 161.37838115 -36.97257563 156.51400343 -36.8125 148.5546875 C-35.7263793 140.17181047 -29.57077956 135.19342527 -23.46484375 129.9296875 C-19.61708071 126.61123276 -15.94757785 123.10517275 -12.2578125 119.61328125 C-10.77746811 118.21601407 -9.29699817 116.81887989 -7.81640625 115.421875 C-6.70821533 114.37555908 -6.70821533 114.37555908 -5.57763672 113.30810547 C-2.16529633 110.09010526 1.25674354 106.88249482 4.6796875 103.67578125 C5.66207397 102.75526978 5.66207397 102.75526978 6.66430664 101.81616211 C7.98580147 100.57792129 9.3073346 99.33972134 10.62890625 98.1015625 C12.63598917 96.22066161 14.6423286 94.33897093 16.6484375 92.45703125 C20.63655384 88.71588099 24.62632786 84.97650487 28.6171875 81.23828125 C29.27138672 80.62533203 29.92558594 80.01238281 30.59960938 79.38085938 C38.54861957 71.93604805 46.53110647 64.53424626 54.6171875 57.23828125 C54.2871875 56.57828125 53.9571875 55.91828125 53.6171875 55.23828125 C53.5219176 53.76159788 53.48732791 52.28052668 53.4921875 50.80078125 C53.48960938 50.01832031 53.48703125 49.23585937 53.484375 48.4296875 C53.6171875 46.23828125 53.6171875 46.23828125 54.6171875 43.23828125 C40.86043003 28.45319474 27.74712563 20.5585965 8.6171875 14.23828125 C6.89059253 13.66155554 5.16403005 13.08473255 3.4375 12.5078125 C1.00765814 11.69700022 -1.4229852 10.89070311 -3.86035156 10.1027832 C-9.27945912 8.34163463 -9.27945912 8.34163463 -10.3828125 7.23828125 C-10.42362033 5.23869761 -10.42535606 3.23782871 -10.3828125 1.23828125 C-7.13725199 -0.38449901 -3.56820271 0.0323636 0 0 Z M19.6171875 8.23828125 C22.32215651 10.04159393 25.02938768 11.41349955 27.96044922 12.80029297 C40.78824643 18.92856447 50.85896179 26.89715268 60.6171875 37.23828125 C63.58528819 35.90908833 65.62282539 34.45965982 67.8671875 32.11328125 C68.7746875 31.16453125 69.6821875 30.21578125 70.6171875 29.23828125 C69.11503802 25.00929991 66.07458746 23.15131703 62.4296875 20.86328125 C61.81327393 20.47261475 61.19686035 20.08194824 60.56176758 19.67944336 C47.80556655 11.85977796 34.59693848 7.73428963 19.6171875 8.23828125 Z M74.01196289 36.41796875 C72.43754042 37.9804877 70.84546516 39.52339196 69.25195312 41.06640625 C68.25406243 42.05483405 67.25727929 43.04438152 66.26171875 44.03515625 C65.34753174 44.93588867 64.43334473 45.83662109 63.49145508 46.76464844 C61.43081187 48.99081081 61.43081187 48.99081081 61.54736328 51.265625 C63.01938706 53.97989979 64.88529647 55.8409542 67.08984375 58.00390625 C67.98896484 58.89335938 68.88808594 59.7828125 69.81445312 60.69921875 C70.75998047 61.61960938 71.70550781 62.54 72.6796875 63.48828125 C73.63935723 64.43289798 74.59834979 65.3782032 75.55664062 66.32421875 C77.90357578 68.63577297 80.25722141 70.94004465 82.6171875 73.23828125 C86.38322619 71.67545143 88.75357901 69.33193375 91.6015625 66.44921875 C92.06201965 65.9859317 92.52247681 65.52264465 92.99688721 65.0453186 C94.45843828 63.57262227 95.91285918 62.09310722 97.3671875 60.61328125 C98.36021361 59.61021803 99.35369839 58.60760868 100.34765625 57.60546875 C102.77616691 55.1549729 105.19833425 52.69831455 107.6171875 50.23828125 C103.10266792 44.83647401 98.34182909 39.77997837 93.3671875 34.80078125 C92.64789063 34.06923828 91.92859375 33.33769531 91.1875 32.58398438 C90.49914062 31.89369141 89.81078125 31.20339844 89.1015625 30.4921875 C88.47991211 29.86642822 87.85826172 29.24066895 87.21777344 28.59594727 C82.581973 24.66371934 77.32596356 33.11589454 74.01196289 36.41796875 Z M56.5546875 66.73828125 C55.65878906 67.56070313 54.76289062 68.383125 53.83984375 69.23046875 C47.80522969 74.84949689 41.80748189 80.5077394 35.81201172 86.16845703 C32.39967133 89.38645724 28.97763146 92.59406768 25.5546875 95.80078125 C24.89976318 96.41445557 24.24483887 97.02812988 23.57006836 97.66040039 C22.24857353 98.89864121 20.9270404 100.13684116 19.60546875 101.375 C17.59838583 103.25590089 15.5920464 105.13759157 13.5859375 107.01953125 C7.06069245 113.14055059 0.53165409 119.25745501 -6.0078125 125.36328125 C-6.61520264 125.93087158 -7.22259277 126.49846191 -7.84838867 127.08325195 C-11.02098464 130.04521563 -14.20291219 132.99637082 -17.3984375 135.93359375 C-18.04603027 136.53026855 -18.69362305 137.12694336 -19.36083984 137.74169922 C-20.59847618 138.88121664 -21.83828891 140.0183761 -23.08056641 141.15283203 C-27.00232052 144.5325503 -27.00232052 144.5325503 -28.62109375 149.2265625 C-28.75081805 153.28898143 -28.75713996 155.60994586 -26.6328125 159.17578125 C-23.52965106 162.0203459 -21.69307324 163.06737767 -17.5078125 163.61328125 C-10.42662575 162.76353884 -5.93823545 156.93290226 -1.3828125 151.92578125 C-0.73054688 151.219375 -0.07828125 150.51296875 0.59375 149.78515625 C1.94631075 148.32031729 3.29656224 146.8533428 4.64453125 145.38427734 C7.61646476 142.15119621 10.61735756 138.94545301 13.6171875 135.73828125 C14.77484907 134.49749798 15.93240044 133.25661187 17.08984375 132.015625 C23.88361419 124.73672061 30.70038735 117.47932169 37.51269531 110.21777344 C41.26124327 106.22177106 45.00861243 102.22466945 48.75439453 98.22607422 C50.01009996 96.88610651 51.26629547 95.54659792 52.52294922 94.20751953 C62.24265879 83.87897017 62.24265879 83.87897017 71.6171875 73.23828125 C70.68128246 72.13276235 69.74338892 71.02892672 68.8046875 69.92578125 C68.28261719 69.31089844 67.76054688 68.69601563 67.22265625 68.0625 C65.01710845 65.55423558 65.01710845 65.55423558 62.6171875 63.23828125 C59.6526846 63.23828125 58.72442784 64.74345995 56.5546875 66.73828125 Z M103.55078125 65.20703125 C102.72707031 66.04234375 101.90335938 66.87765625 101.0546875 67.73828125 C100.22839844 68.57359375 99.40210938 69.40890625 98.55078125 70.26953125 C97.59365234 71.2440625 97.59365234 71.2440625 96.6171875 72.23828125 C99.32236037 75.44177543 102.0096845 78.61021977 104.92578125 81.625 C114.51680587 91.63497734 121.64342231 102.87198015 125.6171875 116.23828125 C125.9471875 116.23828125 126.2771875 116.23828125 126.6171875 116.23828125 C127.94474904 97.98431013 119.86294067 78.56449975 108.18359375 64.828125 C107.40822266 64.04115234 107.40822266 64.04115234 106.6171875 63.23828125 C105.26216848 63.12331594 105.26216848 63.12331594 103.55078125 65.20703125 Z " fill="#000000" transform="translate(36.3828125,-0.23828125)"/>
<path d="M0 0 C1.83393423 1.83393423 1.1262014 4.76701615 1.12698364 7.22570801 C1.12854363 7.8833088 1.13010362 8.54090959 1.13171089 9.21843767 C1.13572266 11.43796513 1.13253058 13.65742507 1.12939453 15.87695312 C1.13074849 17.46166525 1.1325284 19.04637705 1.13470459 20.63108826 C1.13927952 24.94708204 1.13748912 29.26305203 1.1343255 33.57904625 C1.13180221 38.08561647 1.13413936 42.59218459 1.13571167 47.09875488 C1.13753346 54.66821663 1.13512682 62.23766864 1.13037109 69.80712891 C1.12492846 78.57138426 1.12669111 87.33561636 1.1321975 96.09987116 C1.13672838 103.61067482 1.1373793 111.12147147 1.13475883 118.63227606 C1.13319591 123.12428513 1.13300268 127.61628325 1.13629532 132.10829163 C1.13917366 136.33038998 1.13719902 140.55245821 1.13140106 144.7745533 C1.13007327 146.32863884 1.13046791 147.88272689 1.13266373 149.43681145 C1.13537448 151.54933977 1.13199506 153.66177001 1.12698364 155.77429199 C1.1264181 157.55186512 1.1264181 157.55186512 1.12584114 159.36534882 C1 162 1 162 0 163 C-2.88027717 163.10016659 -5.73665119 163.13438731 -8.61743164 163.12698364 C-9.53229623 163.12854363 -10.44716082 163.13010362 -11.38974857 163.13171089 C-14.47990047 163.13572505 -17.57000392 163.13252964 -20.66015625 163.12939453 C-22.86555002 163.13074839 -25.07094356 163.13252823 -27.27633667 163.13470459 C-33.28442306 163.13928078 -39.29249236 163.1374886 -45.30057907 163.1343255 C-51.57286375 163.13180286 -57.84514691 163.13413917 -64.11743164 163.13571167 C-75.32866312 163.13765052 -86.53988753 163.13453274 -97.75111735 163.12945233 C-107.9262045 163.12498429 -118.10128024 163.12576022 -128.27636719 163.13037109 C-140.07864611 163.13571679 -151.88091951 163.13771773 -163.68319988 163.13475883 C-169.93578554 163.13319561 -176.18836333 163.1330035 -182.44094849 163.13629532 C-188.31772778 163.13917288 -194.19448542 163.13720047 -200.07126236 163.13140106 C-202.2348947 163.13007284 -204.39852885 163.13046862 -206.56216049 163.13266373 C-209.50232149 163.13537281 -212.44241193 163.13199708 -215.38256836 163.12698364 C-216.25054582 163.12921436 -217.11852327 163.13144509 -218.01280308 163.13374341 C-223.88585018 163.11414982 -223.88585018 163.11414982 -225 162 C-226.02923215 155.6496376 -222.6963278 150.92705729 -219.75 145.5625 C-218.6479732 143.50806149 -217.5464248 141.4533663 -216.4453125 139.3984375 C-215.87586914 138.34495117 -215.30642578 137.29146484 -214.71972656 136.20605469 C-213.03225127 133.06012546 -211.38033516 129.89842219 -209.7421875 126.7265625 C-209.21915039 125.71392334 -208.69611328 124.70128418 -208.15722656 123.65795898 C-207.16591634 121.73615027 -206.17561407 119.81382115 -205.18652344 117.89086914 C-204.72536133 117.00262451 -204.26419922 116.11437988 -203.7890625 115.19921875 C-203.39412598 114.43440186 -202.99918945 113.66958496 -202.59228516 112.8815918 C-202.06683105 111.9306665 -201.54137695 110.97974121 -201 110 C-200.62580429 109.16530685 -200.25160858 108.33061371 -199.86607361 107.47062683 C-196.38834975 100.47753715 -196.38834975 100.47753715 -192.68682861 99.20436096 C-189.83708311 99.02717601 -187.1458367 99.16227869 -184.30078125 99.40234375 C-182.18299974 99.46864436 -180.0651578 99.53303696 -177.94726562 99.59570312 C-174.63118234 99.75279494 -171.32034738 99.93697066 -168.00805664 100.16040039 C-155.92178772 101.39768438 -155.92178772 101.39768438 -144.97973633 97.44854736 C-141.45375007 93.45845073 -139.15738897 88.91855568 -136.97799683 84.09182739 C-135.69368192 81.3448194 -134.07113881 78.91910289 -132.3359375 76.4375 C-131.83449219 75.6846875 -131.33304687 74.931875 -130.81640625 74.15625 C-130.10291016 73.08890625 -130.10291016 73.08890625 -129.375 72 C-128.86066406 71.2265625 -128.34632813 70.453125 -127.81640625 69.65625 C-124.12698413 64.12698413 -124.12698413 64.12698413 -123 63 C-120.88704715 63.05273014 -118.77398071 63.1145603 -116.66294861 63.21893311 C-96.3144094 64.96417528 -96.3144094 64.96417528 -76.94970703 60.46289062 C-72.56134828 56.45722006 -70.44437062 51.34757081 -68.27490234 45.90722656 C-65.88456526 40.45641576 -62.49381748 35.63641231 -59.125 30.75 C-58.43849365 29.75355469 -57.7519873 28.75710937 -57.04467773 27.73046875 C-51.63438599 20.21158007 -47.53245304 16.77617164 -38.60888672 13.93212891 C-35.19013071 12.71064187 -31.90290606 11.22546458 -28.59765625 9.73046875 C-27.24630355 9.12310497 -25.89490325 8.51584707 -24.54345703 7.90869141 C-23.52569183 7.45106415 -23.52569183 7.45106415 -22.48736572 6.98419189 C-21.81091003 6.68003357 -21.13445435 6.37587524 -20.4375 6.0625 C-19.77071228 5.7618866 -19.10392456 5.46127319 -18.41693115 5.15155029 C-16.48988291 4.2886088 -14.55663005 3.44135642 -12.62109375 2.59765625 C-11.4911499 2.09758057 -10.36120605 1.59750488 -9.19702148 1.08227539 C-5.89756695 -0.03467627 -3.45617233 -0.29340351 0 0 Z M-47.89208984 28.3984375 C-51.97172945 32.91169286 -54.82479551 37.96475126 -57.57226562 43.36523438 C-60.186986 48.19048442 -63.48488654 52.55316776 -66.6875 57 C-67.83934057 58.64436364 -68.98923617 60.29009228 -70.13671875 61.9375 C-71.0853965 63.29570063 -72.03953783 64.6501071 -73 66 C-73.36198486 66.74354736 -73.72396973 67.48709473 -74.09692383 68.25317383 C-76.83951268 70.7705854 -78.99879288 70.32360061 -82.61376953 70.16960144 C-83.50435059 70.11750015 -84.39493164 70.06539886 -85.3125 70.01171875 C-87.21214164 69.9628303 -89.11189242 69.91804283 -91.01171875 69.87695312 C-94.00031521 69.79498327 -96.97891075 69.68876313 -99.96337891 69.51000977 C-111.04605446 68.5446571 -111.04605446 68.5446571 -120.92254639 72.57086182 C-124.37441804 76.59735264 -126.73019815 81.1396599 -128.98474121 85.91421509 C-130.30991086 88.63669223 -131.93767089 91.07917077 -133.6640625 93.5625 C-134.16550781 94.3153125 -134.66695313 95.068125 -135.18359375 95.84375 C-135.89708984 96.91109375 -135.89708984 96.91109375 -136.625 98 C-137.13933594 98.7734375 -137.65367187 99.546875 -138.18359375 100.34375 C-141.87301587 105.87301587 -141.87301587 105.87301587 -143 107 C-144.47250645 107.12232644 -145.95065711 107.1777456 -147.42797852 107.20532227 C-148.36887833 107.22526749 -149.30977814 107.24521271 -150.27919006 107.26576233 C-151.30209641 107.28247482 -152.32500275 107.29918732 -153.37890625 107.31640625 C-154.42070541 107.33718735 -155.46250458 107.35796844 -156.53587341 107.37937927 C-159.87801247 107.44499057 -163.22023285 107.50381331 -166.5625 107.5625 C-168.82227418 107.60567422 -171.08204001 107.64928814 -173.34179688 107.69335938 C-178.89444421 107.80068367 -184.44717321 107.90242812 -190 108 C-196.53416456 119.8772232 -202.98800293 131.78894343 -209.25 143.8125 C-209.82258545 144.90941162 -210.3951709 146.00632324 -210.98510742 147.13647461 C-211.51080322 148.1497583 -212.03649902 149.16304199 -212.578125 150.20703125 C-213.04637695 151.1091333 -213.51462891 152.01123535 -213.99707031 152.94067383 C-215.07297539 154.76808016 -215.07297539 154.76808016 -215 156 C-146.03 156 -77.06 156 -6 156 C-6 107.82 -6 59.64 -6 10 C-18.15798948 10 -38.70115835 20.77631096 -47.89208984 28.3984375 Z " fill="#000000" transform="translate(255,93)"/>
<path d="M0 0 C4.95802874 3.30535249 9.66926613 7.71752312 11.9375 13.3125 C12.05250863 18.25787127 9.35674298 21.4934867 6.1953125 25.00390625 C3.03837597 28.04414668 0.79629384 29.80092654 -3.5 30.875 C-9.8041945 29.29895138 -13.45216667 24.81209756 -17.5625 20 C-19 17 -19 17 -19.3125 13.6875 C-16.32066594 5.28187097 -9.06225641 -1.16932341 0 0 Z M-4 8 C-5.98 9.98 -7.96 11.96 -10 14 C-8.50902342 17.7952131 -6.24299151 19.61042731 -3 22 C-1.02 20.02 0.96 18.04 3 16 C1.50902342 12.2047869 -0.75700849 10.38957269 -4 8 Z " fill="#000000" transform="translate(210,198)"/>
<path d="M0 0 C5.21016496 1.72492728 8.85844196 6.6684888 12.30078125 10.76171875 C13.80967594 13.77950812 13.80104401 15.38494512 13.30078125 18.76171875 C10.01229169 23.7039574 5.67139226 28.18830098 0.30078125 30.76171875 C-3.01171875 31.07421875 -3.01171875 31.07421875 -6.69921875 29.76171875 C-16.21212946 21.80602681 -16.21212946 21.80602681 -17.19921875 15.63671875 C-16.40153152 9.4546427 -12.33480397 5.97171336 -7.69140625 2.078125 C-5.1957334 0.42902353 -2.98854704 -0.07316594 0 0 Z M-2.69921875 8.76171875 C-4.27762447 10.31877069 -4.27762447 10.31877069 -5.82421875 12.26171875 C-6.36304688 12.91140625 -6.901875 13.56109375 -7.45703125 14.23046875 C-7.86695313 14.73578125 -8.276875 15.24109375 -8.69921875 15.76171875 C-6.71921875 17.74171875 -4.73921875 19.72171875 -2.69921875 21.76171875 C1.09599435 20.27074217 2.91120856 18.00471026 5.30078125 14.76171875 C4.34870915 13.75575578 3.38890779 12.75710312 2.42578125 11.76171875 C1.62527344 10.92640625 1.62527344 10.92640625 0.80859375 10.07421875 C-0.61746863 8.54286353 -0.61746863 8.54286353 -2.69921875 8.76171875 Z " fill="#000000" transform="translate(153.69921875,179.23828125)"/>
<path d="M0 0 C4.98328482 1.46906084 8.23954609 5.41595976 11.02734375 9.59765625 C11.56376662 13.08440492 11.73062835 15.49503023 9.7890625 18.5390625 C6.39742488 22.57031417 3.73434385 25.3083342 -1.66015625 26.22265625 C-5.65671859 26.13384375 -7.53867997 24.67886771 -10.41015625 21.97265625 C-12.72090797 19.39352982 -13.94055797 17.68381479 -15.16015625 14.41015625 C-14.92416127 10.87023148 -14.14865983 9.40540281 -11.97265625 6.59765625 C-11.55757812 6.05496094 -11.1425 5.51226562 -10.71484375 4.953125 C-7.52342869 1.22980744 -4.98147954 -0.37289386 0 0 Z M-1.97265625 8.59765625 C-3.29265625 10.24765625 -4.61265625 11.89765625 -5.97265625 13.59765625 C-3.49765625 15.57765625 -3.49765625 15.57765625 -0.97265625 17.59765625 C0.34734375 15.94765625 1.66734375 14.29765625 3.02734375 12.59765625 C1.37734375 11.27765625 -0.27265625 9.95765625 -1.97265625 8.59765625 Z " fill="#000000" transform="translate(218.97265625,148.40234375)"/>
<path d="M0 0 C3.95710091 2.0309357 6.58572067 5.26226978 8.91796875 8.984375 C9.85546875 12.484375 9.85546875 12.484375 8.91796875 15.984375 C5.47223608 20.30509147 1.87505435 24.4211206 -3.70703125 25.484375 C-8.75875516 24.73597146 -11.6400573 21.61528785 -15.08203125 17.984375 C-16.74893187 14.65057376 -16.96365332 11.54190631 -16.08203125 7.984375 C-11.86428243 2.28550974 -7.44167101 -2.34833115 0 0 Z M-6.70703125 9.484375 C-7.16078125 9.979375 -7.61453125 10.474375 -8.08203125 10.984375 C-6.71219622 14.14553276 -6.09296745 14.9770842 -3.08203125 16.984375 C-1.76203125 15.334375 -0.44203125 13.684375 0.91796875 11.984375 C-0.37168301 10.60874646 -1.70892418 9.27671107 -3.08203125 7.984375 C-5.20567606 7.75828163 -5.20567606 7.75828163 -6.70703125 9.484375 Z " fill="#000000" transform="translate(100.08203125,213.015625)"/>
<path d="M0 0 C2.31016597 0.12834255 3.36605745 0.36605745 5 2 C5.44066078 5.246387 5.28911113 6.59948198 3.34765625 9.2890625 C2.59355469 10.05992188 1.83945313 10.83078125 1.0625 11.625 C-2.28003223 15.15061303 -5.45742479 18.71153774 -8.5 22.5 C-9.99885816 24.33426698 -11.49887277 26.16758952 -13 28 C-13.78890625 28.97453125 -14.5778125 29.9490625 -15.390625 30.953125 C-16.16921875 31.87609375 -16.9478125 32.7990625 -17.75 33.75 C-18.79414063 35.01070312 -18.79414063 35.01070312 -19.859375 36.296875 C-22 38 -22 38 -24.765625 37.765625 C-25.87164062 37.38664062 -25.87164062 37.38664062 -27 37 C-27.79296875 34.87109375 -27.79296875 34.87109375 -28 32 C-26.51449091 29.76404739 -25.11905935 28.0073806 -23.3125 26.0625 C-22.29530984 24.91820255 -21.27839259 23.77366246 -20.26171875 22.62890625 C-19.72724121 22.0373877 -19.19276367 21.44586914 -18.64208984 20.83642578 C-15.90714196 17.7778058 -13.27504631 14.63210036 -10.625 11.5 C-7.24200224 7.50567781 -3.87524367 3.53136539 0 0 Z " fill="#000000" transform="translate(210,80)"/>
<path d="M0 0 C8.84851286 0.01828205 17.68755364 0.21276717 26.53125 0.5078125 C28.17383789 0.55397705 28.17383789 0.55397705 29.84960938 0.60107422 C30.88408203 0.63990723 31.91855469 0.67874023 32.984375 0.71875 C33.90895508 0.7501709 34.83353516 0.7815918 35.78613281 0.81396484 C38.35984233 1.14285571 40.05463917 1.83319617 42.28125 3.1328125 C42.323971 4.79893155 42.32188832 6.46664135 42.28125 8.1328125 C40.51848692 9.89557558 38.00990899 9.26309734 35.62109375 9.265625 C33.85161377 9.26876709 33.85161377 9.26876709 32.04638672 9.27197266 C30.7832666 9.2672998 29.52014648 9.26262695 28.21875 9.2578125 C26.94789551 9.25442871 25.67704102 9.25104492 24.36767578 9.24755859 C-1.74707106 9.10449144 -1.74707106 9.10449144 -4.71875 6.1328125 C-3.99464368 0.19514064 -3.99464368 0.19514064 0 0 Z " fill="#000000" transform="translate(110.71875,136.8671875)"/>
<path d="M0 0 C2.4375 0.1875 2.4375 0.1875 3.4375 1.1875 C3.76190246 7.40756454 2.89002384 12.99919964 1.5625 19.0625 C1.38847656 19.91585937 1.21445313 20.76921875 1.03515625 21.6484375 C-0.30707684 27.93207684 -0.30707684 27.93207684 -2.5625 30.1875 C-5.1875 29.8125 -5.1875 29.8125 -7.5625 29.1875 C-8.48962584 25.48523571 -8.53489741 22.70363409 -7.85546875 18.95703125 C-7.68080078 17.98958984 -7.50613281 17.02214844 -7.32617188 16.02539062 C-7.13603516 15.02701172 -6.94589844 14.02863281 -6.75 13 C-6.57146484 11.99001953 -6.39292969 10.98003906 -6.20898438 9.93945312 C-4.4273837 0.3239549 -4.4273837 0.3239549 0 0 Z " fill="#000000" transform="translate(186.5625,64.8125)"/>
<path d="M0 0 C4.37815184 2.25658046 8.69857812 4.59983356 13 7 C13.125 9.375 13.125 9.375 13 12 C12.34 12.66 11.68 13.32 11 14 C5.68119455 13.41544261 1.04961323 10.97350898 -3.75 8.75 C-4.62527344 8.36714844 -5.50054687 7.98429687 -6.40234375 7.58984375 C-7.23378906 7.20441406 -8.06523438 6.81898437 -8.921875 6.421875 C-9.68081055 6.07737305 -10.43974609 5.73287109 -11.22167969 5.37792969 C-13 4 -13 4 -13.81738281 1.47363281 C-14 -1 -14 -1 -13 -3 C-8.14746695 -4.61751102 -4.48572561 -2.09020722 0 0 Z " fill="#000000" transform="translate(132,115)"/>
</svg>
