<?xml version="1.0" encoding="UTF-8"?>
<svg version="1.1" xmlns="http://www.w3.org/2000/svg" width="256" height="256">
<path d="M0 0 C3.40903875 4.3387766 4.47527435 6.90349335 4.31640625 12.6015625 C3.92166859 15.74731799 2.75197324 17.97011348 1.0625 20.625 C0.33622406 21.1804248 -0.39005188 21.73584961 -1.13833618 22.30810547 C-3.34110842 24.60260888 -3.34110842 24.60260888 -2.62850952 28.14111328 C-2.26805139 29.58215353 -1.88105544 31.01670076 -1.47412109 32.4453125 C-1.16672878 33.63026841 -1.16672878 33.63026841 -0.85312653 34.83916283 C-0.16133513 37.48255496 0.56378512 40.11561596 1.2890625 42.75 C1.78631094 44.62271472 2.28145607 46.49598903 2.77462769 48.36978149 C4.10893849 53.41623008 5.47181221 58.45456392 6.83987427 63.49195099 C8.24963204 68.70278877 9.63250419 73.92074138 11.01757812 79.13818359 C13.26152411 87.57853954 15.51987148 96.01490248 17.79003906 104.44824219 C21.83653919 119.48282388 25.82086571 134.53369977 29.79875374 149.58655167 C30.96526432 153.99888753 32.13681293 158.40984317 33.31341743 162.81949806 C33.86098972 164.87192892 34.40760038 166.92461333 34.95388794 168.97738647 C35.61103401 171.44553267 36.26999471 173.91319674 36.93112183 176.38027954 C37.21488678 177.44797577 37.49865173 178.515672 37.79101562 179.61572266 C38.03839478 180.54180328 38.28577393 181.46788391 38.54064941 182.42202759 C39.0625 184.625 39.0625 184.625 39.0625 186.625 C40.06410156 186.57859375 41.06570312 186.5321875 42.09765625 186.484375 C55.59066087 186.04392538 55.59066087 186.04392538 61.0625 190.625 C63.4846947 194.1885 63.33013194 197.52715116 63.3125 201.75 C63.32023437 203.61011719 63.32023437 203.61011719 63.328125 205.5078125 C63.0625 208.625 63.0625 208.625 61.0625 210.625 C58.59150028 210.87668228 58.59150028 210.87668228 55.41334534 210.87896729 C53.61088852 210.88742676 53.61088852 210.88742676 51.77201843 210.89605713 C50.43337953 210.89216816 49.09474122 210.8880718 47.75610352 210.88378906 C46.35182514 210.88649797 44.94754818 210.89005833 43.54327393 210.89440918 C39.72302957 210.90354831 35.90289291 210.89998247 32.08264661 210.89365101 C28.08951346 210.88859788 24.09638972 210.89328064 20.10325623 210.89642334 C13.39556213 210.90006542 6.68791203 210.89525801 -0.01977539 210.88574219 C-7.77918191 210.87486159 -15.5384833 210.87837935 -23.29788727 210.889395 C-29.95355488 210.89846629 -36.6091908 210.89975379 -43.2648626 210.89451766 C-47.24273372 210.89139652 -51.22055542 210.89099247 -55.19842339 210.89759064 C-58.93878482 210.90336103 -62.67901055 210.89937288 -66.4193573 210.88780212 C-67.79360796 210.8851537 -69.16787001 210.88592374 -70.54211617 210.89032745 C-72.41519391 210.89577697 -74.28829656 210.88773756 -76.16136169 210.87896729 C-77.21052985 210.87821323 -78.25969801 210.87745918 -79.34065914 210.87668228 C-81.9375 210.625 -81.9375 210.625 -84.9375 208.625 C-85.82622487 202.828272 -85.73194368 197.33158272 -83.25 192 C-78.634702 187.25996422 -74.62014064 186.1550406 -68.125 185.9375 C-67.43212891 185.90333984 -66.73925781 185.86917969 -66.02539062 185.83398438 C-64.32997151 185.75213656 -62.63376542 185.68687635 -60.9375 185.625 C-60.72104324 184.80040283 -60.50458649 183.97580566 -60.28157043 183.1262207 C-59.81698677 181.35637817 -59.81698677 181.35637817 -59.34301758 179.55078125 C-59.17151121 178.89740438 -59.00000484 178.2440275 -58.82330132 177.57085133 C-57.82914581 173.78351026 -56.83490299 169.99619215 -55.8405304 166.20890808 C-53.77230034 158.33124815 -51.70470871 150.45342262 -49.63972092 142.57491207 C-48.43078461 137.96259748 -47.22136857 133.35040877 -46.01171875 128.73828125 C-45.76549774 127.79946924 -45.51927673 126.86065723 -45.26559448 125.89339638 C-41.72620534 112.40175571 -38.16273178 98.91666732 -34.58305168 85.43566513 C-33.11405783 79.89980895 -31.64946503 74.3627867 -30.18507099 68.8257122 C-28.77655554 63.50201589 -27.36072964 58.18033008 -25.93985653 52.85991955 C-25.05847566 49.55261539 -24.1840049 46.24351392 -23.31148338 42.93386269 C-22.90447895 41.39586943 -22.49455108 39.85864649 -22.08153725 38.32225609 C-21.51949072 36.23004684 -20.96771455 34.13539169 -20.41845703 32.03979492 C-20.10651398 30.86656174 -19.79457092 29.69332855 -19.47317505 28.48454285 C-18.68712431 25.56696301 -18.68712431 25.56696301 -19.9375 22.625 C-20.576875 22.08875 -21.21625 21.5525 -21.875 21 C-24.86917376 17.55216355 -25.5489121 14.12042867 -25.9375 9.625 C-25.37623064 4.8943011 -24.05938139 2.40693137 -20.625 -0.75 C-14.04107802 -5.80623577 -6.43943693 -5.20635326 0 0 Z M-15.8125 4.1875 C-18.36531397 7.11572779 -18.85707234 8.76447245 -18.9375 12.625 C-17.81731101 15.98556696 -16.99215901 16.58856066 -13.9375 18.625 C-11.0225745 19.2088196 -11.0225745 19.2088196 -7.9375 18.625 C-4.56753665 16.13415752 -3.11939573 14.73911135 -2.4375 10.5625 C-3.00417329 7.23329443 -3.38671042 5.84665544 -5.9375 3.625 C-10.05044095 2.40635083 -12.00272714 2.11697127 -15.8125 4.1875 Z M-10.9375 25.625 C-13.83687733 32.68993842 -15.7402759 39.98216197 -17.63671875 47.36328125 C-18.1921162 49.51790824 -18.75979716 51.66906468 -19.328125 53.8203125 C-19.68303659 55.18991135 -20.03722992 56.55969657 -20.390625 57.9296875 C-20.71192383 59.16702637 -21.03322266 60.40436523 -21.36425781 61.67919922 C-22.23237213 64.54344473 -22.23237213 64.54344473 -20.9375 66.625 C-20.380625 66.11710937 -19.82375 65.60921875 -19.25 65.0859375 C-14.32950419 60.64751729 -9.31699276 56.49471686 -3.9375 52.625 C-4.56202089 46.42286153 -5.8532742 40.63070586 -7.5 34.625 C-7.73396484 33.75488281 -7.96792969 32.88476562 -8.20898438 31.98828125 C-8.78040744 29.86585272 -9.35664957 27.74486406 -9.9375 25.625 C-10.2675 25.625 -10.5975 25.625 -10.9375 25.625 Z M-9.25 64.8125 C-9.81912109 65.29525391 -10.38824219 65.77800781 -10.97460938 66.27539062 C-14.45514528 69.25242765 -17.74130459 72.34485199 -20.9375 75.625 C-17.89638251 77.23020934 -14.85450767 78.83397836 -11.8125 80.4375 C-10.9565625 80.88931641 -10.100625 81.34113281 -9.21875 81.80664062 C-1.88511308 86.4057428 -1.88511308 86.4057428 6.0625 88.625 C3.95335937 78.89297548 1.84421248 69.19240504 -0.9375 59.625 C-4.41632845 59.625 -6.7187128 62.62396201 -9.25 64.8125 Z M-25.9375 81.625 C-26.61114661 83.70608685 -27.27616798 85.7899671 -27.9375 87.875 C-28.30875 89.03515625 -28.68 90.1953125 -29.0625 91.390625 C-30.11159595 94.7100928 -30.11159595 94.7100928 -29.9375 98.625 C-28.53761402 100.10818846 -28.53761402 100.10818846 -26.578125 101.23828125 C-25.87429687 101.68107422 -25.17046875 102.12386719 -24.4453125 102.58007812 C-23.32769531 103.25200195 -23.32769531 103.25200195 -22.1875 103.9375 C-21.45789063 104.40478516 -20.72828125 104.87207031 -19.9765625 105.35351562 C-16.22911203 107.91892062 -16.22911203 107.91892062 -11.91015625 108.38525391 C-8.45738289 107.05456873 -5.6670804 104.84648458 -2.6875 102.6875 C-1.71296875 102.00397461 -1.71296875 102.00397461 -0.71875 101.30664062 C0.91562724 100.13407797 2.49445244 98.88488848 4.0625 97.625 C4.0625 96.965 4.0625 96.305 4.0625 95.625 C0.11404255 93.62608867 -3.83699437 91.63240115 -7.79052734 89.64355469 C-9.13565388 88.96595653 -10.48005956 88.28692541 -11.82373047 87.60644531 C-13.75301284 86.62970162 -15.68481218 85.65810723 -17.6171875 84.6875 C-18.77976074 84.10097656 -19.94233398 83.51445313 -21.14013672 82.91015625 C-23.72732179 81.4858439 -23.72732179 81.4858439 -25.9375 81.625 Z M5.68359375 104.03125 C5.01005859 104.52753906 4.33652344 105.02382812 3.64257812 105.53515625 C2.58200195 106.32212891 2.58200195 106.32212891 1.5 107.125 C0.78908203 107.64964844 0.07816406 108.17429687 -0.65429688 108.71484375 C-2.41693821 110.01612258 -4.17791495 111.31959305 -5.9375 112.625 C-1.74935728 116.16055243 2.7192894 119.01250769 7.375 121.875 C8.11556641 122.33390625 8.85613281 122.7928125 9.61914062 123.265625 C11.4318061 124.38830813 13.24690784 125.50705606 15.0625 126.625 C16.46626653 123.81746693 15.65685114 122.40401854 14.84765625 119.3984375 C14.57373047 118.3671875 14.29980469 117.3359375 14.01757812 116.2734375 C13.72302734 115.19320312 13.42847656 114.11296875 13.125 113 C12.83431641 111.91203125 12.54363281 110.8240625 12.24414062 109.703125 C11.52325027 107.00864956 10.79578247 104.31612454 10.0625 101.625 C8.29223797 101.625 7.06571513 103.00917705 5.68359375 104.03125 Z M-31.9375 105.625 C-34.75377358 112.46452155 -36.38511232 119.40254385 -37.9375 126.625 C-33.86120486 124.8030196 -30.32260347 122.24758811 -26.6875 119.6875 C-25.71296875 119.02331055 -25.71296875 119.02331055 -24.71875 118.34570312 C-23.06809926 117.18227177 -21.49536003 115.91002626 -19.9375 114.625 C-19.9375 113.635 -19.9375 112.645 -19.9375 111.625 C-22.09278597 109.91971253 -22.09278597 109.91971253 -24.8125 108.4375 C-26.16988281 107.64279297 -26.16988281 107.64279297 -27.5546875 106.83203125 C-29.78967675 105.47437093 -29.78967675 105.47437093 -31.9375 105.625 Z M-16.60546875 120.07421875 C-17.33443359 120.59306641 -18.06339844 121.11191406 -18.81445312 121.64648438 C-19.57693359 122.19626953 -20.33941406 122.74605469 -21.125 123.3125 C-21.86814453 123.84294922 -22.61128906 124.37339844 -23.37695312 124.91992188 C-25.56682179 126.48411378 -27.75229327 128.05430472 -29.9375 129.625 C-32.26988776 131.2929943 -34.6037466 132.95891645 -36.9375 134.625 C-32.47894125 138.14201567 -27.58512283 140.4590659 -22.5 142.9375 C-21.08750977 143.65776367 -21.08750977 143.65776367 -19.64648438 144.39257812 C-18.73318359 144.83666016 -17.81988281 145.28074219 -16.87890625 145.73828125 C-16.05076416 146.14860596 -15.22262207 146.55893066 -14.36938477 146.98168945 C-11.1552201 147.83193781 -9.86866842 147.11299636 -6.9375 145.625 C-6.08373779 145.21685059 -5.22997559 144.80870117 -4.3503418 144.38818359 C-3.45484619 143.93781738 -2.55935059 143.48745117 -1.63671875 143.0234375 C-0.66025391 142.53359375 0.31621094 142.04375 1.32226562 141.5390625 C2.32966797 141.03117187 3.33707031 140.52328125 4.375 140 C5.40173828 139.484375 6.42847656 138.96875 7.48632812 138.4375 C10.01263349 137.16847219 12.53798382 135.89758234 15.0625 134.625 C10.21674193 130.45082887 4.80221124 127.22331338 -0.625 123.875 C-1.58728516 123.27300781 -2.54957031 122.67101562 -3.54101562 122.05078125 C-4.45947266 121.48230469 -5.37792969 120.91382813 -6.32421875 120.328125 C-7.16170654 119.80895508 -7.99919434 119.28978516 -8.86206055 118.75488281 C-12.36688059 116.84683586 -13.56092115 117.89261023 -16.60546875 120.07421875 Z M13.2734375 142.03125 C11.86191406 142.77568359 11.86191406 142.77568359 10.421875 143.53515625 C9.43703125 144.05980469 8.4521875 144.58445313 7.4375 145.125 C5.94863281 145.91197266 5.94863281 145.91197266 4.4296875 146.71484375 C1.97199754 148.01458363 -0.48360652 149.31811056 -2.9375 150.625 C-0.46488204 153.43856085 2.19913399 154.8800468 5.53515625 156.54296875 C7.13133789 157.34057617 7.13133789 157.34057617 8.75976562 158.15429688 C9.87029297 158.70150391 10.98082031 159.24871094 12.125 159.8125 C13.23939453 160.37130859 14.35378906 160.93011719 15.50195312 161.50585938 C20.55493064 164.39650464 20.55493064 164.39650464 26.0625 165.625 C24.66463923 156.77801274 22.45787771 148.24138292 20.0625 139.625 C17.30652047 139.625 15.70702657 140.74115459 13.2734375 142.03125 Z M-41.9375 140.625 C-42.97189955 144.39224663 -43.9876696 148.16426852 -45 151.9375 C-45.29455078 153.00935547 -45.58910156 154.08121094 -45.89257812 155.18554688 C-46.16650391 156.21357422 -46.44042969 157.24160156 -46.72265625 158.30078125 C-47.10756226 159.7225769 -47.10756226 159.7225769 -47.50024414 161.1730957 C-48.1612955 163.75006377 -48.1612955 163.75006377 -46.9375 166.625 C-38.0275 162.005 -29.1175 157.385 -19.9375 152.625 C-19.9375 151.965 -19.9375 151.305 -19.9375 150.625 C-23.22591876 148.95186677 -26.51874682 147.28760393 -29.8125 145.625 C-30.74964844 145.14804688 -31.68679687 144.67109375 -32.65234375 144.1796875 C-33.54824219 143.72851562 -34.44414063 143.27734375 -35.3671875 142.8125 C-36.19460449 142.39355469 -37.02202148 141.97460938 -37.87451172 141.54296875 C-39.86571018 140.48948676 -39.86571018 140.48948676 -41.9375 140.625 Z M-19.2578125 158.73046875 C-19.8759079 159.05155106 -20.4940033 159.37263336 -21.13082886 159.70344543 C-23.11107967 160.73410876 -25.08671328 161.7733094 -27.0625 162.8125 C-28.36951418 163.49337148 -29.67680317 164.1737157 -30.984375 164.85351562 C-33.51158687 166.16752999 -36.0264461 167.50198954 -38.53613281 168.84912109 C-41.9375 170.625 -41.9375 170.625 -44.76855469 171.84228516 C-47.52523708 172.98483479 -47.52523708 172.98483479 -50.9375 175.625 C-52.4225 181.07 -52.4225 181.07 -53.9375 186.625 C-25.5575 186.625 2.8225 186.625 32.0625 186.625 C30.50075244 174.93899575 30.50075244 174.93899575 24.5546875 171.328125 C22.70222288 170.46621554 20.82797186 169.65000273 18.9375 168.875 C17.95934326 168.43309326 16.98118652 167.99118652 15.97338867 167.53588867 C13.97834706 166.63681329 11.97555404 165.75473781 9.96533203 164.89013672 C7.25317542 163.70810177 4.59163659 162.45856229 1.93359375 161.16015625 C-8.41613263 155.66234678 -8.41613263 155.66234678 -19.2578125 158.73046875 Z M-76.76249695 194.71088886 C-78.54784967 197.24494479 -78.54784967 197.24494479 -77.9375 203.625 C-33.7175 203.625 10.5025 203.625 56.0625 203.625 C56.0625 200.985 56.0625 198.345 56.0625 195.625 C52.74432535 193.41288357 51.72502321 193.37276357 47.86254883 193.36430359 C46.7857486 193.35721878 45.70894836 193.35013397 44.59951782 193.34283447 C42.82742447 193.3465506 42.82742447 193.3465506 41.01953125 193.3503418 C39.77545502 193.34523087 38.53137878 193.34011993 37.24960327 193.33485413 C33.83638521 193.32332325 30.42340972 193.32088643 27.01018906 193.32341743 C24.16212603 193.32448629 21.31408548 193.31960604 18.46602726 193.314812 C11.7484933 193.30371375 5.03101526 193.30328144 -1.68652344 193.30932617 C-8.62063593 193.31536972 -15.55454571 193.30304615 -22.48862362 193.2817561 C-28.43943801 193.26415567 -34.39018779 193.25813619 -40.34102726 193.26139385 C-43.8963834 193.26320907 -47.45159487 193.26054672 -51.00692749 193.24667931 C-54.96954347 193.23180169 -58.93189997 193.24105745 -62.89453125 193.25268555 C-64.6666246 193.24121994 -64.6666246 193.24121994 -66.47451782 193.22952271 C-67.55131805 193.23653702 -68.62811829 193.24355133 -69.73754883 193.2507782 C-70.67480301 193.25061046 -71.61205719 193.25044271 -72.57771301 193.25026989 C-74.94482985 193.47688096 -74.94482985 193.47688096 -76.76249695 194.71088886 Z " fill="#000000" transform="translate(138.9375,44.375)"/>
<path d="M0 0 C6.69820342 0.75086622 10.38729645 5.46695067 15 10 C15.64582031 10.62132812 16.29164063 11.24265625 16.95703125 11.8828125 C28.30451425 23.71698213 32.5154458 39.47881931 32.42211914 55.44360352 C31.89565443 73.84915486 23.65789486 87.32368025 11 100 C9.96552734 101.051875 9.96552734 101.051875 8.91015625 102.125 C7.125 103.8125 7.125 103.8125 4 106 C1.0625 105.875 1.0625 105.875 -1 105 C-1.33 104.01 -1.66 103.02 -2 102 C0.45833576 99.524136 2.92623611 97.06955549 5.46484375 94.67578125 C11.12973051 89.261474 15.48745938 84.01403551 19 77 C19.38929688 76.23300781 19.77859375 75.46601562 20.1796875 74.67578125 C25.80564273 62.25350784 26.1416463 48.74153893 21.9921875 35.875 C17.82146941 25.04770536 11.36469877 16.89221579 3 9 C1.99637027 8.00364295 0.99577173 7.00421047 0 6 C-0.66 5.34 -1.32 4.68 -2 4 C-1.34 2.68 -0.68 1.36 0 0 Z " fill="#000000" transform="translate(170,2)"/>
<path d="M0 0 C0.8971875 0.309375 0.8971875 0.309375 1.8125 0.625 C2.625 2.3125 2.625 2.3125 2.8125 4.625 C0.72098444 7.12132502 -1.47573014 9.06164173 -4.0234375 11.078125 C-14.38446419 19.51437598 -21.11080663 31.41492276 -23.1875 44.625 C-24.18729046 60.35940724 -21.61061988 73.54328244 -12.1875 86.625 C-7.60232297 91.81914585 -2.6380197 96.3576892 2.8125 100.625 C2.4825 102.275 2.1525 103.925 1.8125 105.625 C-1.7819186 106.13097849 -3.01101059 105.75085521 -6.01953125 103.60546875 C-7.0279976 102.69072355 -8.0208732 101.75858344 -9 100.8125 C-9.78612671 100.06806641 -9.78612671 100.06806641 -10.58813477 99.30859375 C-23.38031541 86.87551251 -31.05968153 71.31443934 -31.625 53.375 C-31.195982 35.16971453 -24.15401712 19.21877325 -11.00390625 6.515625 C-3.0737568 -0.52692974 -3.0737568 -0.52692974 0 0 Z " fill="#000000" transform="translate(85.1875,2.375)"/>
<path d="M0 0 C0.84765625 2.17578125 0.84765625 2.17578125 1 5 C-0.81639404 6.99405147 -2.47731361 8.52538616 -4.5625 10.1875 C-13.00318298 17.39852838 -18.18575378 25.22609132 -19.37109375 36.54296875 C-19.59150757 48.63979785 -16.64904293 57.66599765 -8.9140625 67.01953125 C-5.91731388 70.1202487 -2.58793063 72.62357842 1 75 C0.67 76.65 0.34 78.3 0 80 C-1.485 80.495 -1.485 80.495 -3 81 C-5.875 79.3125 -5.875 79.3125 -9 77 C-10.19302734 76.12214844 -10.19302734 76.12214844 -11.41015625 75.2265625 C-20.76778165 67.18154519 -26.07673259 55.63983921 -27.37109375 43.52734375 C-27.89054116 29.31337365 -23.39009989 18.08292176 -13.875 7.67578125 C-6.05852192 -0.32748767 -6.05852192 -0.32748767 0 0 Z " fill="#000000" transform="translate(101,15)"/>
<path d="M0 0 C5.85771935 0.12203582 8.79001178 1.83886778 13.015625 5.8515625 C23.9968993 17.74073744 27.72478061 30.23795453 27.13183594 46.06445312 C26.29268959 58.38436462 18.15471229 69.68701857 9.140625 77.640625 C7.3125 79.0625 7.3125 79.0625 4 81 C1.79296875 80.62109375 1.79296875 80.62109375 0 80 C-0.75 78.25 -0.75 78.25 -1 76 C0.70784772 73.84662679 2.6919523 72.24395285 4.83984375 70.54296875 C13.3892137 63.53609549 18.29663793 54.89591953 19.8125 43.9375 C20.61931098 32.71826053 17.23567548 22.58184766 10 14 C6.49675591 10.76079584 2.84805709 7.81819733 -1 5 C-0.67 3.35 -0.34 1.7 0 0 Z " fill="#000000" transform="translate(155,15)"/>
<path d="M0 0 C0.33 1.32 0.66 2.64 1 4 C0.16855469 4.70125 -0.66289063 5.4025 -1.51953125 6.125 C-10.60405979 13.86929294 -10.60405979 13.86929294 -14.2578125 24.98828125 C-14.62053117 31.21495168 -12.64537812 36.44052292 -9.3125 41.625 C-6.17610528 44.84616214 -2.66528168 47.4111724 1 50 C0.67 51.32 0.34 52.64 0 54 C-2.1875 54.7109375 -2.1875 54.7109375 -5 55 C-13.6301501 50.38826354 -18.08729062 43.28272114 -21.3125 34.375 C-23.04863266 25.85216695 -21.34287009 18.5055194 -17.375 10.875 C-6.72473868 -2.0174216 -6.72473868 -2.0174216 0 0 Z " fill="#000000" transform="translate(116,28)"/>
<path d="M0 0 C7.97306653 3.54358512 12.96143328 9.57407898 16.375 17.5 C18.83146748 25.23157394 18.09384932 33.79181823 14.77734375 41.109375 C11.23880481 47.14164751 6.65904143 52.31743708 0.375 55.5 C-2.4375 55.1875 -2.4375 55.1875 -4.625 54.5 C-4.85546875 52.1796875 -4.85546875 52.1796875 -4.625 49.5 C-3.05078125 47.9453125 -3.05078125 47.9453125 -0.9375 46.625 C4.08122484 43.18130051 7.4124464 39.38766079 9.375 33.5 C10.04368367 26.10063147 10.03260321 19.56571581 5.375 13.5 C2.31261556 10.38193584 -0.99503712 7.91997525 -4.625 5.5 C-4.8125 2.875 -4.8125 2.875 -4.625 0.5 C-2.625 -0.5 -2.625 -0.5 0 0 Z " fill="#000000" transform="translate(144.625,27.5)"/>
</svg>
