<?xml version="1.0" encoding="UTF-8"?>
<svg version="1.1" xmlns="http://www.w3.org/2000/svg" width="256" height="256">
<path d="M0 0 C1.88041992 -0.04930664 1.88041992 -0.04930664 3.79882812 -0.09960938 C5.59803711 -0.11024414 5.59803711 -0.11024414 7.43359375 -0.12109375 C8.53630615 -0.13454834 9.63901855 -0.14800293 10.77514648 -0.16186523 C13.5625 0.4375 13.5625 0.4375 15.27685547 2.44970703 C16.87886378 6.17271836 18.11366357 9.91669352 19.26171875 13.80078125 C19.5016304 14.59276413 19.74154205 15.38474701 19.98872375 16.20072937 C20.74885958 18.71528258 21.49955038 21.23254107 22.25 23.75 C22.76565374 25.46177613 23.2819232 27.1733669 23.79882812 28.88476562 C25.06168876 33.06659787 26.3117227 37.25196169 27.5625 41.4375 C43.4025 41.9325 43.4025 41.9325 59.5625 42.4375 C57.18561324 33.44334585 57.18561324 33.44334585 54.77490234 24.45825195 C54.48566895 23.33378662 54.19643555 22.20932129 53.8984375 21.05078125 C53.59470215 19.90391846 53.2909668 18.75705566 52.97802734 17.57543945 C52.51939058 14.11195043 52.9371884 12.4855652 54.5625 9.4375 C56.67407846 7.32592154 60.91953567 8.06933551 63.8125 8 C64.57691406 7.95423828 65.34132813 7.90847656 66.12890625 7.86132812 C70.2301928 7.77986907 71.97106217 7.91537833 75.12890625 10.703125 C75.97625141 11.92359808 76.78147674 13.17355735 77.5625 14.4375 C78.14080566 15.32687256 78.71911133 16.21624512 79.31494141 17.13256836 C81.33034916 20.27497676 83.29484436 23.44479048 85.25 26.625 C86.58697631 28.78531921 87.92420428 30.94548269 89.26171875 33.10546875 C90.14089966 34.53282349 90.14089966 34.53282349 91.0378418 35.98901367 C92.18121191 37.82518002 93.36265359 39.63773038 94.5625 41.4375 C97.36485114 41.72714721 99.95777067 41.83029484 102.76171875 41.80859375 C104.46419433 41.82601385 106.16666825 41.84359768 107.86914062 41.86132812 C110.53885595 41.87128884 113.20844093 41.87502702 115.87817383 41.87329102 C141.17842813 41.90892183 156.42795047 48.83472819 174.37988281 66.82250977 C179.9671278 72.55326667 181.97704639 75.83214495 181.91796875 83.92578125 C181.33718791 88.02954039 179.56335633 89.64600574 176.5625 92.4375 C172.79353711 94.95014193 169.98458418 94.60573717 165.64135742 94.43896484 C163.96829439 94.39318856 162.29521285 94.34808499 160.62211609 94.30355835 C159.7342359 94.27692486 158.84635571 94.25029137 157.93157005 94.2228508 C152.22015454 94.06906405 146.50656049 94.02489785 140.79360485 93.95667076 C135.78295469 93.89049376 130.7777937 93.78917551 125.76977539 93.61132812 C104.89607793 91.90324993 104.89607793 91.90324993 85.40325928 97.37335205 C80.68777731 101.89830949 77.92159669 107.01081327 75.5640564 113.05166626 C74.11780503 116.49681955 72.10400934 119.12226796 69.8125 122.0625 C69.21953125 122.87976563 68.6265625 123.69703125 68.015625 124.5390625 C66.5625 126.4375 66.5625 126.4375 64.5625 128.4375 C58.07114018 129.26618423 52.44274664 127.10945287 46.5625 124.4375 C45.5725 123.4475 45.5725 123.4475 44.5625 122.4375 C44.74151656 115.52590412 47.19330823 110.11515372 50.125 103.9375 C50.76211914 102.56078125 50.76211914 102.56078125 51.41210938 101.15625 C52.45246824 98.91188032 53.50268204 96.67272919 54.5625 94.4375 C53.91966064 94.45490234 53.27682129 94.47230469 52.61450195 94.49023438 C29.46058449 94.85184618 11.66243239 79.35172295 -4.26489258 64.15014648 C-14.3543139 53.83255271 -17.67291903 44.80801398 -17.8269043 30.42211914 C-17.17633997 0.07923478 -17.17633997 0.07923478 0 0 Z M-5.4375 9.4375 C-5.4375 20.3275 -5.4375 31.2175 -5.4375 42.4375 C1.8225 42.4375 9.0825 42.4375 16.5625 42.4375 C14.96936593 34.31011983 14.96936593 34.31011983 12.8359375 26.4296875 C12.371875 24.92148437 12.371875 24.92148437 11.8984375 23.3828125 C11.58132812 22.36960937 11.26421875 21.35640625 10.9375 20.3125 C10.45023438 18.7346875 10.45023438 18.7346875 9.953125 17.125 C9.16065721 14.56113362 8.36220395 11.99911855 7.5625 9.4375 C3.2725 9.4375 -1.0175 9.4375 -5.4375 9.4375 Z M64.5625 18.4375 C65.16753854 24.0930181 66.18435703 29.43963991 67.625 34.9375 C67.9044043 36.02804688 67.9044043 36.02804688 68.18945312 37.140625 C68.64276455 38.90737724 69.1020002 40.67260775 69.5625 42.4375 C73.8525 42.4375 78.1425 42.4375 82.5625 42.4375 C80.41554087 37.07010218 77.72835015 32.51442452 74.6875 27.625 C74.15769531 26.74134766 73.62789062 25.85769531 73.08203125 24.94726562 C72.30279297 23.69526367 72.30279297 23.69526367 71.5078125 22.41796875 C71.03875488 21.65379639 70.56969727 20.88962402 70.08642578 20.10229492 C69.58353027 19.5529126 69.08063477 19.00353027 68.5625 18.4375 C67.2425 18.4375 65.9225 18.4375 64.5625 18.4375 Z M1.5625 52.4375 C2.50748949 53.5462768 3.45338696 54.65427978 4.3996582 55.76196289 C5.18962944 56.68761803 5.18962944 56.68761803 5.99555969 57.63197327 C16.53377745 69.7747676 30.76258557 83.55521158 47.6484375 84.8515625 C49.07768924 84.93023691 50.5074307 85.00043551 51.9375 85.0625 C52.67355469 85.10117188 53.40960938 85.13984375 54.16796875 85.1796875 C55.96577406 85.27307998 57.76410108 85.3563371 59.5625 85.4375 C60.490625 83.7359375 60.490625 83.7359375 61.4375 82 C63.3125 78.5625 63.3125 78.5625 65.5625 77.4375 C67.81370742 77.35176606 70.06749303 77.33037812 72.3203125 77.33984375 C73.31488968 77.34196617 73.31488968 77.34196617 74.32955933 77.34413147 C76.44891863 77.34973246 78.56817259 77.362285 80.6875 77.375 C82.12369639 77.38001488 83.55989444 77.38457781 84.99609375 77.38867188 C88.51826345 77.39970218 92.04037145 77.41696741 95.5625 77.4375 C95.5625 80.0775 95.5625 82.7175 95.5625 85.4375 C105.0113979 85.50700346 114.46020783 85.56031294 123.90930557 85.59293652 C128.296888 85.60859403 132.68429556 85.62983377 137.07177734 85.66381836 C141.30577056 85.6964089 145.53959556 85.71435237 149.77370453 85.72213173 C151.38925576 85.7276758 153.00479777 85.73850203 154.6202774 85.75469017 C156.88279635 85.77646085 159.14461976 85.77946715 161.40722656 85.77807617 C163.33915863 85.78806892 163.33915863 85.78806892 165.31011963 85.79826355 C168.735033 85.41836213 170.10237912 84.78025239 172.5625 82.4375 C170.4056656 76.59564759 168.18009642 72.48187484 162.5625 69.4375 C155.69067971 68.08827481 148.51770194 68.68745713 141.5625 68.9375 C139.62377121 68.97766748 137.68496265 69.01416252 135.74609375 69.046875 C131.01624739 69.13464066 126.29025514 69.27246021 121.5625 69.4375 C121.5625 66.1375 121.5625 62.8375 121.5625 59.4375 C130.8025 59.4375 140.0425 59.4375 149.5625 59.4375 C142.97027108 52.84527108 133.5978796 51.98324762 124.62910461 51.93981934 C122.82834724 51.96139099 122.82834724 51.96139099 120.99121094 51.98339844 C119.69223373 51.98281433 118.39325653 51.98223022 117.05491638 51.98162842 C113.53278338 51.98049238 110.01120813 52.00381846 106.48920345 52.03192425 C102.79371493 52.05712592 99.09821013 52.05929454 95.40264893 52.06402588 C88.42243963 52.07640105 81.44248438 52.10914765 74.46238637 52.14942384 C66.50824467 52.19431279 58.55409011 52.21617139 50.59985304 52.23620558 C34.25392057 52.27788602 17.90824283 52.34813032 1.5625 52.4375 Z M69.5625 86.4375 C64.28807962 96.5534856 59.78239425 106.84287189 55.5625 117.4375 C57.2125 117.7675 58.8625 118.0975 60.5625 118.4375 C60.94470703 117.88924561 61.32691406 117.34099121 61.72070312 116.77612305 C63.50017402 114.22495922 65.28105791 111.67478778 67.0625 109.125 C67.69945801 108.21322998 68.33641602 107.30145996 68.99267578 106.36206055 C73.02633024 100.59962382 77.1081269 94.8834454 81.3046875 89.23828125 C82.65793776 87.6669584 82.65793776 87.6669584 82.5625 86.4375 C78.2725 86.4375 73.9825 86.4375 69.5625 86.4375 Z " fill="#000000" transform="translate(57.4375,-0.4375)"/>
<path d="M0 0 C0.92425781 -0.00386719 1.84851562 -0.00773437 2.80078125 -0.01171875 C4.24517578 0.00568359 4.24517578 0.00568359 5.71875 0.0234375 C6.68167969 0.01183594 7.64460938 0.00023438 8.63671875 -0.01171875 C9.56097656 -0.00785156 10.48523437 -0.00398438 11.4375 0 C12.28248047 0.00338379 13.12746094 0.00676758 13.99804688 0.01025391 C16.71723501 0.48557373 17.61178789 1.17828824 19.21875 3.3984375 C19.51171875 6.75390625 19.51171875 6.75390625 19.40625 10.5859375 C19.36564453 12.49439453 19.36564453 12.49439453 19.32421875 14.44140625 C19.28941406 15.41722656 19.25460938 16.39304688 19.21875 17.3984375 C20.06638916 17.38272705 20.06638916 17.38272705 20.93115234 17.36669922 C23.48530653 17.32518962 26.03938982 17.2991279 28.59375 17.2734375 C29.48320313 17.25667969 30.37265625 17.23992187 31.2890625 17.22265625 C32.13984375 17.21621094 32.990625 17.20976562 33.8671875 17.203125 C35.04547119 17.18741455 35.04547119 17.18741455 36.24755859 17.17138672 C38.21875 17.3984375 38.21875 17.3984375 40.21875 19.3984375 C40.76296997 21.25120544 40.76296997 21.25120544 41.18017578 23.52514648 C41.34019073 24.37620468 41.50020569 25.22726288 41.66506958 26.10411072 C41.91207108 27.48536888 41.91207108 27.48536888 42.1640625 28.89453125 C42.33880096 29.83901627 42.51353943 30.78350128 42.693573 31.75660706 C43.06192662 33.75576488 43.42649997 35.75562235 43.78759766 37.75610352 C44.34112109 40.82137924 44.90583717 43.88442352 45.47265625 46.94726562 C45.8287832 48.88790016 46.18427329 50.8286517 46.5390625 52.76953125 C46.70777863 53.68834579 46.87649475 54.60716034 47.05032349 55.55381775 C47.20403412 56.40802811 47.35774475 57.26223846 47.51611328 58.14233398 C47.72024338 59.26912819 47.72024338 59.26912819 47.92849731 60.41868591 C48.21875 62.3984375 48.21875 62.3984375 48.21875 65.3984375 C49.37503906 65.68847656 49.37503906 65.68847656 50.5546875 65.984375 C51.55757813 66.24476563 52.56046875 66.50515625 53.59375 66.7734375 C54.59148437 67.02867187 55.58921875 67.28390625 56.6171875 67.546875 C59.21875 68.3984375 59.21875 68.3984375 61.21875 70.3984375 C61.89891551 76.59689851 60.08012558 81.50611178 57.9375 87.26953125 C57.60455933 88.1918605 57.27161865 89.11418976 56.92858887 90.06446838 C55.8690455 92.99219402 54.79417249 95.9140122 53.71875 98.8359375 C52.99507246 100.82710307 52.27240506 102.81863608 51.55078125 104.81054688 C49.78510487 109.67750916 48.00566424 114.53923471 46.21875 119.3984375 C46.76289551 119.66180908 47.30704102 119.92518066 47.86767578 120.1965332 C48.5842334 120.54804443 49.30079102 120.89955566 50.0390625 121.26171875 C50.74820801 121.60759033 51.45735352 121.95346191 52.18798828 122.30981445 C54.7985207 123.70923307 56.97053809 125.48084499 59.21875 127.3984375 C59.87875 127.7284375 60.53875 128.0584375 61.21875 128.3984375 C61.21875 131.3684375 61.21875 134.3384375 61.21875 137.3984375 C55.86171686 137.90863113 53.47391534 136.56717765 49.21875 133.3984375 C45.83564521 130.88743436 45.83564521 130.88743436 41.8203125 130.6328125 C38.9644843 131.47326644 37.44915917 132.59215026 35.15625 134.4609375 C29.71833549 138.23474105 24.65575099 138.49116663 18.21875 137.3984375 C15.00924561 135.73637272 12.89158293 134.02786186 10.28125 131.5859375 C8.12792972 130.11777 8.12792972 130.11777 4.84375 130.3984375 C0.38668107 131.62797376 -1.42781366 133.27896184 -4.78125 136.3984375 C-8.95999511 138.48781005 -14.23084483 137.83918355 -18.78125 137.3984375 C-21.99223074 135.73560819 -24.13147686 133.98729441 -26.78125 131.5859375 C-28.77893982 130.17870982 -28.77893982 130.17870982 -31.46875 130.3359375 C-34.68271649 131.36683241 -36.56008499 132.53096837 -39.28125 134.4609375 C-42.92499659 137.04423669 -45.19804807 138.10354549 -49.78125 137.3984375 C-50.13578759 134.32577841 -50.28529574 131.45985216 -49.78125 128.3984375 C-47.21875 126.0859375 -47.21875 126.0859375 -43.78125 124.3984375 C-42.52703294 123.67654859 -41.27696625 122.94739868 -40.03125 122.2109375 C-38.29736286 121.24396198 -36.55695409 120.28628954 -34.78125 119.3984375 C-35.23564453 118.16279053 -35.69003906 116.92714355 -36.15820312 115.65405273 C-37.84680594 111.05300644 -39.52055079 106.44667111 -41.18994141 101.83862305 C-41.91345852 99.84789888 -42.64095566 97.85861642 -43.37255859 95.87084961 C-44.42563759 93.00747767 -45.46412507 90.13916487 -46.5 87.26953125 C-46.99216003 85.94567665 -46.99216003 85.94567665 -47.4942627 84.59507751 C-49.25635995 79.66430749 -50.35912548 75.64419618 -49.78125 70.3984375 C-46.1539685 67.11121364 -41.45226216 66.42764357 -36.78125 65.3984375 C-36.58196899 63.44635376 -36.58196899 63.44635376 -36.37866211 61.45483398 C-35.85544108 56.75868312 -35.09209587 52.13906882 -34.22265625 47.49609375 C-33.99883522 46.29043007 -33.99883522 46.29043007 -33.77049255 45.06040955 C-33.45711004 43.38035007 -33.14191159 41.70062837 -32.82495117 40.02124023 C-32.34068577 37.44463379 -31.86846063 34.86599157 -31.39648438 32.28710938 C-31.08927448 30.64829996 -30.78135744 29.00962291 -30.47265625 27.37109375 C-30.33299942 26.60031998 -30.19334259 25.8295462 -30.04945374 25.03541565 C-29.00996006 19.62714756 -29.00996006 19.62714756 -26.78125 17.3984375 C-24.81005859 17.17138672 -24.81005859 17.17138672 -22.4296875 17.203125 C-21.57890625 17.20957031 -20.728125 17.21601563 -19.8515625 17.22265625 C-18.51738281 17.24779297 -18.51738281 17.24779297 -17.15625 17.2734375 C-15.81046875 17.28697266 -15.81046875 17.28697266 -14.4375 17.30078125 C-12.21848414 17.3243878 -9.99999923 17.3573144 -7.78125 17.3984375 C-7.83345703 15.93470703 -7.83345703 15.93470703 -7.88671875 14.44140625 C-7.91378906 13.16910156 -7.94085938 11.89679688 -7.96875 10.5859375 C-8.02095703 8.68908203 -8.02095703 8.68908203 -8.07421875 6.75390625 C-7.78125 3.3984375 -7.78125 3.3984375 -6.56176758 1.71362305 C-4.25295892 0.00821345 -2.85379072 0.01142822 0 0 Z M2.21875 9.3984375 C2.21875 12.0384375 2.21875 14.6784375 2.21875 17.3984375 C4.52875 17.3984375 6.83875 17.3984375 9.21875 17.3984375 C9.21875 14.7584375 9.21875 12.1184375 9.21875 9.3984375 C6.90875 9.3984375 4.59875 9.3984375 2.21875 9.3984375 Z M-20.78125 27.3984375 C-22.76125 38.6184375 -24.74125 49.8384375 -26.78125 61.3984375 C-19.5074773 59.82895839 -19.5074773 59.82895839 -12.58984375 57.63671875 C-11.70748047 57.32283203 -10.82511719 57.00894531 -9.91601562 56.68554688 C-8.11061501 56.0331972 -6.3085128 55.37164937 -4.50976562 54.70117188 C5.98591145 51.00810628 13.42810634 53.91093287 23.59375 57.4609375 C25.7465189 58.20436714 27.90012374 58.945382 30.0546875 59.68359375 C30.99876465 60.01238525 31.9428418 60.34117676 32.91552734 60.67993164 C35.13484375 61.497705 35.13484375 61.497705 37.21875 61.3984375 C36.65096739 53.75765241 35.62480191 46.30294737 34.21875 38.7734375 C34.04085937 37.78214844 33.86296875 36.79085937 33.6796875 35.76953125 C33.20953182 31.2340567 33.20953182 31.2340567 31.21875 27.3984375 C29.59200222 27.30503316 27.96120949 27.28098579 26.33178711 27.28491211 C24.77028175 27.28502541 24.77028175 27.28502541 23.17723083 27.28514099 C21.47881798 27.29288292 21.47881798 27.29288292 19.74609375 27.30078125 C18.59331436 27.3021962 17.44053497 27.30361115 16.25282288 27.30506897 C12.55393936 27.31068745 8.85511536 27.32324308 5.15625 27.3359375 C2.65559983 27.34095012 0.15494871 27.34551344 -2.34570312 27.34960938 C-8.49092705 27.359814 -14.63602155 27.37938581 -20.78125 27.3984375 Z M-9.9140625 65.8828125 C-10.7065036 66.13967834 -11.4989447 66.39654419 -12.31539917 66.66119385 C-13.98896819 67.2066885 -15.6616488 67.75491521 -17.33349609 68.30566406 C-19.89869973 69.14596421 -22.47047078 69.96360004 -25.04296875 70.78125 C-26.66712376 71.31371192 -28.29083793 71.84752082 -29.9140625 72.3828125 C-30.68694611 72.62465271 -31.45982971 72.86649292 -32.25613403 73.11566162 C-34.6527736 73.88180059 -34.6527736 73.88180059 -37.78125 75.3984375 C-39.0903611 78.47514539 -38.70706512 80.49454964 -37.66064453 83.59692383 C-37.38930695 84.41489944 -37.11796936 85.23287506 -36.83840942 86.07563782 C-36.53337494 86.95173203 -36.22834045 87.82782623 -35.9140625 88.73046875 C-35.44454666 90.09542732 -35.44454666 90.09542732 -34.96554565 91.48796082 C-34.29714819 93.41406628 -33.62259376 95.3380445 -32.94238281 97.26000977 C-31.91693021 100.18052003 -30.93467209 103.11332096 -29.953125 106.04882812 C-25.9081234 118.56944736 -25.9081234 118.56944736 -16.77563477 127.58764648 C-14.64531963 128.57106718 -14.64531963 128.57106718 -11.59375 128.6484375 C-8.08772973 127.09020627 -5.63681844 124.94361807 -2.78125 122.3984375 C-1.46125 121.7384375 -0.14125 121.0784375 1.21875 120.3984375 C1.21875 101.5884375 1.21875 82.7784375 1.21875 63.3984375 C-2.75723657 63.3984375 -6.17204712 64.66633767 -9.9140625 65.8828125 Z M10.21875 63.3984375 C10.00977148 70.72611209 9.8500884 78.05313988 9.75244045 85.38319588 C9.70555935 88.78746244 9.6420442 92.1896841 9.53979492 95.59277344 C9.42285571 99.50951205 9.3795497 103.42543724 9.33984375 107.34375 C9.29339218 108.55958771 9.24694061 109.77542542 9.19908142 111.02810669 C9.05814117 117.31516359 9.05814117 117.31516359 12.17678833 122.46917725 C14.4658489 124.00843863 16.72583031 125.226348 19.21875 126.3984375 C20.20875 127.0584375 21.19875 127.7184375 22.21875 128.3984375 C27.22320026 128.3984375 29.93627617 126.47819501 33.52441406 123.29400635 C36.54101012 119.91913518 37.79005215 116.00252539 39.21875 111.765625 C39.54415771 110.85136749 39.86956543 109.93710999 40.20483398 108.99514771 C40.88362923 107.07408906 41.55202238 105.1493261 42.21044922 103.22119141 C43.22093775 100.26704163 44.26578071 97.32680338 45.31640625 94.38671875 C45.97339783 92.51373644 46.62841602 90.6400605 47.28125 88.765625 C47.59255859 87.88639374 47.90386719 87.00716248 48.22460938 86.10128784 C48.64129883 84.86948288 48.64129883 84.86948288 49.06640625 83.61279297 C49.31398682 82.89364716 49.56156738 82.17450134 49.81665039 81.43356323 C50.29372545 79.01896816 50.18511921 77.66264354 49.21875 75.3984375 C46.56691865 74.17451534 44.12102758 73.24939579 41.3515625 72.3828125 C40.56103485 72.12211975 39.7705072 71.861427 38.95602417 71.59283447 C37.28226569 71.04411058 35.60590349 70.50327573 33.92724609 69.96972656 C31.3560606 69.15235102 28.79297275 68.31290373 26.23046875 67.46875 C24.60459111 66.93880021 22.97830164 66.41011191 21.3515625 65.8828125 C20.58272736 65.63287537 19.81389221 65.38293823 19.02175903 65.12542725 C15.98115699 64.16174103 13.42880767 63.3984375 10.21875 63.3984375 Z " fill="#000000" transform="translate(49.78125,118.6015625)"/>
<path d="M0 0 C1.26407936 -0.00788544 1.26407936 -0.00788544 2.55369568 -0.01593018 C5.33741833 -0.02912655 8.12056847 -0.02039342 10.90429688 -0.01025391 C12.83956004 -0.01227475 14.77482245 -0.01518627 16.71008301 -0.01895142 C20.76529188 -0.02337428 24.82030246 -0.01694489 28.87548828 -0.00292969 C34.07435133 0.01416213 39.27274976 0.00432075 44.47159576 -0.01364708 C48.46758527 -0.02448591 52.46346457 -0.02103811 56.4594574 -0.0132637 C58.37641963 -0.01126197 60.29339185 -0.01372002 62.21034241 -0.02070236 C64.88919595 -0.02831843 67.56729632 -0.01671057 70.24609375 0 C71.03894272 -0.00607269 71.83179169 -0.01214539 72.64866638 -0.0184021 C75.8722435 0.01886443 78.24410413 0.1888606 81.12219238 1.70272827 C83.55269495 4.43217573 83.00314309 7.03056184 82.87304688 10.57568359 C82.83695312 11.84798828 82.80085938 13.12029297 82.76367188 14.43115234 C82.71726562 15.40697266 82.67085938 16.38279297 82.62304688 17.38818359 C83.35418701 17.37247314 84.08532715 17.3567627 84.83862305 17.34057617 C88.16251847 17.27808008 91.48629008 17.23914607 94.81054688 17.20068359 C96.5362793 17.16297852 96.5362793 17.16297852 98.296875 17.12451172 C99.96459961 17.11000977 99.96459961 17.11000977 101.66601562 17.09521484 C102.68719482 17.07950439 103.70837402 17.06379395 104.76049805 17.04760742 C108.96952998 17.5483835 111.50478967 19.11994221 114.29223633 22.28125 C123.75012703 36.74550685 125.74610691 49.34913821 125.56054688 66.26318359 C125.55254059 67.19302063 125.5445343 68.12285767 125.5362854 69.08087158 C125.49876103 71.74495495 125.4288031 74.40511189 125.33789062 77.06787109 C125.30388657 78.28352753 125.30388657 78.28352753 125.26919556 79.52374268 C125.15405273 81.77832031 125.15405273 81.77832031 124.62304688 85.38818359 C120.94217335 87.84209928 118.17949099 87.61621118 113.93554688 87.51318359 C113.23365234 87.50416016 112.53175781 87.49513672 111.80859375 87.48583984 C110.07993162 87.46232063 108.35144542 87.42645072 106.62304688 87.38818359 C106.48189453 88.52513672 106.48189453 88.52513672 106.33789062 89.68505859 C105.51486908 92.79724937 104.6715997 93.67415017 102.18554688 95.63818359 C101.56808594 96.13833984 100.950625 96.63849609 100.31445312 97.15380859 C95.66099073 100.54986891 90.16265985 99.91024136 84.62304688 99.38818359 C79.60513003 96.96883083 76.12346032 93.38901049 73.62304688 88.38818359 C63.39304687 88.05818359 53.16304687 87.72818359 42.62304688 87.38818359 C42.29304688 89.03818359 41.96304688 90.68818359 41.62304688 92.38818359 C40.06445312 94.15380859 40.06445312 94.15380859 38.18554688 95.63818359 C37.56808594 96.13833984 36.950625 96.63849609 36.31445312 97.15380859 C31.66099073 100.54986891 26.16265985 99.91024136 20.62304688 99.38818359 C15.60513003 96.96883083 12.12346032 93.38901049 9.62304688 88.38818359 C9.06319092 88.37360107 8.50333496 88.35901855 7.92651367 88.34399414 C5.3871655 88.26947008 2.8491261 88.17282778 0.31054688 88.07568359 C-0.57052734 88.053125 -1.45160156 88.03056641 -2.359375 88.00732422 C-3.63071289 87.95415039 -3.63071289 87.95415039 -4.92773438 87.89990234 C-6.09816284 87.86062622 -6.09816284 87.86062622 -7.29223633 87.82055664 C-10.04000662 87.25066541 -10.73891153 86.6850433 -12.37695312 84.38818359 C-12.6781375 81.73460305 -12.79711426 79.31447336 -12.78100586 76.65966797 C-12.78786911 75.87400955 -12.79473236 75.08835114 -12.80180359 74.27888489 C-12.82011774 71.67971774 -12.81622803 69.08115147 -12.81054688 66.48193359 C-12.81510615 64.67736616 -12.82041096 62.87280046 -12.82643127 61.0682373 C-12.83537119 57.28532865 -12.8329289 53.50263101 -12.82299805 49.71972656 C-12.81150138 44.86701254 -12.83172583 40.01502542 -12.86091518 35.16240692 C-12.87924175 31.43580484 -12.87899194 27.70937813 -12.87327766 23.98274231 C-12.87312404 22.19333374 -12.87920178 20.40391357 -12.89156914 18.61454773 C-12.90641264 16.11479779 -12.89585263 13.61640602 -12.87866211 11.11669922 C-12.88833008 10.37478836 -12.89799805 9.6328775 -12.90795898 8.8684845 C-12.86425528 5.84057642 -12.7454653 3.86691564 -10.86915588 1.42941284 C-7.27364493 -0.07277278 -3.83178056 -0.02934888 0 0 Z M-3.37695312 10.38818359 C-3.37695312 32.49818359 -3.37695312 54.60818359 -3.37695312 77.38818359 C0.91304687 77.38818359 5.20304687 77.38818359 9.62304688 77.38818359 C12.97178874 74.00091031 12.97178874 74.00091031 14.43945312 71.36474609 C16.72902159 67.54124233 19.73527831 66.62719821 23.87304688 65.51318359 C29.20504379 65.33545036 34.14046287 66.22915911 38.27148438 69.82177734 C40.35122964 72.23211796 41.61539904 74.36524009 42.62304688 77.38818359 C52.52304688 77.38818359 62.42304688 77.38818359 72.62304688 77.38818359 C72.62304688 55.27818359 72.62304688 33.16818359 72.62304688 10.38818359 C47.54304688 10.38818359 22.46304688 10.38818359 -3.37695312 10.38818359 Z M82.62304688 27.38818359 C82.62304688 40.25818359 82.62304688 53.12818359 82.62304688 66.38818359 C87.07804687 65.89318359 87.07804687 65.89318359 91.62304688 65.38818359 C96.48048179 66.02021825 100.38423971 67.65610982 103.62304688 71.38818359 C105.62304688 74.38818359 105.62304688 74.38818359 106.62304688 77.38818359 C109.59304687 77.38818359 112.56304687 77.38818359 115.62304688 77.38818359 C115.62304688 69.46818359 115.62304688 61.54818359 115.62304688 53.38818359 C108.84724224 53.09938018 108.84724224 53.09938018 102.07104492 52.82006836 C100.80321167 52.76290649 100.80321167 52.76290649 99.50976562 52.70458984 C98.64569092 52.66793213 97.78161621 52.63127441 96.89135742 52.59350586 C94.62304688 52.38818359 94.62304688 52.38818359 91.62304688 51.38818359 C90.39244267 48.92697518 90.41727457 47.13041493 90.30664062 44.38037109 C90.24379883 42.90117187 90.24379883 42.90117187 90.1796875 41.39208984 C90.14037109 40.35955078 90.10105469 39.32701172 90.06054688 38.26318359 C90.01736328 37.22291016 89.97417969 36.18263672 89.9296875 35.11083984 C89.82341808 32.53675831 89.72138105 29.96257851 89.62304688 27.38818359 C87.31304687 27.38818359 85.00304687 27.38818359 82.62304688 27.38818359 Z M99.62304688 27.38818359 C99.62304688 32.66818359 99.62304688 37.94818359 99.62304688 43.38818359 C103.91304688 43.38818359 108.20304687 43.38818359 112.62304688 43.38818359 C109.98304688 38.10818359 107.34304687 32.82818359 104.62304688 27.38818359 C102.97304687 27.38818359 101.32304687 27.38818359 99.62304688 27.38818359 Z M20.74804688 76.51318359 C18.42222552 79.21947026 18.42222552 79.21947026 18.06054688 82.45068359 C18.75949373 86.10073938 19.60506733 87.2438297 22.62304688 89.38818359 C25.52655812 90.55267241 25.52655812 90.55267241 28.62304688 90.38818359 C32.12091774 88.444922 33.36180578 87.22415509 34.56054688 83.38818359 C34.62578827 80.25659663 34.42442828 78.91011756 32.62304688 76.38818359 C28.08228663 73.3610101 25.18880103 73.23088704 20.74804688 76.51318359 Z M84.74804688 76.51318359 C82.42222552 79.21947026 82.42222552 79.21947026 82.06054688 82.45068359 C82.75949373 86.10073938 83.60506733 87.2438297 86.62304688 89.38818359 C89.52655812 90.55267241 89.52655812 90.55267241 92.62304688 90.38818359 C96.12091774 88.444922 97.36180578 87.22415509 98.56054688 83.38818359 C98.62578827 80.25659663 98.42442828 78.91011756 96.62304688 76.38818359 C92.08228663 73.3610101 89.18880103 73.23088704 84.74804688 76.51318359 Z " fill="#000000" transform="translate(131.376953125,156.61181640625)"/>
<path d="M0 0 C11.55 0 23.1 0 35 0 C35 3.3 35 6.6 35 10 C23.45 10 11.9 10 0 10 C0 6.7 0 3.4 0 0 Z " fill="#000000" transform="translate(38,153)"/>
<path d="M0 0 C3.3 0 6.6 0 10 0 C10 3.3 10 6.6 10 10 C6.7 10 3.4 10 0 10 C0 6.7 0 3.4 0 0 Z " fill="#000000" transform="translate(110,59)"/>
<path d="M0 0 C3.3 0 6.6 0 10 0 C10 3.3 10 6.6 10 10 C6.7 10 3.4 10 0 10 C0 6.7 0 3.4 0 0 Z " fill="#000000" transform="translate(93,59)"/>
<path d="M0 0 C2.97 0 5.94 0 9 0 C9 3.3 9 6.6 9 10 C6.03 10 3.06 10 0 10 C0 6.7 0 3.4 0 0 Z " fill="#000000" transform="translate(162,59)"/>
<path d="M0 0 C2.97 0 5.94 0 9 0 C9 3.3 9 6.6 9 10 C6.03 10 3.06 10 0 10 C0 6.7 0 3.4 0 0 Z " fill="#000000" transform="translate(145,59)"/>
<path d="M0 0 C2.97 0 5.94 0 9 0 C9 3.3 9 6.6 9 10 C6.03 10 3.06 10 0 10 C0 6.7 0 3.4 0 0 Z " fill="#000000" transform="translate(128,59)"/>
</svg>
