<?xml version="1.0" encoding="UTF-8"?>
<svg version="1.1" xmlns="http://www.w3.org/2000/svg" width="256" height="256">
<path d="M0 0 C14.46806276 11.80175609 25.8228573 27.83886195 28.30664062 46.72021484 C28.59325221 52.05646993 28.4895403 57.38225398 28.30664062 62.72021484 C29.44101563 62.69958984 30.57539063 62.67896484 31.74414062 62.65771484 C35.30664062 62.72021484 35.30664062 62.72021484 36.30664062 63.72021484 C36.40751274 66.22945638 36.44636095 68.71057868 36.43945312 71.22021484 C36.44040985 71.97109375 36.44136658 72.72197266 36.44235229 73.49560547 C36.44303401 75.08610111 36.44118034 76.67659952 36.43701172 78.26708984 C36.43166329 80.70986139 36.43695696 83.15244906 36.44335938 85.59521484 C36.44269859 87.13688192 36.44141743 88.67854888 36.43945312 90.22021484 C36.44147736 90.955625 36.44350159 91.69103516 36.44558716 92.44873047 C36.42159223 97.60526324 36.42159223 97.60526324 35.30664062 98.72021484 C32.99664062 98.72021484 30.68664062 98.72021484 28.30664062 98.72021484 C28.30664062 105.32021484 28.30664062 111.92021484 28.30664062 118.72021484 C32.82351562 118.65060547 32.82351562 118.65060547 37.43164062 118.57958984 C40.36733314 118.54834171 43.3030067 118.52408387 46.23876953 118.50048828 C48.26977919 118.48044649 50.30073168 118.45320538 52.33154297 118.41845703 C55.26088619 118.3696107 58.18946262 118.34717142 61.11914062 118.32958984 C62.01842285 118.3089447 62.91770508 118.28829956 63.84423828 118.26702881 C70.91439407 118.26454585 76.25872761 119.91957519 81.52148438 124.75537109 C82.67011746 126.10716377 83.81595473 127.46133705 84.95898438 128.81787109 C92.18916534 134.67660343 101.43448744 134.21265332 110.30664062 134.34521484 C112.7442262 134.39594503 115.18173785 134.45041581 117.61914062 134.50927734 C118.68777344 134.52684082 119.75640625 134.5444043 120.85742188 134.5625 C123.30664062 134.72021484 123.30664062 134.72021484 124.30664062 135.72021484 C124.40728261 138.75887245 124.44278652 141.77484214 124.43603516 144.81396484 C124.43866364 146.24554932 124.43866364 146.24554932 124.44134521 147.70605469 C124.44576549 150.87745962 124.44282512 154.04880929 124.43945312 157.22021484 C124.44012611 159.41357433 124.4410961 161.60693374 124.44235229 163.80029297 C124.44382951 168.4038158 124.44167396 173.00731926 124.43701172 177.61083984 C124.43131442 183.52626079 124.4345933 189.44163638 124.44058418 195.35705566 C124.44418917 199.8881871 124.4430515 204.4193077 124.44045639 208.95043945 C124.43978695 211.13224289 124.44061614 213.3140473 124.44293594 215.49584961 C124.44546144 218.53941474 124.44162332 221.5829053 124.43603516 224.62646484 C124.43805939 225.5376709 124.44008362 226.44887695 124.44216919 227.38769531 C124.42090292 233.60595255 124.42090292 233.60595255 123.30664062 234.72021484 C121.27850016 234.81784713 119.24726787 234.85227547 117.21679688 234.86083984 C115.95673828 234.88017578 114.69667969 234.89951172 113.3984375 234.91943359 C110.74658058 234.95747847 108.09779866 234.97148049 105.4453125 234.97412109 C98.27465975 235.11222794 92.90588067 235.63419879 86.74584961 239.45751953 C80.09095927 242.90252932 73.17739183 243.02145363 65.85498047 243.02661133 C64.8393251 243.03493484 63.82366974 243.04325836 62.77723694 243.05183411 C59.44064438 243.0758097 56.1042475 243.08468851 52.76757812 243.09130859 C50.43925927 243.1002803 48.11094099 243.10940224 45.78262329 243.1186676 C40.91235963 243.13512338 36.04216447 243.14285223 31.171875 243.14575195 C24.93291881 243.15114994 18.69460567 243.18890374 12.45583153 243.23449612 C7.65169921 243.26423085 2.84772297 243.27147465 -1.95649338 243.2724781 C-4.25700214 243.276683 -6.55751127 243.28912796 -8.85792923 243.30999565 C-12.07259997 243.3368507 -15.28576266 243.33210268 -18.50048828 243.31958008 C-19.92201958 243.34183151 -19.92201958 243.34183151 -21.37226868 243.36453247 C-25.78086741 243.31562847 -28.76200982 243.1361589 -32.26791382 240.30775452 C-35.41777775 236.94738312 -35.81965993 235.56125404 -35.75585938 231.09521484 C-35.74683594 230.27794922 -35.7378125 229.46068359 -35.72851562 228.61865234 C-35.71691406 227.99216797 -35.7053125 227.36568359 -35.69335938 226.72021484 C-36.74523437 226.67896484 -37.79710938 226.63771484 -38.88085938 226.59521484 C-42.74778247 225.7077243 -44.44629499 224.80737627 -46.82617188 221.61865234 C-48.43199775 218.1031957 -48.07048468 214.49146785 -47.69335938 210.72021484 C-48.74523437 210.67896484 -49.79710938 210.63771484 -50.88085938 210.59521484 C-54.71209542 209.71591477 -56.48350571 208.86461441 -58.80664062 205.66162109 C-60.59947162 201.73634795 -60.5259842 197.89687759 -59.69335938 193.72021484 C-58.35791946 190.79636621 -57.28599443 189.87155031 -54.69335938 187.72021484 C-50.88085938 186.84521484 -50.88085938 186.84521484 -47.69335938 186.72021484 C-47.69335938 184.08021484 -47.69335938 181.44021484 -47.69335938 178.72021484 C-48.74523437 178.67896484 -49.79710938 178.63771484 -50.88085938 178.59521484 C-54.71209542 177.71591477 -56.48350571 176.86461441 -58.80664062 173.66162109 C-60.59947162 169.73634795 -60.5259842 165.89687759 -59.69335938 161.72021484 C-58.35791946 158.79636621 -57.28599443 157.87155031 -54.69335938 155.72021484 C-50.88085938 154.84521484 -50.88085938 154.84521484 -47.69335938 154.72021484 C-47.75136719 154.14013672 -47.809375 153.56005859 -47.86914062 152.96240234 C-48.12043492 148.61142108 -48.18791391 145.67041238 -45.31835938 142.22021484 C-41.11177567 138.21394465 -37.9651175 138.58648626 -32.40429688 138.62255859 C-31.67895752 138.62356567 -30.95361816 138.62457275 -30.20629883 138.62561035 C-27.49363629 138.63084715 -24.78099626 138.6448084 -22.06835938 138.65771484 C-12.97273438 138.68865234 -12.97273438 138.68865234 -3.69335938 138.72021484 C-3.69335938 125.52021484 -3.69335938 112.32021484 -3.69335938 98.72021484 C-6.00335938 98.72021484 -8.31335938 98.72021484 -10.69335938 98.72021484 C-12.42628917 96.98728505 -11.82155984 94.75807148 -11.83230591 92.44873047 C-11.82926956 91.34561523 -11.82926956 91.34561523 -11.82617188 90.22021484 C-11.8271286 89.46933594 -11.82808533 88.71845703 -11.82907104 87.94482422 C-11.82975276 86.35432858 -11.82789909 84.76383017 -11.82373047 83.17333984 C-11.81838204 80.7305683 -11.82367571 78.28798063 -11.83007812 75.84521484 C-11.82941734 74.30354777 -11.82813618 72.76188081 -11.82617188 71.22021484 C-11.82819611 70.48480469 -11.83022034 69.74939453 -11.83230591 68.99169922 C-11.80831098 63.83516645 -11.80831098 63.83516645 -10.69335938 62.72021484 C-8.36038504 62.67928547 -6.02630713 62.67779761 -3.69335938 62.72021484 C-5.70496724 49.53845924 -8.3568527 38.03706612 -18.69335938 28.72021484 C-28.90888788 21.31765796 -39.26471083 19.4964421 -51.69335938 20.72021484 C-61.95983233 22.83427278 -70.44074358 28.9268822 -76.41210938 37.48583984 C-82.06662654 47.34676611 -82.82653089 57.63007024 -82.91796875 68.72875977 C-82.92935883 69.69725357 -82.9407489 70.66574738 -82.95248413 71.66358948 C-83.06232104 81.69989971 -83.11038635 91.73689837 -83.15332031 101.77368164 C-83.17568555 106.53543658 -83.21760706 111.29641888 -83.27636719 116.05786133 C-83.34729655 121.8183925 -83.38412488 127.57819075 -83.3964386 133.33913612 C-83.40685338 135.53167992 -83.42931097 137.72420082 -83.46403503 139.91649437 C-83.51007243 142.97849442 -83.51226256 146.037586 -83.50390625 149.09985352 C-83.52750214 150.00438263 -83.55109802 150.90891174 -83.57540894 151.84085083 C-83.57673331 156.53275972 -83.57673331 156.53275972 -81.14828491 160.34470558 C-79.30457541 161.69942117 -79.30457541 161.69942117 -77.38417816 162.74533558 C-75.01675421 164.11032663 -73.82690791 165.87255082 -72.38085938 168.15771484 C-71.91035156 168.87830078 -71.43984375 169.59888672 -70.95507812 170.34130859 C-66.67668113 178.40800757 -66.13514005 188.68948492 -68.41601562 197.51708984 C-69.35811463 199.72930614 -70.40638685 201.69124187 -71.69335938 203.72021484 C-72.27150391 204.68701172 -72.27150391 204.68701172 -72.86132812 205.67333984 C-74.97480025 208.92904447 -76.11963686 210.47258555 -79.80664062 212.06396484 C-83.32168519 215.29837662 -83.18277983 216.34259856 -83.46289062 220.98193359 C-83.50672967 223.45684721 -83.5199016 225.93245282 -83.50585938 228.40771484 C-83.5299672 230.89082129 -83.55713685 233.37390057 -83.58789062 235.85693359 C-83.58635986 236.95739014 -83.5848291 238.05784668 -83.58325195 239.19165039 C-83.69335938 241.72021484 -83.69335938 241.72021484 -84.69335938 242.72021484 C-86.89986594 242.82033886 -89.10958324 242.85102664 -91.31835938 242.85302734 C-91.9804541 242.85398407 -92.64254883 242.8549408 -93.32470703 242.85592651 C-94.72688899 242.85660811 -96.12907408 242.85475526 -97.53125 242.85058594 C-99.68431651 242.84523731 -101.8371744 242.85053154 -103.99023438 242.85693359 C-105.34960984 242.85627281 -106.70898517 242.85499164 -108.06835938 242.85302734 C-109.31359375 242.85189941 -110.55882813 242.85077148 -111.84179688 242.84960938 C-114.69335938 242.72021484 -114.69335938 242.72021484 -115.69335938 241.72021484 C-115.76617448 239.77873012 -115.77769207 237.83488896 -115.76367188 235.89208984 C-115.77398437 234.69970703 -115.78429687 233.50732422 -115.79492188 232.27880859 C-115.8104505 229.75540678 -115.80292679 227.23174979 -115.77148438 224.70849609 C-115.60841151 218.38304207 -115.60841151 218.38304207 -118.19311523 212.90161133 C-119.97329891 211.68448218 -121.7842437 210.71662513 -123.69335938 209.72021484 C-125.61914062 207.47412109 -125.61914062 207.47412109 -127.00585938 205.28271484 C-127.71162109 204.20183594 -127.71162109 204.20183594 -128.43164062 203.09912109 C-132.71003762 195.03242211 -133.2515787 184.75094477 -130.97070312 175.92333984 C-130.02860412 173.71112355 -128.9803319 171.74918782 -127.69335938 169.72021484 C-127.30792969 169.07568359 -126.9225 168.43115234 -126.52539062 167.76708984 C-124.4381611 164.5518107 -123.21519359 162.96716808 -119.64151001 161.2759552 C-116.38009774 158.44864955 -116.24988278 158.12704677 -115.96078491 154.08818054 C-115.93781698 152.13320691 -115.94804791 150.17768043 -115.98388672 148.22290039 C-115.97968216 147.15401077 -115.9754776 146.08512115 -115.97114563 144.98384094 C-115.96342104 141.44096878 -115.99708244 137.89964789 -116.02929688 134.35693359 C-116.02820281 131.88751386 -116.02389365 129.41809363 -116.01651001 126.94868469 C-116.00307551 120.43256515 -116.02195804 113.91699507 -116.05096436 107.40093994 C-116.09622337 97.01121716 -116.11181408 86.62180234 -116.09141922 76.23200417 C-116.09178926 72.61877448 -116.1174681 69.00634349 -116.14511108 65.39323425 C-116.20323789 43.70792789 -112.36102505 24.92442519 -96.89331055 8.796875 C-71.34187485 -16.78517169 -29.7766123 -22.50418132 0 0 Z M-86.69335938 11.72021484 C-101.79932937 26.33663952 -107.35456124 43.19155854 -107.86529541 63.85400391 C-107.94763526 69.66375488 -107.9190141 75.47266244 -107.88867188 81.28271484 C-107.88493234 83.41218939 -107.88208983 85.54166568 -107.88009644 87.67114258 C-107.87253392 93.2210787 -107.85295063 98.77090676 -107.83068848 104.32080078 C-107.81006919 110.00600728 -107.80106065 115.69123157 -107.79101562 121.37646484 C-107.76969631 132.49109513 -107.73565182 143.60564593 -107.69335938 154.72021484 C-102.41335937 154.72021484 -97.13335937 154.72021484 -91.69335938 154.72021484 C-91.68971375 153.41888611 -91.68606812 152.11755737 -91.68231201 150.77679443 C-91.64527632 138.47768688 -91.58740988 126.17882773 -91.50945663 113.87990952 C-91.47004677 107.55778761 -91.43782631 101.23580365 -91.42236328 94.91357422 C-91.40715418 88.8055447 -91.3726326 82.69789457 -91.32505035 76.59003448 C-91.31028047 74.26663776 -91.3023209 71.94318686 -91.30147552 69.61974335 C-91.28846264 51.77884031 -90.4434759 38.08976188 -77.59179688 24.49755859 C-66.21406383 13.74298761 -53.84537113 11.09898497 -38.65820312 11.41162109 C-25.93497555 11.98962257 -16.00866191 17.90498357 -7.38085938 27.03271484 C1.6787366 37.77611452 3.52421485 49.02776381 4.30664062 62.72021484 C9.58664063 62.72021484 14.86664063 62.72021484 20.30664062 62.72021484 C19.74011351 43.08060809 14.58359897 27.75086196 0.87695312 13.13818359 C-24.08299548 -10.34237596 -61.09778088 -11.0436689 -86.69335938 11.72021484 Z M-3.69335938 70.72021484 C-3.69335938 77.32021484 -3.69335938 83.92021484 -3.69335938 90.72021484 C6.86664063 90.72021484 17.42664063 90.72021484 28.30664062 90.72021484 C28.30664062 84.12021484 28.30664062 77.52021484 28.30664062 70.72021484 C17.74664062 70.72021484 7.18664062 70.72021484 -3.69335938 70.72021484 Z M4.30664062 98.72021484 C4.30664062 122.48021484 4.30664062 146.24021484 4.30664062 170.72021484 C5.62664062 170.72021484 6.94664062 170.72021484 8.30664062 170.72021484 C8.63664063 164.45021484 8.96664062 158.18021484 9.30664062 151.72021484 C14.75164062 151.22521484 14.75164062 151.22521484 20.30664062 150.72021484 C20.30664062 133.56021484 20.30664062 116.40021484 20.30664062 98.72021484 C18.98664063 98.72021484 17.66664063 98.72021484 16.30664062 98.72021484 C15.97664062 108.95021484 15.64664063 119.18021484 15.30664062 129.72021484 C13.32664063 129.72021484 11.34664062 129.72021484 9.30664062 129.72021484 C8.97664062 119.49021484 8.64664063 109.26021484 8.30664062 98.72021484 C6.98664063 98.72021484 5.66664063 98.72021484 4.30664062 98.72021484 Z M28.30664062 126.72021484 C28.30664062 130.68021484 28.30664062 134.64021484 28.30664062 138.72021484 C34.57664063 139.05021484 40.84664062 139.38021484 47.30664062 139.72021484 C47.30664062 141.70021484 47.30664062 143.68021484 47.30664062 145.72021484 C37.90164062 146.21521484 37.90164062 146.21521484 28.30664062 146.72021484 C28.30664062 148.04021484 28.30664062 149.36021484 28.30664062 150.72021484 C29.56734375 150.72956055 30.82804688 150.73890625 32.12695312 150.74853516 C36.83124341 150.78858857 41.53489025 150.85438985 46.23876953 150.92773438 C48.26960954 150.95585519 50.3005572 150.9771137 52.33154297 150.99121094 C55.26129918 151.01276383 58.18977327 151.05947707 61.11914062 151.11083984 C62.01842285 151.11206848 62.91770508 151.11329712 63.84423828 151.11456299 C70.86431268 151.27546983 76.28900064 152.94739221 81.52148438 157.75537109 C82.67011746 159.10716377 83.81595473 160.46133705 84.95898438 161.81787109 C91.34821151 166.99516496 98.98134702 167.13160851 106.86914062 166.90771484 C109.98351562 166.84583984 113.09789062 166.78396484 116.30664062 166.72021484 C116.30664062 158.80021484 116.30664062 150.88021484 116.30664062 142.72021484 C114.45039063 142.69443359 112.59414062 142.66865234 110.68164062 142.64208984 C108.22328434 142.58579161 105.76495192 142.52844467 103.30664062 142.47021484 C102.08589844 142.45603516 100.86515625 142.44185547 99.60742188 142.42724609 C91.31554766 142.20314139 85.30370469 141.39300211 79.09179688 135.68505859 C77.94316379 134.33326592 76.79732652 132.97909264 75.65429688 131.62255859 C67.25078055 124.81305369 55.90349193 126.37513638 45.74414062 126.53271484 C44.05079313 126.54778627 42.35743268 126.56147033 40.6640625 126.57373047 C36.5445984 126.60654781 32.42576432 126.65819422 28.30664062 126.72021484 Z M-38.69335938 148.72021484 C-38.34891057 151.19288249 -38.34891057 151.19288249 -37.69335938 153.72021484 C-34.73525462 155.19926722 -31.73864388 154.84212387 -28.49804688 154.81787109 C-27.79060333 154.81645615 -27.08315979 154.8150412 -26.35427856 154.81358337 C-24.09226269 154.80798085 -21.83034539 154.79542802 -19.56835938 154.78271484 C-18.03580872 154.77770016 -16.50325652 154.7731372 -14.97070312 154.76904297 C-11.21155049 154.75801061 -7.45247165 154.74074436 -3.69335938 154.72021484 C-3.69335938 152.08021484 -3.69335938 149.44021484 -3.69335938 146.72021484 C-8.19570311 146.6707678 -12.69788867 146.63447323 -17.20043945 146.61035156 C-18.73204298 146.6002955 -20.26362733 146.58664884 -21.79516602 146.56933594 C-23.99695573 146.54506986 -26.19849156 146.53372797 -28.40039062 146.52490234 C-29.42710625 146.50941849 -29.42710625 146.50941849 -30.4745636 146.49362183 C-34.12397599 146.49276103 -35.56484439 146.63453819 -38.69335938 148.72021484 Z M16.30664062 158.72021484 C15.79299196 164.27502636 15.79299196 164.27502636 17.91308594 169.18212891 C20.97006914 171.1465306 22.98053304 171.26123168 26.60351562 171.32958984 C27.80878906 171.36181641 29.0140625 171.39404297 30.25585938 171.42724609 C31.51011719 171.44142578 32.764375 171.45560547 34.05664062 171.47021484 C35.32636719 171.49986328 36.59609375 171.52951172 37.90429688 171.56005859 C41.03847547 171.63075435 44.17191018 171.68345496 47.30664062 171.72021484 C47.30664062 173.70021484 47.30664062 175.68021484 47.30664062 177.72021484 C46.27347214 177.7283017 45.24030365 177.73638855 44.17582703 177.74472046 C34.44927938 177.82213371 24.72287245 177.90986071 14.9965086 178.00774193 C9.99582899 178.05773322 4.9951708 178.10406299 -0.00561523 178.14208984 C-4.82972712 178.17890688 -9.65366102 178.22525702 -14.47762108 178.27827835 C-16.32001823 178.29684137 -18.16245356 178.31194225 -20.00490761 178.32355881 C-22.58133885 178.34038868 -25.15736078 178.36941551 -27.73364258 178.40136719 C-28.49896805 178.40352737 -29.26429352 178.40568756 -30.05281067 178.40791321 C-33.80012736 178.46746222 -35.4958155 178.58851893 -38.69335938 180.72021484 C-38.34891057 183.19288249 -38.34891057 183.19288249 -37.69335938 185.72021484 C-35.22912041 186.95233432 -33.54101275 186.87801392 -30.78466797 186.92553711 C-29.25330704 186.95545494 -29.25330704 186.95545494 -27.69100952 186.98597717 C-26.58576935 187.00268967 -25.48052917 187.01940216 -24.34179688 187.03662109 C-23.21262848 187.05740219 -22.08346008 187.07818329 -20.92007446 187.09959412 C-17.30289966 187.16512819 -13.68565057 187.22399258 -10.06835938 187.28271484 C-7.62043494 187.32589639 -5.17251809 187.36951055 -2.72460938 187.41357422 C3.28572812 187.52081351 9.29613997 187.62257271 15.30664062 187.72021484 C15.30664062 189.70021484 15.30664062 191.68021484 15.30664062 193.72021484 C14.52403366 193.7283017 13.7414267 193.73638855 12.93510437 193.74472046 C5.56310246 193.82263128 -1.80870052 193.90991106 -9.18046284 194.00774193 C-12.97045029 194.05770773 -16.76040983 194.10403759 -20.55053711 194.14208984 C-24.20758938 194.17893931 -27.8644083 194.22529802 -31.52126122 194.27827835 C-32.91707456 194.29682417 -34.31293794 194.31193147 -35.70882607 194.32355881 C-37.66251016 194.34041725 -39.61606572 194.37058746 -41.56958008 194.40136719 C-43.23836967 194.42135269 -43.23836967 194.42135269 -44.94087219 194.44174194 C-47.90758277 194.52493596 -47.90758277 194.52493596 -50.69335938 196.72021484 C-50.34891057 199.19288249 -50.34891057 199.19288249 -49.69335938 201.72021484 C-46.9597179 203.08703558 -44.74298458 202.88286947 -41.68310547 202.92553711 C-40.42194916 202.94548233 -39.16079285 202.96542755 -37.86141968 202.98597717 C-36.47988001 203.00296149 -35.09833903 203.0198403 -33.71679688 203.03662109 C-32.30717355 203.05719045 -30.8975564 203.07818691 -29.48794556 203.09959412 C-25.77588902 203.15481679 -22.06377681 203.20422515 -18.35162354 203.25244141 C-14.56444334 203.30265503 -10.77734411 203.35834181 -6.99023438 203.41357422 C0.44198875 203.52115817 7.87427914 203.62260257 15.30664062 203.72021484 C15.30664062 205.70021484 15.30664062 207.68021484 15.30664062 209.72021484 C14.35823555 209.73234512 14.35823555 209.73234512 13.39067078 209.74472046 C6.82086782 209.8306552 0.25137045 209.93015383 -6.31811523 210.03759766 C-8.7711881 210.07592438 -11.22431789 210.11077067 -13.67749023 210.14208984 C-17.19991422 210.18765991 -20.72194513 210.24566805 -24.24414062 210.30615234 C-25.34421951 210.31770355 -26.4442984 210.32925476 -27.57771301 210.34115601 C-28.59854477 210.3610257 -29.61937653 210.38089539 -30.67114258 210.40136719 C-31.57049026 210.41469086 -32.46983795 210.42801453 -33.3964386 210.44174194 C-35.96905834 210.57863458 -35.96905834 210.57863458 -38.69335938 212.72021484 C-38.34891057 215.19288249 -38.34891057 215.19288249 -37.69335938 217.72021484 C-35.22912041 218.95233432 -33.54101275 218.87801392 -30.78466797 218.92553711 C-29.25330704 218.95545494 -29.25330704 218.95545494 -27.69100952 218.98597717 C-26.58576935 219.00268967 -25.48052917 219.01940216 -24.34179688 219.03662109 C-22.64804428 219.06779274 -22.64804428 219.06779274 -20.92007446 219.09959412 C-17.30289966 219.16512819 -13.68565057 219.22399258 -10.06835938 219.28271484 C-7.62043494 219.32589639 -5.17251809 219.36951055 -2.72460938 219.41357422 C3.28572812 219.52081351 9.29613997 219.62257271 15.30664062 219.72021484 C15.30664062 221.70021484 15.30664062 223.68021484 15.30664062 225.72021484 C14.14092529 225.74003418 12.97520996 225.75985352 11.77416992 225.78027344 C7.45217157 225.85630444 3.130511 225.9450256 -1.19116211 226.03759766 C-3.06218806 226.07589778 -4.9332879 226.11074885 -6.80444336 226.14208984 C-9.49294457 226.18771808 -12.18093661 226.24571572 -14.86914062 226.30615234 C-15.70673416 226.31770355 -16.5443277 226.32925476 -17.40730286 226.34115601 C-21.31708975 226.44067941 -23.37045467 226.50494504 -26.69335938 228.72021484 C-26.34891057 231.19288249 -26.34891057 231.19288249 -25.69335938 233.72021484 C-22.49689042 235.31844932 -19.02947014 234.86745988 -15.51855469 234.86547852 C-14.67268295 234.86883713 -13.82681122 234.87219574 -12.95530701 234.87565613 C-10.14401802 234.88519266 -7.33278856 234.8871115 -4.52148438 234.88818359 C-2.56247941 234.89139754 -0.60347468 234.89476172 1.35552979 234.89826965 C5.47481847 234.90426992 9.59408616 234.90610896 13.71337891 234.90551758 C18.95829205 234.90541664 24.20306771 234.91899323 29.44794846 234.93628979 C33.50265096 234.94749172 37.55732128 234.94943418 41.61203766 234.94890785 C43.5430676 234.95007857 45.47409864 234.95444858 47.40511322 234.96224022 C66.48971868 235.64755966 66.48971868 235.64755966 84.29882812 230.14599609 C90.4233748 226.73274587 96.56255634 226.94255133 103.43164062 226.90771484 C107.68039063 226.84583984 111.92914063 226.78396484 116.30664062 226.72021484 C116.30664062 209.56021484 116.30664062 192.40021484 116.30664062 174.72021484 C107.78157713 174.55021359 107.78157713 174.55021359 99.25585938 174.42236328 C91.0910029 174.19012934 85.19962889 173.29736985 79.09179688 167.68505859 C77.94316379 166.33326592 76.79732652 164.97909264 75.65429688 163.62255859 C69.10011281 158.31159746 61.00075582 158.30267931 52.92773438 158.42724609 C51.34872093 158.43361336 51.34872093 158.43361336 49.73780823 158.44010925 C46.4063152 158.45677716 43.07544794 158.49440734 39.74414062 158.53271484 C37.47266504 158.54777703 35.20117989 158.56146274 32.9296875 158.57373047 C27.38846172 158.60664159 21.8475959 158.65672098 16.30664062 158.72021484 Z M-50.69335938 164.72021484 C-50.34891057 167.19288249 -50.34891057 167.19288249 -49.69335938 169.72021484 C-47.36325958 170.88526474 -46.0208886 170.84115064 -43.42724609 170.83374023 C-42.54648407 170.8336647 -41.66572205 170.83358917 -40.75827026 170.83351135 C-39.80614655 170.82835007 -38.85402283 170.82318878 -37.87304688 170.81787109 C-36.89925079 170.81645615 -35.92545471 170.8150412 -34.92214966 170.81358337 C-31.80418864 170.80797458 -28.68629878 170.79542058 -25.56835938 170.78271484 C-23.45768333 170.77770098 -21.34700616 170.77313787 -19.23632812 170.76904297 C-14.05531416 170.75800229 -8.87434185 170.74125558 -3.69335938 170.72021484 C-3.69335938 168.08021484 -3.69335938 165.44021484 -3.69335938 162.72021484 C-9.90469193 162.67082508 -16.1159105 162.63450008 -22.32739258 162.61035156 C-24.4410196 162.6002859 -26.55463267 162.58663228 -28.66821289 162.56933594 C-31.7039738 162.54511255 -34.7395508 162.53373747 -37.77539062 162.52490234 C-38.72235306 162.51457977 -39.66931549 162.5042572 -40.64497375 162.49362183 C-41.52566025 162.49347076 -42.40634674 162.4933197 -43.3137207 162.49316406 C-44.47621086 162.48650223 -44.47621086 162.48650223 -45.66218567 162.47970581 C-48.00647483 162.60178219 -48.00647483 162.60178219 -50.69335938 164.72021484 Z M-119.46679688 173.87646484 C-123.39890364 179.78714763 -123.39199215 185.84136909 -122.69335938 192.72021484 C-120.91993504 199.36494399 -116.24669467 203.89389443 -110.69335938 207.72021484 C-104.69448934 210.66083741 -97.81052407 210.81905272 -91.38085938 209.10302734 C-85.25203077 206.39772409 -80.45383146 201.3115779 -77.52148438 195.32958984 C-75.61530081 189.32331332 -75.6289725 182.21729926 -78.19335938 176.40771484 C-81.67373195 170.4749801 -87.12897868 165.7885774 -93.69335938 163.72021484 C-105.41730899 162.29412622 -112.00078299 165.03403499 -119.46679688 173.87646484 Z M-107.69335938 218.72021484 C-107.69335938 224.00021484 -107.69335938 229.28021484 -107.69335938 234.72021484 C-102.41335937 234.72021484 -97.13335937 234.72021484 -91.69335938 234.72021484 C-91.69335938 229.44021484 -91.69335938 224.16021484 -91.69335938 218.72021484 C-96.97335938 218.72021484 -102.25335938 218.72021484 -107.69335938 218.72021484 Z " fill="#000000" transform="translate(131.693359375,13.27978515625)"/>
<path d="M0 0 C3.12578143 1.6720747 5.39281175 3.7856235 7 7 C7.51512617 11.09157355 7.94367269 15.23589546 5.953125 18.95703125 C3.55501226 21.85592636 1.60351712 23.79811835 -2.171875 24.2734375 C-9.98876369 24.58137554 -9.98876369 24.58137554 -13.5625 21.625 C-17.3057723 17.59378368 -17.39037018 14.90519941 -17.359375 9.55078125 C-16.78039966 5.44131496 -15.00085071 3.78650423 -12 1 C-8.27533151 -0.86233425 -4.05504687 -0.57130829 0 0 Z M-7 9 C-7.33 10.65 -7.66 12.3 -8 14 C-5.525 14.495 -5.525 14.495 -3 15 C-2.67 13.35 -2.34 11.7 -2 10 C-3.65 9.67 -5.3 9.34 -7 9 Z " fill="#000000" transform="translate(37,188)"/>
</svg>
